<svg width="261" height="221" viewBox="0 0 261 221" fill="none" xmlns="http://www.w3.org/2000/svg">
<g filter="url(#filter0_ii)">
<path d="M17 73C17 59.7452 27.7452 49 41 49H233C246.255 49 257 59.7452 257 73V185C257 189.418 253.418 193 249 193H25C20.5817 193 17 189.418 17 185V73Z" fill="#4A4A4E"/>
</g>
<path d="M17 73C17 59.7452 27.7452 49 41 49H233C246.255 49 257 59.7452 257 73V185C257 189.418 253.418 193 249 193H25C20.5817 193 17 189.418 17 185V73Z" stroke="#1F2024" stroke-width="8"/>
<g filter="url(#filter1_i)">
<path fill-rule="evenodd" clip-rule="evenodd" d="M34 4C29.5817 4 26 7.58172 26 12V14.9349C26 17.3771 24.1552 19.3688 22.0369 20.5841C18.4298 22.6537 16 26.5431 16 31V35C16 37.7614 18.2386 40 21 40H47C49.7614 40 52 37.7614 52 35V31C52 26.5431 49.5702 22.6537 45.9631 20.5841C43.8448 19.3688 42 17.3771 42 14.9349V12C42 7.58172 38.4183 4 34 4Z" fill="#F9E174"/>
</g>
<path d="M30 12C30 9.79086 31.7909 8 34 8V0C27.3726 0 22 5.37258 22 12H30ZM30 14.9349V12H22V14.9349H30ZM20 31C20 28.0338 21.6123 25.4393 24.0275 24.0536L20.0463 17.1146C15.2472 19.868 12 25.0524 12 31H20ZM20 35V31H12V35H20ZM47 36H21V44H47V36ZM48 31V35H56V31H48ZM43.9725 24.0536C46.3877 25.4393 48 28.0338 48 31H56C56 25.0524 52.7528 19.868 47.9537 17.1146L43.9725 24.0536ZM38 12V14.9349H46V12H38ZM34 8C36.2091 8 38 9.79086 38 12H46C46 5.37258 40.6274 0 34 0V8ZM47 44C51.9706 44 56 39.9706 56 35H48C48 35.5523 47.5523 36 47 36V44ZM12 35C12 39.9706 16.0294 44 21 44V36C20.4477 36 20 35.5523 20 35H12ZM47.9537 17.1146C47.25 16.7109 46.7058 16.2386 46.3717 15.799C46.0532 15.38 46 15.1 46 14.9349H38C38 19.4953 41.3497 22.5488 43.9725 24.0536L47.9537 17.1146ZM22 14.9349C22 15.1 21.9468 15.38 21.6283 15.799C21.2942 16.2386 20.75 16.7109 20.0463 17.1146L24.0275 24.0536C26.6503 22.5488 30 19.4953 30 14.9349H22Z" fill="#1F2024"/>
<g filter="url(#filter2_i)">
<rect x="6" y="33" width="56" height="16" rx="1" fill="#6FB2E8"/>
</g>
<rect x="6" y="33" width="56" height="16" rx="1" stroke="#1F2024" stroke-width="8"/>
<g filter="url(#filter3_i)">
<path d="M10 51C10 49.8954 10.8954 49 12 49H56C57.1046 49 58 49.8954 58 51V114C58 118.418 54.4183 122 50 122H18C13.5817 122 10 118.418 10 114V51Z" fill="#EEC2BD"/>
</g>
<path d="M10 51C10 49.8954 10.8954 49 12 49H56C57.1046 49 58 49.8954 58 51V114C58 118.418 54.4183 122 50 122H18C13.5817 122 10 118.418 10 114V51Z" stroke="#1F2024" stroke-width="8"/>
<g filter="url(#filter4_i)">
<rect x="4" y="68" width="60" height="34" rx="2" fill="#797A7C"/>
</g>
<rect x="4" y="68" width="60" height="34" rx="2" stroke="#1F2024" stroke-width="8"/>
<g filter="url(#filter5_ii)">
<path d="M25 197C25 194.791 26.7909 193 29 193H245C247.209 193 249 194.791 249 197V213C249 215.209 247.209 217 245 217H29C26.7909 217 25 215.209 25 213V197Z" fill="#797A7C"/>
</g>
<path d="M25 197C25 194.791 26.7909 193 29 193H245C247.209 193 249 194.791 249 197V213C249 215.209 247.209 217 245 217H29C26.7909 217 25 215.209 25 213V197Z" stroke="#1F2024" stroke-width="8"/>
<defs>
<filter id="filter0_ii" x="13" y="45" width="248" height="152" filterUnits="userSpaceOnUse" color-interpolation-filters="sRGB">
<feFlood flood-opacity="0" result="BackgroundImageFix"/>
<feBlend mode="normal" in="SourceGraphic" in2="BackgroundImageFix" result="shape"/>
<feColorMatrix in="SourceAlpha" type="matrix" values="0 0 0 0 0 0 0 0 0 0 0 0 0 0 0 0 0 0 127 0" result="hardAlpha"/>
<feOffset dy="-16"/>
<feComposite in2="hardAlpha" operator="arithmetic" k2="-1" k3="1"/>
<feColorMatrix type="matrix" values="0 0 0 0 0 0 0 0 0 0 0 0 0 0 0 0 0 0 0.25 0"/>
<feBlend mode="normal" in2="shape" result="effect1_innerShadow"/>
<feColorMatrix in="SourceAlpha" type="matrix" values="0 0 0 0 0 0 0 0 0 0 0 0 0 0 0 0 0 0 127 0" result="hardAlpha"/>
<feOffset dy="16"/>
<feComposite in2="hardAlpha" operator="arithmetic" k2="-1" k3="1"/>
<feColorMatrix type="matrix" values="0 0 0 0 1 0 0 0 0 1 0 0 0 0 1 0 0 0 0.25 0"/>
<feBlend mode="normal" in2="effect1_innerShadow" result="effect2_innerShadow"/>
</filter>
<filter id="filter1_i" x="12" y="0" width="44" height="44" filterUnits="userSpaceOnUse" color-interpolation-filters="sRGB">
<feFlood flood-opacity="0" result="BackgroundImageFix"/>
<feBlend mode="normal" in="SourceGraphic" in2="BackgroundImageFix" result="shape"/>
<feColorMatrix in="SourceAlpha" type="matrix" values="0 0 0 0 0 0 0 0 0 0 0 0 0 0 0 0 0 0 127 0" result="hardAlpha"/>
<feOffset dx="19" dy="-8"/>
<feComposite in2="hardAlpha" operator="arithmetic" k2="-1" k3="1"/>
<feColorMatrix type="matrix" values="0 0 0 0 0 0 0 0 0 0 0 0 0 0 0 0 0 0 0.25 0"/>
<feBlend mode="normal" in2="shape" result="effect1_innerShadow"/>
</filter>
<filter id="filter2_i" x="2" y="29" width="64" height="24" filterUnits="userSpaceOnUse" color-interpolation-filters="sRGB">
<feFlood flood-opacity="0" result="BackgroundImageFix"/>
<feBlend mode="normal" in="SourceGraphic" in2="BackgroundImageFix" result="shape"/>
<feColorMatrix in="SourceAlpha" type="matrix" values="0 0 0 0 0 0 0 0 0 0 0 0 0 0 0 0 0 0 127 0" result="hardAlpha"/>
<feOffset dx="16"/>
<feComposite in2="hardAlpha" operator="arithmetic" k2="-1" k3="1"/>
<feColorMatrix type="matrix" values="0 0 0 0 0 0 0 0 0 0 0 0 0 0 0 0 0 0 0.25 0"/>
<feBlend mode="normal" in2="shape" result="effect1_innerShadow"/>
</filter>
<filter id="filter3_i" x="6" y="45" width="56" height="81" filterUnits="userSpaceOnUse" color-interpolation-filters="sRGB">
<feFlood flood-opacity="0" result="BackgroundImageFix"/>
<feBlend mode="normal" in="SourceGraphic" in2="BackgroundImageFix" result="shape"/>
<feColorMatrix in="SourceAlpha" type="matrix" values="0 0 0 0 0 0 0 0 0 0 0 0 0 0 0 0 0 0 127 0" result="hardAlpha"/>
<feOffset dx="16"/>
<feComposite in2="hardAlpha" operator="arithmetic" k2="-1" k3="1"/>
<feColorMatrix type="matrix" values="0 0 0 0 0 0 0 0 0 0 0 0 0 0 0 0 0 0 0.25 0"/>
<feBlend mode="normal" in2="shape" result="effect1_innerShadow"/>
</filter>
<filter id="filter4_i" x="0" y="64" width="68" height="42" filterUnits="userSpaceOnUse" color-interpolation-filters="sRGB">
<feFlood flood-opacity="0" result="BackgroundImageFix"/>
<feBlend mode="normal" in="SourceGraphic" in2="BackgroundImageFix" result="shape"/>
<feColorMatrix in="SourceAlpha" type="matrix" values="0 0 0 0 0 0 0 0 0 0 0 0 0 0 0 0 0 0 127 0" result="hardAlpha"/>
<feOffset dx="16"/>
<feComposite in2="hardAlpha" operator="arithmetic" k2="-1" k3="1"/>
<feColorMatrix type="matrix" values="0 0 0 0 0 0 0 0 0 0 0 0 0 0 0 0 0 0 0.25 0"/>
<feBlend mode="normal" in2="shape" result="effect1_innerShadow"/>
</filter>
<filter id="filter5_ii" x="21" y="189" width="232" height="32" filterUnits="userSpaceOnUse" color-interpolation-filters="sRGB">
<feFlood flood-opacity="0" result="BackgroundImageFix"/>
<feBlend mode="normal" in="SourceGraphic" in2="BackgroundImageFix" result="shape"/>
<feColorMatrix in="SourceAlpha" type="matrix" values="0 0 0 0 0 0 0 0 0 0 0 0 0 0 0 0 0 0 127 0" result="hardAlpha"/>
<feOffset dy="-16"/>
<feComposite in2="hardAlpha" operator="arithmetic" k2="-1" k3="1"/>
<feColorMatrix type="matrix" values="0 0 0 0 0 0 0 0 0 0 0 0 0 0 0 0 0 0 0.25 0"/>
<feBlend mode="normal" in2="shape" result="effect1_innerShadow"/>
<feColorMatrix in="SourceAlpha" type="matrix" values="0 0 0 0 0 0 0 0 0 0 0 0 0 0 0 0 0 0 127 0" result="hardAlpha"/>
<feOffset dy="16"/>
<feComposite in2="hardAlpha" operator="arithmetic" k2="-1" k3="1"/>
<feColorMatrix type="matrix" values="0 0 0 0 1 0 0 0 0 1 0 0 0 0 1 0 0 0 0.25 0"/>
<feBlend mode="normal" in2="effect1_innerShadow" result="effect2_innerShadow"/>
</filter>
</defs>
</svg>
