<svg width="332" height="216" viewBox="0 0 332 216" fill="none" xmlns="http://www.w3.org/2000/svg">
<g filter="url(#filter0_ii)">
<path d="M4 52C4 25.4903 25.4903 4 52 4H196C222.51 4 244 25.4903 244 52V188C244 201.255 233.255 212 220 212H28C14.7452 212 4 201.255 4 188V52Z" fill="#8A7DD8"/>
</g>
<path d="M4 52C4 25.4903 25.4903 4 52 4H196C222.51 4 244 25.4903 244 52V188C244 201.255 233.255 212 220 212H28C14.7452 212 4 201.255 4 188V52Z" stroke="#1F2024" stroke-width="8"/>
<g filter="url(#filter1_i)">
<path d="M104 52C104 25.4903 125.49 4 152 4H280C306.51 4 328 25.4903 328 52V188C328 201.255 317.255 212 304 212H128C114.745 212 104 201.255 104 188V52Z" fill="#AEA5EE"/>
</g>
<path d="M104 52C104 25.4903 125.49 4 152 4H280C306.51 4 328 25.4903 328 52V188C328 201.255 317.255 212 304 212H128C114.745 212 104 201.255 104 188V52Z" stroke="#1F2024" stroke-width="8"/>
<path d="M232 8H270L214 208H176L232 8Z" fill="white" fill-opacity="0.5"/>
<path d="M217 8H223L167 208H161L217 8Z" fill="white" fill-opacity="0.5"/>
<defs>
<filter id="filter0_ii" x="0" y="0" width="248" height="216" filterUnits="userSpaceOnUse" color-interpolation-filters="sRGB">
<feFlood flood-opacity="0" result="BackgroundImageFix"/>
<feBlend mode="normal" in="SourceGraphic" in2="BackgroundImageFix" result="shape"/>
<feColorMatrix in="SourceAlpha" type="matrix" values="0 0 0 0 0 0 0 0 0 0 0 0 0 0 0 0 0 0 127 0" result="hardAlpha"/>
<feOffset dy="-16"/>
<feComposite in2="hardAlpha" operator="arithmetic" k2="-1" k3="1"/>
<feColorMatrix type="matrix" values="0 0 0 0 0 0 0 0 0 0 0 0 0 0 0 0 0 0 0.25 0"/>
<feBlend mode="normal" in2="shape" result="effect1_innerShadow"/>
<feColorMatrix in="SourceAlpha" type="matrix" values="0 0 0 0 0 0 0 0 0 0 0 0 0 0 0 0 0 0 127 0" result="hardAlpha"/>
<feOffset dy="16"/>
<feComposite in2="hardAlpha" operator="arithmetic" k2="-1" k3="1"/>
<feColorMatrix type="matrix" values="0 0 0 0 1 0 0 0 0 1 0 0 0 0 1 0 0 0 0.25 0"/>
<feBlend mode="normal" in2="effect1_innerShadow" result="effect2_innerShadow"/>
</filter>
<filter id="filter1_i" x="100" y="0" width="232" height="216" filterUnits="userSpaceOnUse" color-interpolation-filters="sRGB">
<feFlood flood-opacity="0" result="BackgroundImageFix"/>
<feBlend mode="normal" in="SourceGraphic" in2="BackgroundImageFix" result="shape"/>
<feColorMatrix in="SourceAlpha" type="matrix" values="0 0 0 0 0 0 0 0 0 0 0 0 0 0 0 0 0 0 127 0" result="hardAlpha"/>
<feOffset dx="-24" dy="8"/>
<feComposite in2="hardAlpha" operator="arithmetic" k2="-1" k3="1"/>
<feColorMatrix type="matrix" values="0 0 0 0 1 0 0 0 0 1 0 0 0 0 1 0 0 0 0.25 0"/>
<feBlend mode="normal" in2="shape" result="effect1_innerShadow"/>
</filter>
</defs>
</svg>
