<svg width="151" height="49" viewBox="0 0 151 49" fill="none" xmlns="http://www.w3.org/2000/svg">
<path fill-rule="evenodd" clip-rule="evenodd" d="M96.3641 5.0003C94.6104 5.00031 92.5356 5.00033 87.3377 5.00041C82.9139 5.00048 79.3564 6.43941 76.6596 8.79382C73.9628 6.43941 70.4052 5.00048 65.9815 5.00041C60.5976 5.00033 57.2798 5.00031 53.9439 5.0003C48.9544 5.00028 43.9242 5.00026 31.8794 5C5.30809 4.99942 -4.20545 48.5003 3.68937 48.5003C7.53786 48.5003 11.7492 48.5003 16.4649 48.5003C27.8216 48.5003 42.1039 48.5003 61.2898 48.5003C67.9299 48.5004 73.0575 45.899 76.6596 41.9686C80.2617 45.899 85.3893 48.5004 92.0293 48.5003C110.804 48.5003 121.059 48.5003 129.935 48.5003L141.63 48.5003C149.525 48.5003 140.011 4.99942 113.44 5C101.117 5.00027 99.1438 5.00028 96.3641 5.0003Z" fill="#1F2024" fill-opacity="0.16"/>
<path fill-rule="evenodd" clip-rule="evenodd" d="M65.6796 0.160568C52.2431 0.160355 59.6754 0.160594 39.5775 0.160156C13.0062 0.159578 3.49267 43.6605 11.3875 43.6605C24.5041 43.6605 33.8353 43.6604 60.9879 43.6605C88.1406 43.6606 90.0027 0.160953 65.6796 0.160568Z" fill="#1F2024"/>
<path fill-rule="evenodd" clip-rule="evenodd" d="M93.0358 0.160446C106.472 0.160233 99.04 0.160472 119.138 0.160034C145.709 0.159456 155.223 43.6604 147.328 43.6604C134.211 43.6604 124.88 43.6603 97.7274 43.6604C70.5748 43.6605 68.7127 0.160831 93.0358 0.160446Z" fill="#1F2024"/>
<path d="M121 9C127.759 10.3851 131.731 16.7302 133 21" stroke="white" stroke-width="8" stroke-linecap="round"/>
</svg>
