<svg width="406" height="536" viewBox="0 0 406 536" fill="none" xmlns="http://www.w3.org/2000/svg">
<g filter="url(#filter0_ii)">
<path d="M17 364C17 350.745 27.7452 340 41 340H233C246.255 340 257 350.745 257 364V476C257 480.418 253.418 484 249 484H25C20.5817 484 17 480.418 17 476V364Z" fill="#4A4A4E"/>
</g>
<path d="M17 364C17 350.745 27.7452 340 41 340H233C246.255 340 257 350.745 257 364V476C257 480.418 253.418 484 249 484H25C20.5817 484 17 480.418 17 476V364Z" stroke="#1F2024" stroke-width="8"/>
<g filter="url(#filter1_i)">
<path fill-rule="evenodd" clip-rule="evenodd" d="M34 295C29.5817 295 26 298.582 26 303V305.935C26 308.377 24.1552 310.369 22.0369 311.584C18.4298 313.654 16 317.543 16 322V326C16 328.761 18.2386 331 21 331H47C49.7614 331 52 328.761 52 326V322C52 317.543 49.5702 313.654 45.9631 311.584C43.8448 310.369 42 308.377 42 305.935V303C42 298.582 38.4183 295 34 295Z" fill="#F9E174"/>
</g>
<path d="M30 303C30 300.791 31.7909 299 34 299V291C27.3726 291 22 296.373 22 303H30ZM30 305.935V303H22V305.935H30ZM20 322C20 319.034 21.6123 316.439 24.0275 315.054L20.0463 308.115C15.2472 310.868 12 316.052 12 322H20ZM20 326V322H12V326H20ZM47 327H21V335H47V327ZM48 322V326H56V322H48ZM43.9725 315.054C46.3877 316.439 48 319.034 48 322H56C56 316.052 52.7528 310.868 47.9537 308.115L43.9725 315.054ZM38 303V305.935H46V303H38ZM34 299C36.2091 299 38 300.791 38 303H46C46 296.373 40.6274 291 34 291V299ZM47 335C51.9706 335 56 330.971 56 326H48C48 326.552 47.5523 327 47 327V335ZM12 326C12 330.971 16.0294 335 21 335V327C20.4477 327 20 326.552 20 326H12ZM47.9537 308.115C47.25 307.711 46.7058 307.239 46.3717 306.799C46.0532 306.38 46 306.1 46 305.935H38C38 310.495 41.3497 313.549 43.9725 315.054L47.9537 308.115ZM22 305.935C22 306.1 21.9468 306.38 21.6283 306.799C21.2942 307.239 20.75 307.711 20.0463 308.115L24.0275 315.054C26.6503 313.549 30 310.495 30 305.935H22Z" fill="#1F2024"/>
<g filter="url(#filter2_i)">
<rect x="6" y="324" width="56" height="16" rx="1" fill="#6FB2E8"/>
</g>
<rect x="6" y="324" width="56" height="16" rx="1" stroke="#1F2024" stroke-width="8"/>
<g filter="url(#filter3_i)">
<path d="M10 342C10 340.895 10.8954 340 12 340H56C57.1046 340 58 340.895 58 342V405C58 409.418 54.4183 413 50 413H18C13.5817 413 10 409.418 10 405V342Z" fill="#EEC2BD"/>
</g>
<path d="M10 342C10 340.895 10.8954 340 12 340H56C57.1046 340 58 340.895 58 342V405C58 409.418 54.4183 413 50 413H18C13.5817 413 10 409.418 10 405V342Z" stroke="#1F2024" stroke-width="8"/>
<g filter="url(#filter4_i)">
<rect x="4" y="359" width="60" height="34" rx="2" fill="#797A7C"/>
</g>
<rect x="4" y="359" width="60" height="34" rx="2" stroke="#1F2024" stroke-width="8"/>
<g filter="url(#filter5_ii)">
<path d="M25 488C25 485.791 26.7909 484 29 484H245C247.209 484 249 485.791 249 488V504C249 506.209 247.209 508 245 508H29C26.7909 508 25 506.209 25 504V488Z" fill="#797A7C"/>
</g>
<path d="M25 488C25 485.791 26.7909 484 29 484H245C247.209 484 249 485.791 249 488V504C249 506.209 247.209 508 245 508H29C26.7909 508 25 506.209 25 504V488Z" stroke="#1F2024" stroke-width="8"/>
<g filter="url(#filter6_i)">
<rect x="167" y="312" width="110" height="20" fill="#AEA5EE"/>
</g>
<rect x="167" y="312" width="110" height="20" stroke="#1F2024" stroke-width="8"/>
<g filter="url(#filter7_ii)">
<path d="M306 400C306 373.49 327.49 352 354 352V352C380.51 352 402 373.49 402 400V456H306V400Z" fill="#AEA5EE"/>
</g>
<path d="M306 400C306 373.49 327.49 352 354 352V352C380.51 352 402 373.49 402 400V456H306V400Z" stroke="#1F2024" stroke-width="8"/>
<g filter="url(#filter8_i)">
<rect x="322.5" y="456" width="63" height="19" fill="#9BCEF1"/>
</g>
<rect x="322.5" y="456" width="63" height="19" stroke="#1F2024" stroke-width="8"/>
<g filter="url(#filter9_i)">
<rect x="322.5" y="475" width="63" height="19" fill="#CAE9FA"/>
</g>
<rect x="322.5" y="475" width="63" height="19" stroke="#1F2024" stroke-width="8"/>
<g filter="url(#filter10_i)">
<rect x="322.5" y="494" width="63" height="19" fill="#9BCEF1"/>
</g>
<rect x="322.5" y="494" width="63" height="19" stroke="#1F2024" stroke-width="8"/>
<g filter="url(#filter11_i)">
<rect x="322.5" y="513" width="63" height="19" fill="#CAE9FA"/>
</g>
<rect x="322.5" y="513" width="63" height="19" stroke="#1F2024" stroke-width="8"/>
<g filter="url(#filter12_ii)">
<path d="M60 152C60 125.49 81.4903 104 108 104H252C278.51 104 300 125.49 300 152V288C300 301.255 289.255 312 276 312H84C70.7452 312 60 301.255 60 288V152Z" fill="#8A7DD8"/>
</g>
<path d="M60 152C60 125.49 81.4903 104 108 104H252C278.51 104 300 125.49 300 152V288C300 301.255 289.255 312 276 312H84C70.7452 312 60 301.255 60 288V152Z" stroke="#1F2024" stroke-width="8"/>
<g filter="url(#filter13_i)">
<path d="M160 152C160 125.49 181.49 104 208 104H336C362.51 104 384 125.49 384 152V288C384 301.255 373.255 312 360 312H184C170.745 312 160 301.255 160 288V152Z" fill="#AEA5EE"/>
</g>
<path d="M160 152C160 125.49 181.49 104 208 104H336C362.51 104 384 125.49 384 152V288C384 301.255 373.255 312 360 312H184C170.745 312 160 301.255 160 288V152Z" stroke="#1F2024" stroke-width="8"/>
<path d="M288 108H326L270 308H232L288 108Z" fill="white" fill-opacity="0.5"/>
<path d="M273 108H279L223 308H217L273 108Z" fill="white" fill-opacity="0.5"/>
<path d="M79 225C79 204.565 95.5655 188 116 188V188C136.435 188 153 204.565 153 225V231C153 251.435 136.435 268 116 268V268C95.5655 268 79 251.435 79 231V225Z" fill="#1F2024" fill-opacity="0.16"/>
<g filter="url(#filter14_ii)">
<path d="M70 211C70 188.909 87.9086 171 110 171V171C132.091 171 150 188.909 150 211V211C150 233.091 132.091 251 110 251V251C87.9086 251 70 233.091 70 211V211Z" fill="#AEA5EE"/>
</g>
<path d="M70 211C70 188.909 87.9086 171 110 171V171C132.091 171 150 188.909 150 211V211C150 233.091 132.091 251 110 251V251C87.9086 251 70 233.091 70 211V211Z" stroke="#1F2024" stroke-width="8"/>
<g filter="url(#filter15_ii)">
<path d="M28 211C28 193.327 42.3269 179 60 179H100C117.673 179 132 193.327 132 211V211C132 228.673 117.673 243 100 243H60C42.3269 243 28 228.673 28 211V211Z" fill="#EB0D18"/>
</g>
<path d="M28 211C28 193.327 42.3269 179 60 179H100C117.673 179 132 193.327 132 211V211C132 228.673 117.673 243 100 243H60C42.3269 243 28 228.673 28 211V211Z" stroke="#1F2024" stroke-width="8"/>
<path d="M77 216H74V219H77V216ZM77 208V205H74V208H77ZM117 211C118.657 211 120 209.657 120 208C120 206.343 118.657 205 117 205V211ZM117 219C118.657 219 120 217.657 120 216C120 214.343 118.657 213 117 213V219ZM80 216V208H74V216H80ZM77 211H117V205H77V211ZM117 213H77V219H117V213Z" fill="#F2C95C"/>
<path d="M71 228C67.6863 228 65 225.314 65 222V222C65 218.686 67.6863 216 71 216H77V222C77 225.314 74.3137 228 71 228V228Z" stroke="#F2C95C" stroke-width="6"/>
<path d="M71 208C67.6863 208 65 205.314 65 202V202C65 198.686 67.6863 196 71 196V196C74.3137 196 77 198.686 77 202V208H71Z" stroke="#F2C95C" stroke-width="6"/>
<path d="M41 204C41.2212 203.331 41.5028 202.663 41.8371 202M57 190C54.0466 190.595 50.817 192.304 48 194.605" stroke="white" stroke-width="8" stroke-linecap="round"/>
<path fill-rule="evenodd" clip-rule="evenodd" d="M304.364 227C302.61 227 300.536 227 295.338 227C290.914 227 287.356 228.439 284.66 230.794C281.963 228.439 278.405 227 273.982 227C268.598 227 265.28 227 261.944 227C256.954 227 251.924 227 239.879 227C213.308 226.999 203.795 270.5 211.689 270.5C215.538 270.5 219.749 270.5 224.465 270.5C235.822 270.5 250.104 270.5 269.29 270.5C275.93 270.5 281.057 267.899 284.66 263.969C288.262 267.899 293.389 270.5 300.029 270.5C318.804 270.5 329.059 270.5 337.935 270.5L349.63 270.5C357.525 270.5 348.011 226.999 321.44 227C309.117 227 307.144 227 304.364 227Z" fill="#1F2024" fill-opacity="0.16"/>
<path fill-rule="evenodd" clip-rule="evenodd" d="M273.68 222.161C260.243 222.16 267.675 222.161 247.578 222.16C221.006 222.16 211.493 265.66 219.387 265.66C232.504 265.66 241.835 265.66 268.988 265.66C296.141 265.661 298.003 222.161 273.68 222.161Z" fill="#1F2024"/>
<path fill-rule="evenodd" clip-rule="evenodd" d="M301.036 222.16C314.472 222.16 307.04 222.16 327.138 222.16C353.709 222.159 363.223 265.66 355.328 265.66C342.211 265.66 332.88 265.66 305.727 265.66C278.575 265.66 276.713 222.161 301.036 222.16Z" fill="#1F2024"/>
<path d="M329 231C335.759 232.385 339.731 238.73 341 243" stroke="white" stroke-width="8" stroke-linecap="round"/>
<g filter="url(#filter16_i)">
<circle cx="185" cy="18" r="14" fill="white"/>
</g>
<circle cx="185" cy="18" r="14" stroke="#1F2024" stroke-width="8"/>
<g filter="url(#filter17_i)">
<path d="M107 67C107 40.4903 128.49 19 155 19H249C275.51 19 297 40.4903 297 67V104H107V67Z" fill="#E2E2E2"/>
</g>
<path d="M107 67C107 40.4903 128.49 19 155 19H249C275.51 19 297 40.4903 297 67V104H107V67Z" stroke="#1F2024" stroke-width="8"/>
<g filter="url(#filter18_i)">
<path d="M100 59C100 36.9086 117.909 19 140 19H149.5C171.591 19 189.5 36.9086 189.5 59V104H100V59Z" fill="#FE204F"/>
</g>
<path d="M100 59C100 36.9086 117.909 19 140 19H149.5C171.591 19 189.5 36.9086 189.5 59V104H100V59Z" stroke="#1F2024" stroke-width="8"/>
<path d="M186 102C186 98.6863 188.686 96 192 96H370C376.627 96 382 101.373 382 108V108H186V102Z" fill="#1F2024"/>
<path d="M244.645 41.8527C245.298 41.8013 245.832 42.2908 245.837 42.946L245.854 44.989C245.863 46.0936 244.978 47.0592 243.877 47.1459L242.922 47.221C242.211 47.277 241.592 47.8051 241.413 48.5087L241.357 48.7298C241.126 49.6412 241.803 50.4653 242.725 50.3928V50.3928C243.498 50.3319 244.131 50.9116 244.137 51.6877L244.152 53.5119C244.161 54.6164 243.276 55.5821 242.175 55.6687L241.041 55.758C240.142 55.8287 239.359 56.4947 239.13 57.3836L238.638 59.2892C238.409 60.1782 237.626 60.8441 236.727 60.9149L233.488 61.1698C232.235 61.2684 231.315 60.1453 231.635 58.907L231.661 58.8036C231.967 57.6173 231.086 56.5414 229.886 56.6359V56.6359C229.065 56.7005 228.35 57.3085 228.141 58.1202L227.616 60.1567C227.386 61.0457 226.603 61.7116 225.704 61.7824L222.466 62.0373C221.213 62.1359 220.293 61.0128 220.612 59.7744L220.852 58.8461C221.05 58.0753 220.478 57.3763 219.698 57.4377V57.4377C219.045 57.4891 218.511 56.9996 218.506 56.3444L218.489 54.3014C218.48 53.1969 219.365 52.2312 220.466 52.1445L221.421 52.0694C222.132 52.0134 222.751 51.4853 222.93 50.7817L222.986 50.5606C223.217 49.6492 222.54 48.8251 221.618 48.8976V48.8976C220.845 48.9585 220.212 48.3788 220.206 47.6028L220.191 45.7785C220.182 44.674 221.067 43.7083 222.168 43.6217L223.302 43.5325C224.201 43.4617 224.984 42.7957 225.214 41.9068L225.705 40.0012C225.934 39.1122 226.717 38.4463 227.617 38.3755L230.855 38.1206C232.108 38.022 233.028 39.1451 232.708 40.3835L232.682 40.4869C232.376 41.6731 233.257 42.749 234.457 42.6545V42.6545C235.278 42.5899 235.993 41.9819 236.202 41.1703L236.728 39.1337C236.957 38.2447 237.74 37.5788 238.639 37.508L241.878 37.2531C243.13 37.1545 244.05 38.2776 243.731 39.516L243.492 40.4443C243.293 41.2151 243.865 41.9141 244.645 41.8527V41.8527ZM230.391 49.3762C230.131 50.3991 230.892 51.3241 231.926 51.2427L232.443 51.2019C233.155 51.1459 233.774 50.6178 233.952 49.9142V49.9142C234.212 48.8913 233.452 47.9664 232.417 48.0477L231.9 48.0885C231.188 48.1445 230.57 48.6726 230.391 49.3762V49.3762Z" fill="#1F2024"/>
<path d="M255.636 59.4268C254.534 59.5134 253.634 58.6883 253.625 57.5837L253.551 48.5684C253.542 47.4639 252.642 46.6387 251.541 46.7254L249.207 46.9091C248.105 46.9958 247.205 46.1707 247.196 45.0661L247.18 43.1294C247.171 42.0353 248.041 41.0802 249.131 40.9528C250.582 40.783 251.663 40.6034 252.375 40.4138C253.377 40.1466 254.064 39.7271 254.435 39.1553C254.642 38.8446 254.827 38.4117 254.99 37.8567C255.268 36.9068 256.06 36.1369 257.028 36.0608L261.636 35.6981C262.737 35.6115 263.637 36.4366 263.646 37.5411L263.804 56.7827C263.813 57.8872 262.928 58.8529 261.826 58.9395L255.636 59.4268Z" fill="#1F2024"/>
<path d="M209.398 89.0817C208.297 89.1683 207.397 88.3432 207.388 87.2386L207.252 70.7314C207.243 69.6269 208.128 68.6612 209.23 68.5745L219.882 67.7362C224.059 67.4075 227.176 68.0074 229.234 69.5359C231.293 71.0546 232.336 73.5375 232.364 76.9847L232.365 77.0433C232.393 80.4904 231.392 83.1391 229.361 84.9894C227.331 86.83 224.227 87.9146 220.05 88.2433L209.398 89.0817ZM219.261 82.8822C220.537 82.7818 221.483 82.3262 222.099 81.5155C222.726 80.6942 223.033 79.4975 223.02 77.9253L223.017 77.5591C223.004 75.9966 222.678 74.8595 222.039 74.1476C221.41 73.4252 220.457 73.1141 219.182 73.2145L218.328 73.2817C217.227 73.3684 216.342 74.334 216.351 75.4386L216.397 81.1063C216.406 82.2109 217.306 83.036 218.407 82.9494L219.261 82.8822Z" fill="#1F2024"/>
<path d="M241.458 85.5178C241.294 86.1453 240.741 86.6149 240.106 86.6649L235.131 87.0564C233.757 87.1646 232.783 85.878 233.228 84.5414L238.876 67.579C239.15 66.756 239.9 66.1607 240.746 66.0941L248.626 65.474C249.472 65.4074 250.23 65.8834 250.518 66.6616L256.448 82.7128C256.916 83.9778 255.965 85.4168 254.59 85.525L249.135 85.9543C248.5 86.0043 247.939 85.6223 247.766 85.0213V85.0213C247.593 84.4203 247.033 84.0384 246.398 84.0884L242.809 84.3708C242.174 84.4208 241.621 84.8903 241.458 85.5178V85.5178ZM243.26 77.9769C243.072 78.8374 243.719 79.5942 244.583 79.5261V79.5261C245.45 79.4579 246.084 78.5967 245.879 77.7658L245.389 75.7837C245.136 74.7469 244.904 73.5627 244.694 72.231C244.681 72.1489 244.61 72.0927 244.526 72.0993V72.0993C244.442 72.1059 244.371 72.1734 244.36 72.2576C244.188 73.5097 243.972 74.7291 243.71 75.9159L243.26 77.9769Z" fill="#1F2024"/>
<path d="M260.568 85.0545C259.467 85.1412 258.566 84.316 258.557 83.2115L258.422 66.7042C258.413 65.5997 259.298 64.634 260.399 64.5474L271.052 63.709C275.229 63.3803 278.346 63.9802 280.404 65.5087C282.463 67.0274 283.506 69.5104 283.534 72.9575L283.535 73.0161C283.563 76.4632 282.562 79.112 280.531 80.9623C278.5 82.8028 275.397 83.8874 271.22 84.2161L260.568 85.0545ZM270.431 78.855C271.706 78.7546 272.652 78.2991 273.269 77.4883C273.896 76.6671 274.203 75.4703 274.19 73.8981L274.187 73.5319C274.174 71.9695 273.848 70.8323 273.209 70.1204C272.579 69.398 271.627 69.087 270.352 69.1874L269.498 69.2546C268.397 69.3412 267.511 70.3069 267.521 71.4114L267.567 77.0792C267.576 78.1837 268.476 79.0089 269.577 78.9222L270.431 78.855Z" fill="#1F2024"/>
<g filter="url(#filter19_ddi)">
<circle cx="224" cy="186" r="24" fill="white"/>
<circle cx="224" cy="186" r="24" stroke="#1F2024" stroke-width="8"/>
</g>
<circle cx="227" cy="201" r="8" fill="#1F2024"/>
<g filter="url(#filter20_i)">
<path d="M248 186C248 179.635 245.471 173.53 240.971 169.029C236.47 164.529 230.365 162 224 162C217.635 162 211.53 164.529 207.029 169.029C202.529 173.53 200 179.635 200 186L224 186H248Z" fill="#AEA5EE"/>
</g>
<path d="M248 186C248 179.635 245.471 173.53 240.971 169.029C236.47 164.529 230.365 162 224 162C217.635 162 211.53 164.529 207.029 169.029C202.529 173.53 200 179.635 200 186L224 186H248Z" stroke="#1F2024" stroke-width="8" stroke-linejoin="round"/>
<g filter="url(#filter21_ddi)">
<circle cx="328" cy="186" r="24" fill="white"/>
<circle cx="328" cy="186" r="24" stroke="#1F2024" stroke-width="8"/>
</g>
<circle cx="331" cy="201" r="8" fill="#1F2024"/>
<g filter="url(#filter22_i)">
<path d="M352 186C352 179.635 349.471 173.53 344.971 169.029C340.47 164.529 334.365 162 328 162C321.635 162 315.53 164.529 311.029 169.029C306.529 173.53 304 179.635 304 186L328 186H352Z" fill="#AEA5EE"/>
</g>
<path d="M352 186C352 179.635 349.471 173.53 344.971 169.029C340.47 164.529 334.365 162 328 162C321.635 162 315.53 164.529 311.029 169.029C306.529 173.53 304 179.635 304 186L328 186H352Z" stroke="#1F2024" stroke-width="8" stroke-linejoin="round"/>
<g filter="url(#filter23_ii)">
<path d="M61.5 356C61.5 342.745 72.2452 332 85.5 332H277.5C290.755 332 301.5 342.745 301.5 356V508C301.5 521.255 290.755 532 277.5 532H85.5C72.2452 532 61.5 521.255 61.5 508V356Z" fill="#8A7DD8"/>
</g>
<path d="M61.5 356C61.5 342.745 72.2452 332 85.5 332H277.5C290.755 332 301.5 342.745 301.5 356V508C301.5 521.255 290.755 532 277.5 532H85.5C72.2452 532 61.5 521.255 61.5 508V356Z" stroke="#1F2024" stroke-width="8"/>
<g filter="url(#filter24_i)">
<path d="M157.5 356C157.5 342.745 168.245 332 181.5 332H357.5C370.755 332 381.5 342.745 381.5 356V508C381.5 521.255 370.755 532 357.5 532H181.5C168.245 532 157.5 521.255 157.5 508V356Z" fill="#AEA5EE"/>
</g>
<path d="M157.5 356C157.5 342.745 168.245 332 181.5 332H357.5C370.755 332 381.5 342.745 381.5 356V508C381.5 521.255 370.755 532 357.5 532H181.5C168.245 532 157.5 521.255 157.5 508V356Z" stroke="#1F2024" stroke-width="8"/>
<path d="M285.5 336H323.5L267.5 528H229.5L285.5 336Z" fill="white" fill-opacity="0.5"/>
<path d="M270.5 336H276.5L220.5 528H214.5L270.5 336Z" fill="white" fill-opacity="0.5"/>
<g filter="url(#filter25_d)">
<g filter="url(#filter26_d)">
<circle cx="221.5" cy="392" r="16" fill="#4A4A4E"/>
<circle cx="221.5" cy="392" r="16" stroke="#1F2024" stroke-width="8"/>
</g>
<g filter="url(#filter27_d)">
<circle cx="269.5" cy="392" r="16" fill="#4A4A4E"/>
<circle cx="269.5" cy="392" r="16" stroke="#1F2024" stroke-width="8"/>
</g>
<g filter="url(#filter28_d)">
<circle cx="317.5" cy="392" r="16" fill="#4A4A4E"/>
<circle cx="317.5" cy="392" r="16" stroke="#1F2024" stroke-width="8"/>
</g>
</g>
<g filter="url(#filter29_ii)">
<path d="M49 400C49 373.49 70.4903 352 97 352V352C123.51 352 145 373.49 145 400V456H49V400Z" fill="#AEA5EE"/>
</g>
<path d="M49 400C49 373.49 70.4903 352 97 352V352C123.51 352 145 373.49 145 400V456H49V400Z" stroke="#1F2024" stroke-width="8"/>
<g filter="url(#filter30_i)">
<rect x="65.5" y="456" width="63" height="19" fill="#9BCEF1"/>
</g>
<rect x="65.5" y="456" width="63" height="19" stroke="#1F2024" stroke-width="8"/>
<g filter="url(#filter31_i)">
<rect x="65.5" y="475" width="63" height="19" fill="#CAE9FA"/>
</g>
<rect x="65.5" y="475" width="63" height="19" stroke="#1F2024" stroke-width="8"/>
<g filter="url(#filter32_i)">
<rect x="65.5" y="494" width="63" height="19" fill="#9BCEF1"/>
</g>
<rect x="65.5" y="494" width="63" height="19" stroke="#1F2024" stroke-width="8"/>
<g filter="url(#filter33_i)">
<rect x="65.5" y="513" width="63" height="19" fill="#CAE9FA"/>
</g>
<rect x="65.5" y="513" width="63" height="19" stroke="#1F2024" stroke-width="8"/>
<defs>
<filter id="filter0_ii" x="13" y="336" width="248" height="152" filterUnits="userSpaceOnUse" color-interpolation-filters="sRGB">
<feFlood flood-opacity="0" result="BackgroundImageFix"/>
<feBlend mode="normal" in="SourceGraphic" in2="BackgroundImageFix" result="shape"/>
<feColorMatrix in="SourceAlpha" type="matrix" values="0 0 0 0 0 0 0 0 0 0 0 0 0 0 0 0 0 0 127 0" result="hardAlpha"/>
<feOffset dy="-16"/>
<feComposite in2="hardAlpha" operator="arithmetic" k2="-1" k3="1"/>
<feColorMatrix type="matrix" values="0 0 0 0 0 0 0 0 0 0 0 0 0 0 0 0 0 0 0.25 0"/>
<feBlend mode="normal" in2="shape" result="effect1_innerShadow"/>
<feColorMatrix in="SourceAlpha" type="matrix" values="0 0 0 0 0 0 0 0 0 0 0 0 0 0 0 0 0 0 127 0" result="hardAlpha"/>
<feOffset dy="16"/>
<feComposite in2="hardAlpha" operator="arithmetic" k2="-1" k3="1"/>
<feColorMatrix type="matrix" values="0 0 0 0 1 0 0 0 0 1 0 0 0 0 1 0 0 0 0.25 0"/>
<feBlend mode="normal" in2="effect1_innerShadow" result="effect2_innerShadow"/>
</filter>
<filter id="filter1_i" x="12" y="291" width="44" height="44" filterUnits="userSpaceOnUse" color-interpolation-filters="sRGB">
<feFlood flood-opacity="0" result="BackgroundImageFix"/>
<feBlend mode="normal" in="SourceGraphic" in2="BackgroundImageFix" result="shape"/>
<feColorMatrix in="SourceAlpha" type="matrix" values="0 0 0 0 0 0 0 0 0 0 0 0 0 0 0 0 0 0 127 0" result="hardAlpha"/>
<feOffset dx="19" dy="-8"/>
<feComposite in2="hardAlpha" operator="arithmetic" k2="-1" k3="1"/>
<feColorMatrix type="matrix" values="0 0 0 0 0 0 0 0 0 0 0 0 0 0 0 0 0 0 0.25 0"/>
<feBlend mode="normal" in2="shape" result="effect1_innerShadow"/>
</filter>
<filter id="filter2_i" x="2" y="320" width="64" height="24" filterUnits="userSpaceOnUse" color-interpolation-filters="sRGB">
<feFlood flood-opacity="0" result="BackgroundImageFix"/>
<feBlend mode="normal" in="SourceGraphic" in2="BackgroundImageFix" result="shape"/>
<feColorMatrix in="SourceAlpha" type="matrix" values="0 0 0 0 0 0 0 0 0 0 0 0 0 0 0 0 0 0 127 0" result="hardAlpha"/>
<feOffset dx="16"/>
<feComposite in2="hardAlpha" operator="arithmetic" k2="-1" k3="1"/>
<feColorMatrix type="matrix" values="0 0 0 0 0 0 0 0 0 0 0 0 0 0 0 0 0 0 0.25 0"/>
<feBlend mode="normal" in2="shape" result="effect1_innerShadow"/>
</filter>
<filter id="filter3_i" x="6" y="336" width="56" height="81" filterUnits="userSpaceOnUse" color-interpolation-filters="sRGB">
<feFlood flood-opacity="0" result="BackgroundImageFix"/>
<feBlend mode="normal" in="SourceGraphic" in2="BackgroundImageFix" result="shape"/>
<feColorMatrix in="SourceAlpha" type="matrix" values="0 0 0 0 0 0 0 0 0 0 0 0 0 0 0 0 0 0 127 0" result="hardAlpha"/>
<feOffset dx="16"/>
<feComposite in2="hardAlpha" operator="arithmetic" k2="-1" k3="1"/>
<feColorMatrix type="matrix" values="0 0 0 0 0 0 0 0 0 0 0 0 0 0 0 0 0 0 0.25 0"/>
<feBlend mode="normal" in2="shape" result="effect1_innerShadow"/>
</filter>
<filter id="filter4_i" x="0" y="355" width="68" height="42" filterUnits="userSpaceOnUse" color-interpolation-filters="sRGB">
<feFlood flood-opacity="0" result="BackgroundImageFix"/>
<feBlend mode="normal" in="SourceGraphic" in2="BackgroundImageFix" result="shape"/>
<feColorMatrix in="SourceAlpha" type="matrix" values="0 0 0 0 0 0 0 0 0 0 0 0 0 0 0 0 0 0 127 0" result="hardAlpha"/>
<feOffset dx="16"/>
<feComposite in2="hardAlpha" operator="arithmetic" k2="-1" k3="1"/>
<feColorMatrix type="matrix" values="0 0 0 0 0 0 0 0 0 0 0 0 0 0 0 0 0 0 0.25 0"/>
<feBlend mode="normal" in2="shape" result="effect1_innerShadow"/>
</filter>
<filter id="filter5_ii" x="21" y="480" width="232" height="32" filterUnits="userSpaceOnUse" color-interpolation-filters="sRGB">
<feFlood flood-opacity="0" result="BackgroundImageFix"/>
<feBlend mode="normal" in="SourceGraphic" in2="BackgroundImageFix" result="shape"/>
<feColorMatrix in="SourceAlpha" type="matrix" values="0 0 0 0 0 0 0 0 0 0 0 0 0 0 0 0 0 0 127 0" result="hardAlpha"/>
<feOffset dy="-16"/>
<feComposite in2="hardAlpha" operator="arithmetic" k2="-1" k3="1"/>
<feColorMatrix type="matrix" values="0 0 0 0 0 0 0 0 0 0 0 0 0 0 0 0 0 0 0.25 0"/>
<feBlend mode="normal" in2="shape" result="effect1_innerShadow"/>
<feColorMatrix in="SourceAlpha" type="matrix" values="0 0 0 0 0 0 0 0 0 0 0 0 0 0 0 0 0 0 127 0" result="hardAlpha"/>
<feOffset dy="16"/>
<feComposite in2="hardAlpha" operator="arithmetic" k2="-1" k3="1"/>
<feColorMatrix type="matrix" values="0 0 0 0 1 0 0 0 0 1 0 0 0 0 1 0 0 0 0.25 0"/>
<feBlend mode="normal" in2="effect1_innerShadow" result="effect2_innerShadow"/>
</filter>
<filter id="filter6_i" x="163" y="308" width="118" height="28" filterUnits="userSpaceOnUse" color-interpolation-filters="sRGB">
<feFlood flood-opacity="0" result="BackgroundImageFix"/>
<feBlend mode="normal" in="SourceGraphic" in2="BackgroundImageFix" result="shape"/>
<feColorMatrix in="SourceAlpha" type="matrix" values="0 0 0 0 0 0 0 0 0 0 0 0 0 0 0 0 0 0 127 0" result="hardAlpha"/>
<feOffset dx="12" dy="-8"/>
<feComposite in2="hardAlpha" operator="arithmetic" k2="-1" k3="1"/>
<feColorMatrix type="matrix" values="0 0 0 0 0 0 0 0 0 0 0 0 0 0 0 0 0 0 0.25 0"/>
<feBlend mode="normal" in2="shape" result="effect1_innerShadow"/>
</filter>
<filter id="filter7_ii" x="302" y="348" width="104" height="112" filterUnits="userSpaceOnUse" color-interpolation-filters="sRGB">
<feFlood flood-opacity="0" result="BackgroundImageFix"/>
<feBlend mode="normal" in="SourceGraphic" in2="BackgroundImageFix" result="shape"/>
<feColorMatrix in="SourceAlpha" type="matrix" values="0 0 0 0 0 0 0 0 0 0 0 0 0 0 0 0 0 0 127 0" result="hardAlpha"/>
<feOffset dx="24" dy="-14"/>
<feComposite in2="hardAlpha" operator="arithmetic" k2="-1" k3="1"/>
<feColorMatrix type="matrix" values="0 0 0 0 0.121569 0 0 0 0 0.12549 0 0 0 0 0.141176 0 0 0 0.2 0"/>
<feBlend mode="normal" in2="shape" result="effect1_innerShadow"/>
<feColorMatrix in="SourceAlpha" type="matrix" values="0 0 0 0 0 0 0 0 0 0 0 0 0 0 0 0 0 0 127 0" result="hardAlpha"/>
<feOffset dx="-24" dy="8"/>
<feComposite in2="hardAlpha" operator="arithmetic" k2="-1" k3="1"/>
<feColorMatrix type="matrix" values="0 0 0 0 1 0 0 0 0 1 0 0 0 0 1 0 0 0 0.25 0"/>
<feBlend mode="normal" in2="effect1_innerShadow" result="effect2_innerShadow"/>
</filter>
<filter id="filter8_i" x="318.5" y="452" width="71" height="27" filterUnits="userSpaceOnUse" color-interpolation-filters="sRGB">
<feFlood flood-opacity="0" result="BackgroundImageFix"/>
<feBlend mode="normal" in="SourceGraphic" in2="BackgroundImageFix" result="shape"/>
<feColorMatrix in="SourceAlpha" type="matrix" values="0 0 0 0 0 0 0 0 0 0 0 0 0 0 0 0 0 0 127 0" result="hardAlpha"/>
<feOffset dx="16" dy="12"/>
<feComposite in2="hardAlpha" operator="arithmetic" k2="-1" k3="1"/>
<feColorMatrix type="matrix" values="0 0 0 0 0 0 0 0 0 0 0 0 0 0 0 0 0 0 0.25 0"/>
<feBlend mode="normal" in2="shape" result="effect1_innerShadow"/>
</filter>
<filter id="filter9_i" x="318.5" y="471" width="71" height="27" filterUnits="userSpaceOnUse" color-interpolation-filters="sRGB">
<feFlood flood-opacity="0" result="BackgroundImageFix"/>
<feBlend mode="normal" in="SourceGraphic" in2="BackgroundImageFix" result="shape"/>
<feColorMatrix in="SourceAlpha" type="matrix" values="0 0 0 0 0 0 0 0 0 0 0 0 0 0 0 0 0 0 127 0" result="hardAlpha"/>
<feOffset dx="16"/>
<feComposite in2="hardAlpha" operator="arithmetic" k2="-1" k3="1"/>
<feColorMatrix type="matrix" values="0 0 0 0 0 0 0 0 0 0 0 0 0 0 0 0 0 0 0.25 0"/>
<feBlend mode="normal" in2="shape" result="effect1_innerShadow"/>
</filter>
<filter id="filter10_i" x="318.5" y="490" width="71" height="27" filterUnits="userSpaceOnUse" color-interpolation-filters="sRGB">
<feFlood flood-opacity="0" result="BackgroundImageFix"/>
<feBlend mode="normal" in="SourceGraphic" in2="BackgroundImageFix" result="shape"/>
<feColorMatrix in="SourceAlpha" type="matrix" values="0 0 0 0 0 0 0 0 0 0 0 0 0 0 0 0 0 0 127 0" result="hardAlpha"/>
<feOffset dx="16"/>
<feComposite in2="hardAlpha" operator="arithmetic" k2="-1" k3="1"/>
<feColorMatrix type="matrix" values="0 0 0 0 0 0 0 0 0 0 0 0 0 0 0 0 0 0 0.25 0"/>
<feBlend mode="normal" in2="shape" result="effect1_innerShadow"/>
</filter>
<filter id="filter11_i" x="318.5" y="509" width="71" height="27" filterUnits="userSpaceOnUse" color-interpolation-filters="sRGB">
<feFlood flood-opacity="0" result="BackgroundImageFix"/>
<feBlend mode="normal" in="SourceGraphic" in2="BackgroundImageFix" result="shape"/>
<feColorMatrix in="SourceAlpha" type="matrix" values="0 0 0 0 0 0 0 0 0 0 0 0 0 0 0 0 0 0 127 0" result="hardAlpha"/>
<feOffset dx="16"/>
<feComposite in2="hardAlpha" operator="arithmetic" k2="-1" k3="1"/>
<feColorMatrix type="matrix" values="0 0 0 0 0 0 0 0 0 0 0 0 0 0 0 0 0 0 0.25 0"/>
<feBlend mode="normal" in2="shape" result="effect1_innerShadow"/>
</filter>
<filter id="filter12_ii" x="56" y="100" width="248" height="216" filterUnits="userSpaceOnUse" color-interpolation-filters="sRGB">
<feFlood flood-opacity="0" result="BackgroundImageFix"/>
<feBlend mode="normal" in="SourceGraphic" in2="BackgroundImageFix" result="shape"/>
<feColorMatrix in="SourceAlpha" type="matrix" values="0 0 0 0 0 0 0 0 0 0 0 0 0 0 0 0 0 0 127 0" result="hardAlpha"/>
<feOffset dy="-16"/>
<feComposite in2="hardAlpha" operator="arithmetic" k2="-1" k3="1"/>
<feColorMatrix type="matrix" values="0 0 0 0 0 0 0 0 0 0 0 0 0 0 0 0 0 0 0.25 0"/>
<feBlend mode="normal" in2="shape" result="effect1_innerShadow"/>
<feColorMatrix in="SourceAlpha" type="matrix" values="0 0 0 0 0 0 0 0 0 0 0 0 0 0 0 0 0 0 127 0" result="hardAlpha"/>
<feOffset dy="16"/>
<feComposite in2="hardAlpha" operator="arithmetic" k2="-1" k3="1"/>
<feColorMatrix type="matrix" values="0 0 0 0 1 0 0 0 0 1 0 0 0 0 1 0 0 0 0.25 0"/>
<feBlend mode="normal" in2="effect1_innerShadow" result="effect2_innerShadow"/>
</filter>
<filter id="filter13_i" x="156" y="100" width="232" height="216" filterUnits="userSpaceOnUse" color-interpolation-filters="sRGB">
<feFlood flood-opacity="0" result="BackgroundImageFix"/>
<feBlend mode="normal" in="SourceGraphic" in2="BackgroundImageFix" result="shape"/>
<feColorMatrix in="SourceAlpha" type="matrix" values="0 0 0 0 0 0 0 0 0 0 0 0 0 0 0 0 0 0 127 0" result="hardAlpha"/>
<feOffset dx="-24" dy="8"/>
<feComposite in2="hardAlpha" operator="arithmetic" k2="-1" k3="1"/>
<feColorMatrix type="matrix" values="0 0 0 0 1 0 0 0 0 1 0 0 0 0 1 0 0 0 0.25 0"/>
<feBlend mode="normal" in2="shape" result="effect1_innerShadow"/>
</filter>
<filter id="filter14_ii" x="66" y="167" width="88" height="88" filterUnits="userSpaceOnUse" color-interpolation-filters="sRGB">
<feFlood flood-opacity="0" result="BackgroundImageFix"/>
<feBlend mode="normal" in="SourceGraphic" in2="BackgroundImageFix" result="shape"/>
<feColorMatrix in="SourceAlpha" type="matrix" values="0 0 0 0 0 0 0 0 0 0 0 0 0 0 0 0 0 0 127 0" result="hardAlpha"/>
<feOffset dy="-16"/>
<feComposite in2="hardAlpha" operator="arithmetic" k2="-1" k3="1"/>
<feColorMatrix type="matrix" values="0 0 0 0 0 0 0 0 0 0 0 0 0 0 0 0 0 0 0.25 0"/>
<feBlend mode="normal" in2="shape" result="effect1_innerShadow"/>
<feColorMatrix in="SourceAlpha" type="matrix" values="0 0 0 0 0 0 0 0 0 0 0 0 0 0 0 0 0 0 127 0" result="hardAlpha"/>
<feOffset dy="16"/>
<feComposite in2="hardAlpha" operator="arithmetic" k2="-1" k3="1"/>
<feColorMatrix type="matrix" values="0 0 0 0 1 0 0 0 0 1 0 0 0 0 1 0 0 0 0.25 0"/>
<feBlend mode="normal" in2="effect1_innerShadow" result="effect2_innerShadow"/>
</filter>
<filter id="filter15_ii" x="24" y="175" width="112" height="72" filterUnits="userSpaceOnUse" color-interpolation-filters="sRGB">
<feFlood flood-opacity="0" result="BackgroundImageFix"/>
<feBlend mode="normal" in="SourceGraphic" in2="BackgroundImageFix" result="shape"/>
<feColorMatrix in="SourceAlpha" type="matrix" values="0 0 0 0 0 0 0 0 0 0 0 0 0 0 0 0 0 0 127 0" result="hardAlpha"/>
<feOffset dx="-24" dy="8"/>
<feComposite in2="hardAlpha" operator="arithmetic" k2="-1" k3="1"/>
<feColorMatrix type="matrix" values="0 0 0 0 1 0 0 0 0 1 0 0 0 0 1 0 0 0 0.25 0"/>
<feBlend mode="normal" in2="shape" result="effect1_innerShadow"/>
<feColorMatrix in="SourceAlpha" type="matrix" values="0 0 0 0 0 0 0 0 0 0 0 0 0 0 0 0 0 0 127 0" result="hardAlpha"/>
<feOffset dy="-12"/>
<feComposite in2="hardAlpha" operator="arithmetic" k2="-1" k3="1"/>
<feColorMatrix type="matrix" values="0 0 0 0 1 0 0 0 0 1 0 0 0 0 1 0 0 0 0.5 0"/>
<feBlend mode="normal" in2="effect1_innerShadow" result="effect2_innerShadow"/>
</filter>
<filter id="filter16_i" x="167" y="0" width="36" height="36" filterUnits="userSpaceOnUse" color-interpolation-filters="sRGB">
<feFlood flood-opacity="0" result="BackgroundImageFix"/>
<feBlend mode="normal" in="SourceGraphic" in2="BackgroundImageFix" result="shape"/>
<feColorMatrix in="SourceAlpha" type="matrix" values="0 0 0 0 0 0 0 0 0 0 0 0 0 0 0 0 0 0 127 0" result="hardAlpha"/>
<feOffset dx="-24" dy="8"/>
<feComposite in2="hardAlpha" operator="arithmetic" k2="-1" k3="1"/>
<feColorMatrix type="matrix" values="0 0 0 0 1 0 0 0 0 1 0 0 0 0 1 0 0 0 0.25 0"/>
<feBlend mode="normal" in2="shape" result="effect1_innerShadow"/>
</filter>
<filter id="filter17_i" x="103" y="15" width="198" height="93" filterUnits="userSpaceOnUse" color-interpolation-filters="sRGB">
<feFlood flood-opacity="0" result="BackgroundImageFix"/>
<feBlend mode="normal" in="SourceGraphic" in2="BackgroundImageFix" result="shape"/>
<feColorMatrix in="SourceAlpha" type="matrix" values="0 0 0 0 0 0 0 0 0 0 0 0 0 0 0 0 0 0 127 0" result="hardAlpha"/>
<feOffset dx="-24" dy="8"/>
<feComposite in2="hardAlpha" operator="arithmetic" k2="-1" k3="1"/>
<feColorMatrix type="matrix" values="0 0 0 0 1 0 0 0 0 1 0 0 0 0 1 0 0 0 0.25 0"/>
<feBlend mode="normal" in2="shape" result="effect1_innerShadow"/>
</filter>
<filter id="filter18_i" x="96" y="15" width="97.5" height="93" filterUnits="userSpaceOnUse" color-interpolation-filters="sRGB">
<feFlood flood-opacity="0" result="BackgroundImageFix"/>
<feBlend mode="normal" in="SourceGraphic" in2="BackgroundImageFix" result="shape"/>
<feColorMatrix in="SourceAlpha" type="matrix" values="0 0 0 0 0 0 0 0 0 0 0 0 0 0 0 0 0 0 127 0" result="hardAlpha"/>
<feOffset dx="16"/>
<feComposite in2="hardAlpha" operator="arithmetic" k2="-1" k3="1"/>
<feColorMatrix type="matrix" values="0 0 0 0 0 0 0 0 0 0 0 0 0 0 0 0 0 0 0.25 0"/>
<feBlend mode="normal" in2="shape" result="effect1_innerShadow"/>
</filter>
<filter id="filter19_ddi" x="192" y="158" width="64" height="56" filterUnits="userSpaceOnUse" color-interpolation-filters="sRGB">
<feFlood flood-opacity="0" result="BackgroundImageFix"/>
<feColorMatrix in="SourceAlpha" type="matrix" values="0 0 0 0 0 0 0 0 0 0 0 0 0 0 0 0 0 0 127 0" result="hardAlpha"/>
<feOffset dx="4"/>
<feColorMatrix type="matrix" values="0 0 0 0 0 0 0 0 0 0 0 0 0 0 0 0 0 0 0.25 0"/>
<feBlend mode="normal" in2="BackgroundImageFix" result="effect1_dropShadow"/>
<feColorMatrix in="SourceAlpha" type="matrix" values="0 0 0 0 0 0 0 0 0 0 0 0 0 0 0 0 0 0 127 0" result="hardAlpha"/>
<feOffset dx="-4"/>
<feColorMatrix type="matrix" values="0 0 0 0 1 0 0 0 0 1 0 0 0 0 1 0 0 0 0.25 0"/>
<feBlend mode="normal" in2="effect1_dropShadow" result="effect2_dropShadow"/>
<feBlend mode="normal" in="SourceGraphic" in2="effect2_dropShadow" result="shape"/>
<feColorMatrix in="SourceAlpha" type="matrix" values="0 0 0 0 0 0 0 0 0 0 0 0 0 0 0 0 0 0 127 0" result="hardAlpha"/>
<feOffset dx="16"/>
<feComposite in2="hardAlpha" operator="arithmetic" k2="-1" k3="1"/>
<feColorMatrix type="matrix" values="0 0 0 0 0 0 0 0 0 0 0 0 0 0 0 0 0 0 0.25 0"/>
<feBlend mode="normal" in2="shape" result="effect3_innerShadow"/>
</filter>
<filter id="filter20_i" x="196" y="158" width="56" height="32" filterUnits="userSpaceOnUse" color-interpolation-filters="sRGB">
<feFlood flood-opacity="0" result="BackgroundImageFix"/>
<feBlend mode="normal" in="SourceGraphic" in2="BackgroundImageFix" result="shape"/>
<feColorMatrix in="SourceAlpha" type="matrix" values="0 0 0 0 0 0 0 0 0 0 0 0 0 0 0 0 0 0 127 0" result="hardAlpha"/>
<feOffset dx="16"/>
<feComposite in2="hardAlpha" operator="arithmetic" k2="-1" k3="1"/>
<feColorMatrix type="matrix" values="0 0 0 0 0 0 0 0 0 0 0 0 0 0 0 0 0 0 0.25 0"/>
<feBlend mode="normal" in2="shape" result="effect1_innerShadow"/>
</filter>
<filter id="filter21_ddi" x="296" y="158" width="64" height="56" filterUnits="userSpaceOnUse" color-interpolation-filters="sRGB">
<feFlood flood-opacity="0" result="BackgroundImageFix"/>
<feColorMatrix in="SourceAlpha" type="matrix" values="0 0 0 0 0 0 0 0 0 0 0 0 0 0 0 0 0 0 127 0" result="hardAlpha"/>
<feOffset dx="4"/>
<feColorMatrix type="matrix" values="0 0 0 0 0 0 0 0 0 0 0 0 0 0 0 0 0 0 0.25 0"/>
<feBlend mode="normal" in2="BackgroundImageFix" result="effect1_dropShadow"/>
<feColorMatrix in="SourceAlpha" type="matrix" values="0 0 0 0 0 0 0 0 0 0 0 0 0 0 0 0 0 0 127 0" result="hardAlpha"/>
<feOffset dx="-4"/>
<feColorMatrix type="matrix" values="0 0 0 0 1 0 0 0 0 1 0 0 0 0 1 0 0 0 0.25 0"/>
<feBlend mode="normal" in2="effect1_dropShadow" result="effect2_dropShadow"/>
<feBlend mode="normal" in="SourceGraphic" in2="effect2_dropShadow" result="shape"/>
<feColorMatrix in="SourceAlpha" type="matrix" values="0 0 0 0 0 0 0 0 0 0 0 0 0 0 0 0 0 0 127 0" result="hardAlpha"/>
<feOffset dx="16"/>
<feComposite in2="hardAlpha" operator="arithmetic" k2="-1" k3="1"/>
<feColorMatrix type="matrix" values="0 0 0 0 0 0 0 0 0 0 0 0 0 0 0 0 0 0 0.25 0"/>
<feBlend mode="normal" in2="shape" result="effect3_innerShadow"/>
</filter>
<filter id="filter22_i" x="300" y="158" width="56" height="32" filterUnits="userSpaceOnUse" color-interpolation-filters="sRGB">
<feFlood flood-opacity="0" result="BackgroundImageFix"/>
<feBlend mode="normal" in="SourceGraphic" in2="BackgroundImageFix" result="shape"/>
<feColorMatrix in="SourceAlpha" type="matrix" values="0 0 0 0 0 0 0 0 0 0 0 0 0 0 0 0 0 0 127 0" result="hardAlpha"/>
<feOffset dx="16"/>
<feComposite in2="hardAlpha" operator="arithmetic" k2="-1" k3="1"/>
<feColorMatrix type="matrix" values="0 0 0 0 0 0 0 0 0 0 0 0 0 0 0 0 0 0 0.25 0"/>
<feBlend mode="normal" in2="shape" result="effect1_innerShadow"/>
</filter>
<filter id="filter23_ii" x="57.5" y="328" width="248" height="208" filterUnits="userSpaceOnUse" color-interpolation-filters="sRGB">
<feFlood flood-opacity="0" result="BackgroundImageFix"/>
<feBlend mode="normal" in="SourceGraphic" in2="BackgroundImageFix" result="shape"/>
<feColorMatrix in="SourceAlpha" type="matrix" values="0 0 0 0 0 0 0 0 0 0 0 0 0 0 0 0 0 0 127 0" result="hardAlpha"/>
<feOffset dy="-16"/>
<feComposite in2="hardAlpha" operator="arithmetic" k2="-1" k3="1"/>
<feColorMatrix type="matrix" values="0 0 0 0 0 0 0 0 0 0 0 0 0 0 0 0 0 0 0.25 0"/>
<feBlend mode="normal" in2="shape" result="effect1_innerShadow"/>
<feColorMatrix in="SourceAlpha" type="matrix" values="0 0 0 0 0 0 0 0 0 0 0 0 0 0 0 0 0 0 127 0" result="hardAlpha"/>
<feOffset dy="16"/>
<feComposite in2="hardAlpha" operator="arithmetic" k2="-1" k3="1"/>
<feColorMatrix type="matrix" values="0 0 0 0 1 0 0 0 0 1 0 0 0 0 1 0 0 0 0.25 0"/>
<feBlend mode="normal" in2="effect1_innerShadow" result="effect2_innerShadow"/>
</filter>
<filter id="filter24_i" x="153.5" y="328" width="232" height="208" filterUnits="userSpaceOnUse" color-interpolation-filters="sRGB">
<feFlood flood-opacity="0" result="BackgroundImageFix"/>
<feBlend mode="normal" in="SourceGraphic" in2="BackgroundImageFix" result="shape"/>
<feColorMatrix in="SourceAlpha" type="matrix" values="0 0 0 0 0 0 0 0 0 0 0 0 0 0 0 0 0 0 127 0" result="hardAlpha"/>
<feOffset dx="-24" dy="8"/>
<feComposite in2="hardAlpha" operator="arithmetic" k2="-1" k3="1"/>
<feColorMatrix type="matrix" values="0 0 0 0 1 0 0 0 0 1 0 0 0 0 1 0 0 0 0.25 0"/>
<feBlend mode="normal" in2="shape" result="effect1_innerShadow"/>
</filter>
<filter id="filter25_d" x="193.5" y="372" width="144" height="76" filterUnits="userSpaceOnUse" color-interpolation-filters="sRGB">
<feFlood flood-opacity="0" result="BackgroundImageFix"/>
<feColorMatrix in="SourceAlpha" type="matrix" values="0 0 0 0 0 0 0 0 0 0 0 0 0 0 0 0 0 0 127 0" result="hardAlpha"/>
<feOffset dx="-8"/>
<feColorMatrix type="matrix" values="0 0 0 0 0 0 0 0 0 0 0 0 0 0 0 0 0 0 0.25 0"/>
<feBlend mode="normal" in2="BackgroundImageFix" result="effect1_dropShadow"/>
<feBlend mode="normal" in="SourceGraphic" in2="effect1_dropShadow" result="shape"/>
</filter>
<filter id="filter26_d" x="197.5" y="372" width="44" height="40" filterUnits="userSpaceOnUse" color-interpolation-filters="sRGB">
<feFlood flood-opacity="0" result="BackgroundImageFix"/>
<feColorMatrix in="SourceAlpha" type="matrix" values="0 0 0 0 0 0 0 0 0 0 0 0 0 0 0 0 0 0 127 0" result="hardAlpha"/>
<feOffset dx="-4"/>
<feColorMatrix type="matrix" values="0 0 0 0 0.133333 0 0 0 0 0.133333 0 0 0 0 0.133333 0 0 0 1 0"/>
<feBlend mode="normal" in2="BackgroundImageFix" result="effect1_dropShadow"/>
<feBlend mode="normal" in="SourceGraphic" in2="effect1_dropShadow" result="shape"/>
</filter>
<filter id="filter27_d" x="245.5" y="372" width="44" height="40" filterUnits="userSpaceOnUse" color-interpolation-filters="sRGB">
<feFlood flood-opacity="0" result="BackgroundImageFix"/>
<feColorMatrix in="SourceAlpha" type="matrix" values="0 0 0 0 0 0 0 0 0 0 0 0 0 0 0 0 0 0 127 0" result="hardAlpha"/>
<feOffset dx="-4"/>
<feColorMatrix type="matrix" values="0 0 0 0 0.133333 0 0 0 0 0.133333 0 0 0 0 0.133333 0 0 0 1 0"/>
<feBlend mode="normal" in2="BackgroundImageFix" result="effect1_dropShadow"/>
<feBlend mode="normal" in="SourceGraphic" in2="effect1_dropShadow" result="shape"/>
</filter>
<filter id="filter28_d" x="293.5" y="372" width="44" height="40" filterUnits="userSpaceOnUse" color-interpolation-filters="sRGB">
<feFlood flood-opacity="0" result="BackgroundImageFix"/>
<feColorMatrix in="SourceAlpha" type="matrix" values="0 0 0 0 0 0 0 0 0 0 0 0 0 0 0 0 0 0 127 0" result="hardAlpha"/>
<feOffset dx="-4"/>
<feColorMatrix type="matrix" values="0 0 0 0 0.133333 0 0 0 0 0.133333 0 0 0 0 0.133333 0 0 0 1 0"/>
<feBlend mode="normal" in2="BackgroundImageFix" result="effect1_dropShadow"/>
<feBlend mode="normal" in="SourceGraphic" in2="effect1_dropShadow" result="shape"/>
</filter>
<filter id="filter29_ii" x="45" y="348" width="104" height="112" filterUnits="userSpaceOnUse" color-interpolation-filters="sRGB">
<feFlood flood-opacity="0" result="BackgroundImageFix"/>
<feBlend mode="normal" in="SourceGraphic" in2="BackgroundImageFix" result="shape"/>
<feColorMatrix in="SourceAlpha" type="matrix" values="0 0 0 0 0 0 0 0 0 0 0 0 0 0 0 0 0 0 127 0" result="hardAlpha"/>
<feOffset dx="24" dy="-14"/>
<feComposite in2="hardAlpha" operator="arithmetic" k2="-1" k3="1"/>
<feColorMatrix type="matrix" values="0 0 0 0 0.121569 0 0 0 0 0.12549 0 0 0 0 0.141176 0 0 0 0.2 0"/>
<feBlend mode="normal" in2="shape" result="effect1_innerShadow"/>
<feColorMatrix in="SourceAlpha" type="matrix" values="0 0 0 0 0 0 0 0 0 0 0 0 0 0 0 0 0 0 127 0" result="hardAlpha"/>
<feOffset dx="-24" dy="8"/>
<feComposite in2="hardAlpha" operator="arithmetic" k2="-1" k3="1"/>
<feColorMatrix type="matrix" values="0 0 0 0 1 0 0 0 0 1 0 0 0 0 1 0 0 0 0.25 0"/>
<feBlend mode="normal" in2="effect1_innerShadow" result="effect2_innerShadow"/>
</filter>
<filter id="filter30_i" x="61.5" y="452" width="71" height="27" filterUnits="userSpaceOnUse" color-interpolation-filters="sRGB">
<feFlood flood-opacity="0" result="BackgroundImageFix"/>
<feBlend mode="normal" in="SourceGraphic" in2="BackgroundImageFix" result="shape"/>
<feColorMatrix in="SourceAlpha" type="matrix" values="0 0 0 0 0 0 0 0 0 0 0 0 0 0 0 0 0 0 127 0" result="hardAlpha"/>
<feOffset dx="16" dy="12"/>
<feComposite in2="hardAlpha" operator="arithmetic" k2="-1" k3="1"/>
<feColorMatrix type="matrix" values="0 0 0 0 0 0 0 0 0 0 0 0 0 0 0 0 0 0 0.25 0"/>
<feBlend mode="normal" in2="shape" result="effect1_innerShadow"/>
</filter>
<filter id="filter31_i" x="61.5" y="471" width="71" height="27" filterUnits="userSpaceOnUse" color-interpolation-filters="sRGB">
<feFlood flood-opacity="0" result="BackgroundImageFix"/>
<feBlend mode="normal" in="SourceGraphic" in2="BackgroundImageFix" result="shape"/>
<feColorMatrix in="SourceAlpha" type="matrix" values="0 0 0 0 0 0 0 0 0 0 0 0 0 0 0 0 0 0 127 0" result="hardAlpha"/>
<feOffset dx="16"/>
<feComposite in2="hardAlpha" operator="arithmetic" k2="-1" k3="1"/>
<feColorMatrix type="matrix" values="0 0 0 0 0 0 0 0 0 0 0 0 0 0 0 0 0 0 0.25 0"/>
<feBlend mode="normal" in2="shape" result="effect1_innerShadow"/>
</filter>
<filter id="filter32_i" x="61.5" y="490" width="71" height="27" filterUnits="userSpaceOnUse" color-interpolation-filters="sRGB">
<feFlood flood-opacity="0" result="BackgroundImageFix"/>
<feBlend mode="normal" in="SourceGraphic" in2="BackgroundImageFix" result="shape"/>
<feColorMatrix in="SourceAlpha" type="matrix" values="0 0 0 0 0 0 0 0 0 0 0 0 0 0 0 0 0 0 127 0" result="hardAlpha"/>
<feOffset dx="16"/>
<feComposite in2="hardAlpha" operator="arithmetic" k2="-1" k3="1"/>
<feColorMatrix type="matrix" values="0 0 0 0 0 0 0 0 0 0 0 0 0 0 0 0 0 0 0.25 0"/>
<feBlend mode="normal" in2="shape" result="effect1_innerShadow"/>
</filter>
<filter id="filter33_i" x="61.5" y="509" width="71" height="27" filterUnits="userSpaceOnUse" color-interpolation-filters="sRGB">
<feFlood flood-opacity="0" result="BackgroundImageFix"/>
<feBlend mode="normal" in="SourceGraphic" in2="BackgroundImageFix" result="shape"/>
<feColorMatrix in="SourceAlpha" type="matrix" values="0 0 0 0 0 0 0 0 0 0 0 0 0 0 0 0 0 0 127 0" result="hardAlpha"/>
<feOffset dx="16"/>
<feComposite in2="hardAlpha" operator="arithmetic" k2="-1" k3="1"/>
<feColorMatrix type="matrix" values="0 0 0 0 0 0 0 0 0 0 0 0 0 0 0 0 0 0 0.25 0"/>
<feBlend mode="normal" in2="shape" result="effect1_innerShadow"/>
</filter>
</defs>
</svg>
