<svg width="286" height="108" viewBox="0 0 286 108" fill="none" xmlns="http://www.w3.org/2000/svg">
<g filter="url(#filter0_i)">
<circle cx="89" cy="18" r="14" fill="white"/>
</g>
<circle cx="89" cy="18" r="14" stroke="#1F2024" stroke-width="8"/>
<g filter="url(#filter1_i)">
<path d="M11 67C11 40.4903 32.4903 19 59 19H153C179.51 19 201 40.4903 201 67V104H11V67Z" fill="#E2E2E2"/>
</g>
<path d="M11 67C11 40.4903 32.4903 19 59 19H153C179.51 19 201 40.4903 201 67V104H11V67Z" stroke="#1F2024" stroke-width="8"/>
<g filter="url(#filter2_i)">
<path d="M4 59C4 36.9086 21.9086 19 44 19H53.5C75.5914 19 93.5 36.9086 93.5 59V104H4V59Z" fill="#FE204F"/>
</g>
<path d="M4 59C4 36.9086 21.9086 19 44 19H53.5C75.5914 19 93.5 36.9086 93.5 59V104H4V59Z" stroke="#1F2024" stroke-width="8"/>
<path d="M90 102C90 98.6863 92.6863 96 96 96H274C280.627 96 286 101.373 286 108V108H90V102Z" fill="#1F2024"/>
<path d="M148.645 41.8527C149.298 41.8013 149.832 42.2908 149.837 42.946L149.854 44.989C149.863 46.0936 148.978 47.0592 147.877 47.1459L146.922 47.221C146.211 47.277 145.592 47.8051 145.413 48.5087L145.357 48.7298C145.126 49.6412 145.803 50.4653 146.725 50.3928V50.3928C147.498 50.3319 148.131 50.9116 148.137 51.6877L148.152 53.5119C148.161 54.6164 147.276 55.5821 146.175 55.6687L145.041 55.758C144.142 55.8287 143.359 56.4947 143.13 57.3836L142.638 59.2892C142.409 60.1782 141.626 60.8441 140.727 60.9149L137.488 61.1698C136.235 61.2684 135.315 60.1453 135.635 58.907L135.661 58.8036C135.967 57.6173 135.086 56.5414 133.886 56.6359V56.6359C133.065 56.7005 132.35 57.3085 132.141 58.1202L131.616 60.1567C131.386 61.0457 130.603 61.7116 129.704 61.7824L126.466 62.0373C125.213 62.1359 124.293 61.0128 124.612 59.7744L124.852 58.8461C125.05 58.0753 124.478 57.3763 123.698 57.4377V57.4377C123.045 57.4891 122.511 56.9996 122.506 56.3444L122.489 54.3014C122.48 53.1969 123.365 52.2312 124.466 52.1445L125.421 52.0694C126.132 52.0134 126.751 51.4853 126.93 50.7817L126.986 50.5606C127.217 49.6492 126.54 48.8251 125.618 48.8976V48.8976C124.845 48.9585 124.212 48.3788 124.206 47.6028L124.191 45.7785C124.182 44.674 125.067 43.7083 126.168 43.6217L127.302 43.5325C128.201 43.4617 128.984 42.7957 129.214 41.9068L129.705 40.0012C129.934 39.1122 130.717 38.4463 131.617 38.3755L134.855 38.1206C136.108 38.022 137.028 39.1451 136.708 40.3835L136.682 40.4869C136.376 41.6731 137.257 42.749 138.457 42.6545V42.6545C139.278 42.5899 139.993 41.9819 140.202 41.1703L140.728 39.1337C140.957 38.2447 141.74 37.5788 142.639 37.508L145.878 37.2531C147.13 37.1545 148.05 38.2776 147.731 39.516L147.492 40.4443C147.293 41.2151 147.865 41.9141 148.645 41.8527V41.8527ZM134.391 49.3762C134.131 50.3991 134.892 51.3241 135.926 51.2427L136.443 51.2019C137.155 51.1459 137.774 50.6178 137.952 49.9142V49.9142C138.212 48.8913 137.452 47.9664 136.417 48.0477L135.9 48.0885C135.188 48.1445 134.57 48.6726 134.391 49.3762V49.3762Z" fill="#1F2024"/>
<path d="M159.636 59.4268C158.534 59.5134 157.634 58.6883 157.625 57.5837L157.551 48.5684C157.542 47.4639 156.642 46.6387 155.541 46.7254L153.207 46.9091C152.105 46.9958 151.205 46.1707 151.196 45.0661L151.18 43.1294C151.171 42.0353 152.041 41.0802 153.131 40.9528C154.582 40.783 155.663 40.6034 156.375 40.4138C157.377 40.1466 158.064 39.7271 158.435 39.1553C158.642 38.8446 158.827 38.4117 158.99 37.8567C159.268 36.9068 160.06 36.1369 161.028 36.0608L165.636 35.6981C166.737 35.6115 167.637 36.4366 167.646 37.5411L167.804 56.7827C167.813 57.8872 166.928 58.8529 165.826 58.9395L159.636 59.4268Z" fill="#1F2024"/>
<path d="M113.398 89.0817C112.297 89.1683 111.397 88.3432 111.388 87.2386L111.252 70.7314C111.243 69.6269 112.128 68.6612 113.23 68.5745L123.882 67.7362C128.059 67.4075 131.176 68.0074 133.234 69.5359C135.293 71.0546 136.336 73.5375 136.364 76.9847L136.365 77.0433C136.393 80.4904 135.392 83.1391 133.361 84.9894C131.331 86.83 128.227 87.9146 124.05 88.2433L113.398 89.0817ZM123.261 82.8822C124.537 82.7818 125.483 82.3262 126.099 81.5155C126.726 80.6942 127.033 79.4975 127.02 77.9253L127.017 77.5591C127.004 75.9966 126.678 74.8595 126.039 74.1476C125.41 73.4252 124.457 73.1141 123.182 73.2145L122.328 73.2817C121.227 73.3684 120.342 74.334 120.351 75.4386L120.397 81.1063C120.406 82.2109 121.306 83.036 122.407 82.9494L123.261 82.8822Z" fill="#1F2024"/>
<path d="M145.458 85.5178C145.294 86.1453 144.741 86.6149 144.106 86.6649L139.131 87.0564C137.757 87.1646 136.783 85.878 137.228 84.5414L142.876 67.579C143.15 66.756 143.9 66.1607 144.746 66.0941L152.626 65.474C153.472 65.4074 154.23 65.8834 154.518 66.6616L160.448 82.7128C160.916 83.9778 159.965 85.4168 158.59 85.525L153.135 85.9543C152.5 86.0043 151.939 85.6223 151.766 85.0213V85.0213C151.593 84.4203 151.033 84.0384 150.398 84.0884L146.809 84.3708C146.174 84.4208 145.621 84.8903 145.458 85.5178V85.5178ZM147.26 77.9769C147.072 78.8374 147.719 79.5942 148.583 79.5261V79.5261C149.45 79.4579 150.084 78.5967 149.879 77.7658L149.389 75.7837C149.136 74.7469 148.904 73.5627 148.694 72.231C148.681 72.1489 148.61 72.0927 148.526 72.0993V72.0993C148.442 72.1059 148.371 72.1734 148.36 72.2576C148.188 73.5097 147.972 74.7291 147.71 75.9159L147.26 77.9769Z" fill="#1F2024"/>
<path d="M164.568 85.0545C163.467 85.1412 162.566 84.316 162.557 83.2115L162.422 66.7042C162.413 65.5997 163.298 64.634 164.399 64.5474L175.052 63.709C179.229 63.3803 182.346 63.9802 184.404 65.5087C186.463 67.0274 187.506 69.5104 187.534 72.9575L187.535 73.0161C187.563 76.4632 186.562 79.112 184.531 80.9623C182.5 82.8028 179.397 83.8874 175.22 84.2161L164.568 85.0545ZM174.431 78.855C175.706 78.7546 176.652 78.2991 177.269 77.4883C177.896 76.6671 178.203 75.4703 178.19 73.8981L178.187 73.5319C178.174 71.9695 177.848 70.8323 177.209 70.1204C176.579 69.398 175.627 69.087 174.352 69.1874L173.498 69.2546C172.397 69.3412 171.511 70.3069 171.521 71.4114L171.567 77.0792C171.576 78.1837 172.476 79.0089 173.577 78.9222L174.431 78.855Z" fill="#1F2024"/>
<defs>
<filter id="filter0_i" x="71" y="0" width="36" height="36" filterUnits="userSpaceOnUse" color-interpolation-filters="sRGB">
<feFlood flood-opacity="0" result="BackgroundImageFix"/>
<feBlend mode="normal" in="SourceGraphic" in2="BackgroundImageFix" result="shape"/>
<feColorMatrix in="SourceAlpha" type="matrix" values="0 0 0 0 0 0 0 0 0 0 0 0 0 0 0 0 0 0 127 0" result="hardAlpha"/>
<feOffset dx="-24" dy="8"/>
<feComposite in2="hardAlpha" operator="arithmetic" k2="-1" k3="1"/>
<feColorMatrix type="matrix" values="0 0 0 0 1 0 0 0 0 1 0 0 0 0 1 0 0 0 0.25 0"/>
<feBlend mode="normal" in2="shape" result="effect1_innerShadow"/>
</filter>
<filter id="filter1_i" x="7" y="15" width="198" height="93" filterUnits="userSpaceOnUse" color-interpolation-filters="sRGB">
<feFlood flood-opacity="0" result="BackgroundImageFix"/>
<feBlend mode="normal" in="SourceGraphic" in2="BackgroundImageFix" result="shape"/>
<feColorMatrix in="SourceAlpha" type="matrix" values="0 0 0 0 0 0 0 0 0 0 0 0 0 0 0 0 0 0 127 0" result="hardAlpha"/>
<feOffset dx="-24" dy="8"/>
<feComposite in2="hardAlpha" operator="arithmetic" k2="-1" k3="1"/>
<feColorMatrix type="matrix" values="0 0 0 0 1 0 0 0 0 1 0 0 0 0 1 0 0 0 0.25 0"/>
<feBlend mode="normal" in2="shape" result="effect1_innerShadow"/>
</filter>
<filter id="filter2_i" x="0" y="15" width="97.5" height="93" filterUnits="userSpaceOnUse" color-interpolation-filters="sRGB">
<feFlood flood-opacity="0" result="BackgroundImageFix"/>
<feBlend mode="normal" in="SourceGraphic" in2="BackgroundImageFix" result="shape"/>
<feColorMatrix in="SourceAlpha" type="matrix" values="0 0 0 0 0 0 0 0 0 0 0 0 0 0 0 0 0 0 127 0" result="hardAlpha"/>
<feOffset dx="16"/>
<feComposite in2="hardAlpha" operator="arithmetic" k2="-1" k3="1"/>
<feColorMatrix type="matrix" values="0 0 0 0 0 0 0 0 0 0 0 0 0 0 0 0 0 0 0.25 0"/>
<feBlend mode="normal" in2="shape" result="effect1_innerShadow"/>
</filter>
</defs>
</svg>
