<svg width="88" height="18" viewBox="0 0 88 18" fill="none" xmlns="http://www.w3.org/2000/svg">
<g clip-path="url(#clip0_304_8171)">
<g clip-path="url(#clip1_304_8171)">
<path d="M58.2131 15.1285C59.3663 15.1537 60.4822 14.7111 61.3161 13.8979L62.8557 15.5894C61.8384 16.6557 60.4323 17.4454 58.2406 17.4454C54.4857 17.4454 52.0622 14.904 52.0622 11.4647C52.0471 10.6939 52.1811 9.92757 52.4565 9.20964C52.7319 8.49172 53.1433 7.83625 53.6672 7.28076C54.1911 6.72527 54.8171 6.28065 55.5096 5.97235C56.202 5.66405 56.9472 5.49811 57.7025 5.48404H57.9107C61.6381 5.48404 63.7513 8.37817 63.5667 12.3947H54.7449C55.0591 14.0622 56.206 15.1244 58.2131 15.1244V15.1285ZM60.8997 10.4666C60.664 8.9113 59.7528 7.76487 57.9264 7.76487C57.1592 7.71913 56.4036 7.97281 55.8128 8.47449C55.2221 8.97617 54.8403 9.68832 54.7449 10.4666H60.8997Z" fill="white" fill-opacity="0.8"/>
<path d="M0.357147 15.0042L7.1404 7.9733H0.518186V5.76462H10.2826V8.01739L3.49936 15.0483H10.3729V17.2529H0.357147V15.0042Z" fill="white" fill-opacity="0.8"/>
<path d="M17.989 15.1285C19.1421 15.1537 20.258 14.7111 21.0919 13.8979L22.6316 15.5894C21.6143 16.6557 20.2082 17.4454 18.0165 17.4454C14.2615 17.4454 11.8381 14.904 11.8381 11.4647C11.823 10.6945 11.9567 9.92888 12.2316 9.21147C12.5065 8.49405 12.9172 7.83894 13.4403 7.28355C13.9633 6.72817 14.5885 6.28339 15.28 5.97462C15.9715 5.66586 16.7158 5.49915 17.4705 5.48404H17.6787C21.4061 5.48404 23.5193 8.37817 23.3347 12.3947H14.5208C14.835 14.0622 15.9819 15.1244 17.989 15.1244V15.1285ZM20.6756 10.4666C20.4399 8.9113 19.5287 7.76487 17.7022 7.76487C16.935 7.71913 16.1794 7.97281 15.5887 8.47449C14.9979 8.97617 14.6161 9.68832 14.5208 10.4666H20.6756Z" fill="white" fill-opacity="0.8"/>
<path d="M37.9734 11.4767C37.9734 7.80095 40.6639 5.50409 43.6254 5.50409C44.336 5.49471 45.04 5.64415 45.688 5.94191C46.336 6.23967 46.9123 6.67855 47.3764 7.22774V0.445374H49.7724V17.2209H47.3764V15.6175C46.921 16.1897 46.3453 16.65 45.6919 16.9644C45.0385 17.2787 44.3242 17.439 43.6018 17.4333C42.8565 17.4276 42.1196 17.272 41.4331 16.9756C40.7467 16.6792 40.1242 16.2477 39.6012 15.7057C39.0782 15.1637 38.6649 14.5219 38.3849 13.817C38.1049 13.112 37.9637 12.3576 37.9694 11.597C37.9694 11.5489 37.9694 11.5048 37.9694 11.4607L37.9734 11.4767ZM47.51 11.4366C47.4949 10.4637 47.1038 9.53631 46.4217 8.85645C45.7396 8.1766 44.8218 7.79941 43.8684 7.80708C42.915 7.81475 42.0032 8.20665 41.3317 8.89739C40.6601 9.58814 40.2833 10.5217 40.2833 11.4948C40.2833 12.4678 40.6601 13.4014 41.3317 14.0922C42.0032 14.7829 42.915 15.1748 43.8684 15.1825C44.8218 15.1901 45.7396 14.8129 46.4217 14.1331C47.1038 13.4532 47.4949 12.5258 47.51 11.5529V11.4366Z" fill="white" fill-opacity="0.8"/>
<path d="M65.1183 14.7837L67.2864 13.6333C67.574 14.1548 67.9955 14.5864 68.5056 14.8816C69.0157 15.1769 69.595 15.3246 70.1811 15.3089C71.5362 15.3089 72.2393 14.5994 72.2393 13.7937C72.2393 12.8757 70.9274 12.6673 69.4899 12.3706C67.5692 11.9698 65.5621 11.3124 65.5621 8.94739C65.5621 7.13154 67.255 5.456 69.9258 5.47604C72.0272 5.47604 73.5865 6.32584 74.4703 7.70476L72.4867 8.83114C72.2085 8.41082 71.8299 8.06986 71.3866 7.8405C70.9433 7.61114 70.45 7.50095 69.9533 7.52037C68.665 7.52037 68.0091 8.16573 68.0091 8.89929C68.0091 9.72504 69.0499 9.95753 70.676 10.3223C72.5299 10.7231 74.6313 11.3565 74.6313 13.7455C74.6313 15.3489 73.2762 17.4694 70.0633 17.4454C67.7066 17.4454 66.0609 16.4793 65.1143 14.7797" fill="white" fill-opacity="0.8"/>
<path d="M81.1433 12.1181L79.2422 14.2306V17.2209H76.8463V0.445374H79.2422V11.4286L84.3287 5.72856H87.247L82.8362 10.647L87.357 17.2209H84.6469L81.1433 12.1181Z" fill="white" fill-opacity="0.8"/>
<path d="M30.7305 5.50004C27.8829 5.50004 25.4987 7.38403 25.4987 10.5107V17.2209H27.9418V10.8073C27.9418 8.92329 29.0023 7.7969 30.813 7.7969C32.6237 7.7969 33.5271 8.92329 33.5271 10.8073V17.2209H35.9584V10.5066C35.9584 7.38002 33.5742 5.49603 30.7266 5.49603" fill="white" fill-opacity="0.8"/>
</g>
</g>
<defs>
<clipPath id="clip0_304_8171">
<rect width="87" height="17" fill="white" transform="translate(0.357147 0.445374)"/>
</clipPath>
<clipPath id="clip1_304_8171">
<rect width="87" height="17" fill="white" transform="translate(0.357147 0.445374)"/>
</clipPath>
</defs>
</svg>
