<svg width="457" height="628" viewBox="0 0 457 628" fill="none" xmlns="http://www.w3.org/2000/svg">
<g filter="url(#filter0_ii)">
<path d="M72 417C72 403.745 82.7452 393 96 393H288C301.255 393 312 403.745 312 417V529C312 533.418 308.418 537 304 537H80C75.5817 537 72 533.418 72 529V417Z" fill="#E2E2E2"/>
</g>
<path d="M72 417C72 403.745 82.7452 393 96 393H288C301.255 393 312 403.745 312 417V529C312 533.418 308.418 537 304 537H80C75.5817 537 72 533.418 72 529V417Z" stroke="#1F2024" stroke-width="8"/>
<g filter="url(#filter1_ii)">
<path d="M80 541C80 538.791 81.7909 537 84 537H300C302.209 537 304 538.791 304 541V557C304 559.209 302.209 561 300 561H84C81.7909 561 80 559.209 80 557V541Z" fill="#ACACAE"/>
</g>
<path d="M80 541C80 538.791 81.7909 537 84 537H300C302.209 537 304 538.791 304 541V557C304 559.209 302.209 561 300 561H84C81.7909 561 80 559.209 80 557V541Z" stroke="#1F2024" stroke-width="8"/>
<g filter="url(#filter2_ii)">
<path d="M60 430C60 425.582 63.5817 422 68 422H84C88.4183 422 92 425.582 92 430V430C92 434.418 88.4183 438 84 438H68C63.5817 438 60 434.418 60 430V430Z" fill="#E2E2E2"/>
</g>
<path d="M60 430C60 425.582 63.5817 422 68 422H84C88.4183 422 92 425.582 92 430V430C92 434.418 88.4183 438 84 438H68C63.5817 438 60 434.418 60 430V430Z" stroke="#1F2024" stroke-width="8"/>
<g filter="url(#filter3_ii)">
<path d="M60 454C60 449.582 63.5817 446 68 446H84C88.4183 446 92 449.582 92 454V454C92 458.418 88.4183 462 84 462H68C63.5817 462 60 458.418 60 454V454Z" fill="#E2E2E2"/>
</g>
<path d="M60 454C60 449.582 63.5817 446 68 446H84C88.4183 446 92 449.582 92 454V454C92 458.418 88.4183 462 84 462H68C63.5817 462 60 458.418 60 454V454Z" stroke="#1F2024" stroke-width="8"/>
<g filter="url(#filter4_ii)">
<path d="M60 478C60 473.582 63.5817 470 68 470H84C88.4183 470 92 473.582 92 478V478C92 482.418 88.4183 486 84 486H68C63.5817 486 60 482.418 60 478V478Z" fill="#E2E2E2"/>
</g>
<path d="M60 478C60 473.582 63.5817 470 68 470H84C88.4183 470 92 473.582 92 478V478C92 482.418 88.4183 486 84 486H68C63.5817 486 60 482.418 60 478V478Z" stroke="#1F2024" stroke-width="8"/>
<g filter="url(#filter5_i)">
<rect x="222" y="365" width="110" height="20" fill="white"/>
</g>
<rect x="222" y="365" width="110" height="20" stroke="#1F2024" stroke-width="8"/>
<g filter="url(#filter6_i)">
<path d="M356.5 433C356.5 419.745 367.245 409 380.5 409H428.5C441.755 409 452.5 419.745 452.5 433V463H356.5V433Z" fill="white"/>
</g>
<path d="M356.5 433C356.5 419.745 367.245 409 380.5 409H428.5C441.755 409 452.5 419.745 452.5 433V463H356.5V433Z" stroke="#1F2024" stroke-width="8"/>
<g filter="url(#filter7_i)">
<path d="M356.5 433C356.5 419.745 367.245 409 380.5 409H389.5C402.755 409 413.5 419.745 413.5 433V463H356.5V433Z" fill="#D8DCE0"/>
</g>
<path d="M356.5 433C356.5 419.745 367.245 409 380.5 409H389.5C402.755 409 413.5 419.745 413.5 433V463H356.5V433Z" stroke="#1F2024" stroke-width="8"/>
<g filter="url(#filter8_ii)">
<rect x="388.5" y="463" width="32" height="19" fill="#4A4A4E"/>
</g>
<rect x="388.5" y="463" width="32" height="19" stroke="#1F2024" stroke-width="8"/>
<g filter="url(#filter9_i)">
<rect x="376.5" y="482" width="56" height="127" fill="#D8DCE0"/>
</g>
<rect x="376.5" y="482" width="56" height="127" stroke="#1F2024" stroke-width="8"/>
<g filter="url(#filter10_ii)">
<path d="M116.5 409C116.5 395.745 127.245 385 140.5 385H332.5C345.755 385 356.5 395.745 356.5 409V561C356.5 574.255 345.755 585 332.5 585H140.5C127.245 585 116.5 574.255 116.5 561V409Z" fill="#56A8B3"/>
</g>
<path d="M116.5 409C116.5 395.745 127.245 385 140.5 385H332.5C345.755 385 356.5 395.745 356.5 409V561C356.5 574.255 345.755 585 332.5 585H140.5C127.245 585 116.5 574.255 116.5 561V409Z" stroke="#1F2024" stroke-width="8"/>
<g filter="url(#filter11_i)">
<path d="M212.5 409C212.5 395.745 223.245 385 236.5 385H412.5C425.755 385 436.5 395.745 436.5 409V561C436.5 574.255 425.755 585 412.5 585H236.5C223.245 585 212.5 574.255 212.5 561V409Z" fill="#83CDD7"/>
</g>
<path d="M212.5 409C212.5 395.745 223.245 385 236.5 385H412.5C425.755 385 436.5 395.745 436.5 409V561C436.5 574.255 425.755 585 412.5 585H236.5C223.245 585 212.5 574.255 212.5 561V409Z" stroke="#1F2024" stroke-width="8"/>
<mask id="mask0" mask-type="alpha" maskUnits="userSpaceOnUse" x="216" y="459" width="217" height="105">
<rect opacity="0.9" x="216.5" y="459" width="216" height="105" fill="#C4C4C4"/>
</mask>
<g mask="url(#mask0)">
<path fill-rule="evenodd" clip-rule="evenodd" d="M229.677 560.126C249.29 560.126 265.189 544.559 265.189 525.357C265.189 506.154 249.29 490.588 229.677 490.588C210.064 490.588 194.164 506.154 194.164 525.357C194.164 544.559 210.064 560.126 229.677 560.126Z" fill="#F05984"/>
<path fill-rule="evenodd" clip-rule="evenodd" d="M427.546 560.126C447.159 560.126 463.058 544.559 463.058 525.357C463.058 506.154 447.159 490.588 427.546 490.588C407.933 490.588 392.033 506.154 392.033 525.357C392.033 544.559 407.933 560.126 427.546 560.126Z" fill="#F05984"/>
</g>
<path d="M277.455 489.112C283.009 489.112 287.511 484.61 287.511 479.056C287.511 473.502 283.009 469 277.455 469C271.901 469 267.399 473.502 267.399 479.056C267.399 484.61 271.901 489.112 277.455 489.112Z" fill="black"/>
<path d="M379.248 489.112C384.802 489.112 389.304 484.61 389.304 479.056C389.304 473.502 384.802 469 379.248 469C373.694 469 369.192 473.502 369.192 479.056C369.192 484.61 373.694 489.112 379.248 489.112Z" fill="black"/>
<mask id="mask1" mask-type="alpha" maskUnits="userSpaceOnUse" x="290" y="487" width="78" height="40">
<path d="M328.328 526.381C308.176 526.381 287.706 515.467 290.622 498.462C293.537 481.457 313.673 489.865 328.328 489.957L328.409 489.957L328.409 489.951L328.721 489.956V489.956L329.032 489.951L329.032 489.957L329.113 489.957C343.621 489.866 363.502 481.625 366.727 497.96L366.819 498.462C369.735 515.467 349.265 526.381 329.113 526.381L328.408 526.379V526.379H329.033L328.328 526.381V526.381Z" fill="white"/>
</mask>
<g mask="url(#mask1)">
<rect x="288.291" y="481.231" width="83.3222" height="45.1499" fill="black"/>
<path fill-rule="evenodd" clip-rule="evenodd" d="M320.544 549.057C330.882 549.057 339.262 540.677 339.262 530.339C339.262 520.001 330.882 511.62 320.544 511.62C310.206 511.62 301.825 520.001 301.825 530.339C301.825 540.677 310.206 549.057 320.544 549.057Z" fill="#F05984"/>
<rect x="300.604" y="481.231" width="17.7768" height="20.1791" rx="8.88842" fill="white"/>
<rect x="320.783" y="481.231" width="17.7769" height="20.1791" rx="8.88843" fill="white"/>
<path fill-rule="evenodd" clip-rule="evenodd" d="M337.56 549.057C347.898 549.057 356.279 540.677 356.279 530.339C356.279 520.001 347.898 511.62 337.56 511.62C327.223 511.62 318.842 520.001 318.842 530.339C318.842 540.677 327.223 549.057 337.56 549.057Z" fill="#F05984"/>
</g>
<path d="M389.5 385C389.5 402.239 382.652 418.772 370.462 430.962C358.272 443.152 341.739 450 324.5 450C307.261 450 290.728 443.152 278.538 430.962C266.348 418.772 259.5 402.239 259.5 385L324.5 385H389.5Z" fill="#64ABB4" stroke="#1F2024" stroke-width="8"/>
<path d="M372.5 385C372.5 397.73 367.443 409.939 358.441 418.941C349.439 427.943 337.23 433 324.5 433C311.77 433 299.561 427.943 290.559 418.941C281.557 409.939 276.5 397.73 276.5 385L324.5 385H372.5Z" fill="white" stroke="#1F2024" stroke-width="8"/>
<path fill-rule="evenodd" clip-rule="evenodd" d="M208.5 498.103C199.991 504.455 194.5 514.484 194.5 525.769C194.5 537.054 199.991 547.083 208.5 553.435V498.103Z" fill="#B0385A"/>
<g filter="url(#filter12_i)">
<path d="M100.5 433C100.5 419.745 111.245 409 124.5 409H172.5C185.755 409 196.5 419.745 196.5 433V463H100.5V433Z" fill="white"/>
</g>
<path d="M100.5 433C100.5 419.745 111.245 409 124.5 409H172.5C185.755 409 196.5 419.745 196.5 433V463H100.5V433Z" stroke="#1F2024" stroke-width="8"/>
<g filter="url(#filter13_i)">
<path d="M100.5 433C100.5 419.745 111.245 409 124.5 409H133.5C146.755 409 157.5 419.745 157.5 433V463H100.5V433Z" fill="#D8DCE0"/>
</g>
<path d="M100.5 433C100.5 419.745 111.245 409 124.5 409H133.5C146.755 409 157.5 419.745 157.5 433V463H100.5V433Z" stroke="#1F2024" stroke-width="8"/>
<g filter="url(#filter14_ii)">
<rect x="132.5" y="463" width="32" height="19" fill="#4A4A4E"/>
</g>
<rect x="132.5" y="463" width="32" height="19" stroke="#1F2024" stroke-width="8"/>
<g filter="url(#filter15_i)">
<rect x="120.5" y="482" width="56" height="127" fill="#D8DCE0"/>
</g>
<rect x="120.5" y="482" width="56" height="127" stroke="#1F2024" stroke-width="8"/>
<g filter="url(#filter16_ii)">
<path d="M115 181C115 167.745 125.745 157 139 157H331C344.255 157 355 167.745 355 181V341C355 354.255 344.255 365 331 365H155C132.909 365 115 347.091 115 325V181Z" fill="#E2E2E2"/>
</g>
<path d="M115 181C115 167.745 125.745 157 139 157H331C344.255 157 355 167.745 355 181V341C355 354.255 344.255 365 331 365H155C132.909 365 115 347.091 115 325V181Z" stroke="#1F2024" stroke-width="8"/>
<g filter="url(#filter17_i)">
<path d="M115 323H355V325C355 347.091 337.091 365 315 365H155C132.909 365 115 347.091 115 325V323Z" fill="#D8DCE0"/>
</g>
<path d="M115 323H355V325C355 347.091 337.091 365 315 365H155C132.909 365 115 347.091 115 325V323Z" stroke="#1F2024" stroke-width="8"/>
<g filter="url(#filter18_i)">
<path d="M215 181C215 167.745 225.745 157 239 157H415C428.255 157 439 167.745 439 181V325C439 347.091 421.091 365 399 365H255C232.909 365 215 347.091 215 325V181Z" fill="white"/>
</g>
<path d="M215 181C215 167.745 225.745 157 239 157H415C428.255 157 439 167.745 439 181V325C439 347.091 421.091 365 399 365H255C232.909 365 215 347.091 215 325V181Z" stroke="#1F2024" stroke-width="8"/>
<g filter="url(#filter19_i)">
<path d="M215 323H439V325C439 347.091 421.091 365 399 365H255C232.909 365 215 347.091 215 325V323Z" fill="white"/>
</g>
<path d="M215 323H439V325C439 347.091 421.091 365 399 365H255C232.909 365 215 347.091 215 325V323Z" stroke="#1F2024" stroke-width="8"/>
<g filter="url(#filter20_ddi)">
<path fill-rule="evenodd" clip-rule="evenodd" d="M329.68 202C388.055 202 412.001 228.939 412 249.792C411.999 270.644 379.09 276 329.68 276C280.881 276 244 270.644 244 249.792C244 228.939 269.392 202 329.68 202Z" fill="#1F2024"/>
<path fill-rule="evenodd" clip-rule="evenodd" d="M288.517 257.534C277.683 255.278 269.868 246.964 271.062 238.966C272.256 230.967 282.007 226.313 292.841 228.569C303.676 230.826 311.491 239.139 310.297 247.137C309.103 255.136 299.352 259.791 288.517 257.534Z" fill="#9BCEF1"/>
<path fill-rule="evenodd" clip-rule="evenodd" d="M365.881 257.534C355.047 259.791 345.296 255.136 344.102 247.137C342.908 239.139 350.723 230.826 361.557 228.569C372.392 226.313 382.142 230.967 383.336 238.966C384.53 246.964 376.715 255.278 365.881 257.534Z" fill="#9BCEF1"/>
</g>
<g filter="url(#filter21_d)">
<line x1="157" y1="279" x2="157" y2="319" stroke="#1F2024" stroke-width="8"/>
<g filter="url(#filter22_ii)">
<path d="M156 305L192 353L156 401L120 353L156 305Z" fill="#EB0D18"/>
</g>
<path d="M156 305L192 353L156 401L120 353L156 305Z" stroke="#1F2024" stroke-width="8"/>
<g filter="url(#filter23_i)">
<path d="M142.011 223C144.155 219.287 148.116 217 152.403 217L175.497 217C179.785 217 183.746 219.287 185.89 223L197.437 243C199.58 246.713 199.58 251.287 197.437 255L185.89 275C183.746 278.713 179.785 281 175.497 281H152.403C148.116 281 144.155 278.713 142.011 275L130.464 255C128.321 251.287 128.321 246.713 130.464 243L142.011 223Z" fill="white"/>
</g>
<path d="M142.011 223C144.155 219.287 148.116 217 152.403 217L175.497 217C179.785 217 183.746 219.287 185.89 223L197.437 243C199.58 246.713 199.58 251.287 197.437 255L185.89 275C183.746 278.713 179.785 281 175.497 281H152.403C148.116 281 144.155 278.713 142.011 275L130.464 255C128.321 251.287 128.321 246.713 130.464 243L142.011 223Z" stroke="#1F2024" stroke-width="8"/>
<g filter="url(#filter24_i)">
<path d="M126.011 223C128.155 219.287 132.116 217 136.403 217L159.497 217C163.785 217 167.746 219.287 169.89 223L181.437 243C183.58 246.713 183.58 251.287 181.437 255L169.89 275C167.746 278.713 163.785 281 159.497 281H136.403C132.116 281 128.155 278.713 126.011 275L114.464 255C112.321 251.287 112.321 246.713 114.464 243L126.011 223Z" fill="#D8DCE0"/>
</g>
<path d="M126.011 223C128.155 219.287 132.116 217 136.403 217L159.497 217C163.785 217 167.746 219.287 169.89 223L181.437 243C183.58 246.713 183.58 251.287 181.437 255L169.89 275C167.746 278.713 163.785 281 159.497 281H136.403C132.116 281 128.155 278.713 126.011 275L114.464 255C112.321 251.287 112.321 246.713 114.464 243L126.011 223Z" stroke="#1F2024" stroke-width="8" stroke-linejoin="round"/>
</g>
<path d="M339 293C339 294.576 338.69 296.136 338.087 297.592C337.483 299.048 336.6 300.371 335.485 301.485C334.371 302.6 333.048 303.483 331.592 304.087C330.136 304.69 328.576 305 327 305C325.424 305 323.864 304.69 322.408 304.087C320.952 303.483 319.629 302.6 318.515 301.485C317.4 300.371 316.517 299.048 315.913 297.592C315.31 296.136 315 294.576 315 293" stroke="#1F2024" stroke-width="12" stroke-linecap="round"/>
<g filter="url(#filter25_ii)">
<rect x="189" y="16" width="1" height="59" rx="0.5" fill="#ACACAE"/>
</g>
<rect x="189" y="16" width="1" height="59" rx="0.5" stroke="#1F2024" stroke-width="8"/>
<path d="M189 99C193.418 99 197 96.3137 197 93C197 89.6863 193.418 87 189 87" stroke="#1F2024" stroke-width="8"/>
<path d="M189 87C184.582 87 181 84.3137 181 81C181 77.6863 184.582 75 189 75" stroke="#1F2024" stroke-width="8"/>
<g filter="url(#filter26_i)">
<path d="M174 20C174 11.1634 181.163 4 190 4V4C198.837 4 206 11.1634 206 20V20C206 28.8366 198.837 36 190 36V36C181.163 36 174 28.8366 174 20V20Z" fill="#ACACAE"/>
</g>
<path d="M174 20C174 11.1634 181.163 4 190 4V4C198.837 4 206 11.1634 206 20V20C206 28.8366 198.837 36 190 36V36C181.163 36 174 28.8366 174 20V20Z" stroke="#1F2024" stroke-width="8"/>
<circle cx="194" cy="16" r="6" fill="white"/>
<g filter="url(#filter27_i)">
<path d="M321.451 16C269.19 16 261.827 54.8948 223.115 83.1864C211.515 91.6645 198.65 97.4555 183.493 97.9487C160.382 98.7007 122.966 89.5217 114.981 87.4846C113.944 87.22 112.919 86.9978 111.849 86.9568C97.3884 86.4019 85 103.098 85 118.686C85 151.498 140.403 157 162.299 157H407.847C458.211 157 464.675 88.9103 421.258 97.1033C404.761 100.216 387.517 89.535 383.64 72.4064C376.137 39.2649 356.788 16 321.451 16Z" fill="#F9E174"/>
</g>
<path d="M321.451 16C269.19 16 261.827 54.8948 223.115 83.1864C211.515 91.6645 198.65 97.4555 183.493 97.9487C160.382 98.7007 122.966 89.5217 114.981 87.4846C113.944 87.22 112.919 86.9978 111.849 86.9568C97.3884 86.4019 85 103.098 85 118.686C85 151.498 140.403 157 162.299 157H407.847C458.211 157 464.675 88.9103 421.258 97.1033C404.761 100.216 387.517 89.535 383.64 72.4064C376.137 39.2649 356.788 16 321.451 16Z" stroke="#1F2024" stroke-width="8"/>
<g filter="url(#filter28_i)">
<path d="M447.934 129.756C448.962 119.498 436.273 115.773 422.587 118.352C407.184 121.255 377.31 107.648 373.689 91.6757C368.139 67.1903 358.59 37.4381 329.941 34.3988C310.672 32.3546 291.329 38.1023 276.516 53.1827C271.701 58.0843 266.804 63.5284 261.767 69.1275C240.902 92.3222 217.644 118.176 187.962 119.141C166.592 119.835 132.121 111.447 124.217 109.44C109.611 105.731 96 120.983 96 136.046C96 152.238 151.267 157.185 161.932 157.185H407.48C429.609 157.185 443.263 143.923 447.934 129.756Z" fill="#4A4A4E"/>
</g>
<path d="M447.934 129.756C448.962 119.498 436.273 115.773 422.587 118.352C407.184 121.255 377.31 107.648 373.689 91.6757C368.139 67.1903 358.59 37.4381 329.941 34.3988C310.672 32.3546 291.329 38.1023 276.516 53.1827C271.701 58.0843 266.804 63.5284 261.767 69.1275C240.902 92.3222 217.644 118.176 187.962 119.141C166.592 119.835 132.121 111.447 124.217 109.44C109.611 105.731 96 120.983 96 136.046C96 152.238 151.267 157.185 161.932 157.185H407.48C429.609 157.185 443.263 143.923 447.934 129.756Z" stroke="#1F2024" stroke-width="8"/>
<mask id="path-52-outside-1" maskUnits="userSpaceOnUse" x="284.937" y="58.2441" width="88" height="88" fill="black">
<rect fill="white" x="284.937" y="58.2441" width="88" height="88"/>
<path fill-rule="evenodd" clip-rule="evenodd" d="M296.94 73.9554C296.549 73.5648 295.916 73.5648 295.525 73.9554L293.23 76.2509C292.839 76.6414 292.839 77.2746 293.23 77.6651L300.162 84.597C300.552 84.9875 301.185 84.9875 301.576 84.597L303.407 82.7656C303.798 82.3751 304.431 82.3751 304.822 82.7656L308.971 86.9153C309.362 87.3059 309.995 87.3059 310.385 86.9153L313.758 83.5433C314.148 83.1527 314.148 82.5196 313.758 82.1291L309.608 77.9793C309.217 77.5888 309.217 76.9557 309.608 76.5651L311.29 74.8831C311.68 74.4925 311.68 73.8594 311.29 73.4688L304.358 66.537C303.968 66.1464 303.334 66.1464 302.944 66.537L300.649 68.8318C300.258 69.2223 300.258 69.8555 300.649 70.246L303.872 73.4689C304.262 73.8594 304.262 74.4925 303.872 74.8831L301.577 77.1782C301.186 77.5688 300.553 77.5688 300.163 77.1782L296.94 73.9554ZM360.029 73.9554C360.419 73.5649 361.053 73.5649 361.443 73.9554L363.739 76.2509C364.129 76.6414 364.129 77.2746 363.739 77.6651L356.807 84.597C356.416 84.9875 355.783 84.9875 355.392 84.597L353.561 82.7657C353.171 82.3752 352.537 82.3752 352.147 82.7657L347.997 86.9153C347.607 87.3059 346.974 87.3059 346.583 86.9153L343.211 83.5433C342.82 83.1527 342.82 82.5196 343.211 82.1291L347.361 77.9794C347.751 77.5889 347.751 76.9557 347.361 76.5652L345.679 74.8831C345.288 74.4925 345.288 73.8594 345.679 73.4688L352.61 66.537C353.001 66.1464 353.634 66.1464 354.025 66.537L356.32 68.8318C356.71 69.2223 356.71 69.8555 356.32 70.246L353.097 73.4689C352.706 73.8594 352.706 74.4925 353.097 74.8831L355.392 77.1782C355.782 77.5688 356.416 77.5688 356.806 77.1782L360.029 73.9554ZM293.23 125.918C292.839 126.308 292.839 126.941 293.23 127.332L295.525 129.627C295.916 130.018 296.549 130.018 296.94 129.627L300.163 126.405C300.553 126.014 301.186 126.014 301.577 126.405L303.872 128.7C304.262 129.09 304.262 129.723 303.872 130.114L300.649 133.337C300.258 133.727 300.258 134.36 300.649 134.751L302.944 137.046C303.334 137.436 303.967 137.436 304.358 137.046L311.29 130.114C311.68 129.723 311.68 129.09 311.29 128.7L309.608 127.018C309.217 126.627 309.217 125.994 309.608 125.603L313.758 121.454C314.148 121.063 314.148 120.43 313.758 120.039L310.385 116.667C309.995 116.277 309.362 116.277 308.971 116.667L304.822 120.817C304.431 121.208 303.798 121.208 303.407 120.817L301.576 118.986C301.185 118.595 300.552 118.595 300.162 118.986L293.23 125.918ZM360.029 129.627C360.419 130.018 361.053 130.018 361.443 129.627L363.739 127.332C364.129 126.941 364.129 126.308 363.739 125.918L356.807 118.986C356.416 118.595 355.783 118.595 355.392 118.986L353.561 120.817C353.171 121.208 352.537 121.208 352.147 120.817L347.997 116.667C347.607 116.277 346.974 116.277 346.583 116.667L343.211 120.039C342.82 120.43 342.82 121.063 343.211 121.454L347.361 125.603C347.751 125.994 347.751 126.627 347.361 127.018L345.679 128.7C345.288 129.09 345.288 129.723 345.679 130.114L352.61 137.046C353.001 137.436 353.634 137.436 354.025 137.046L356.319 134.751C356.71 134.36 356.71 133.727 356.319 133.337L353.097 130.114C352.706 129.723 352.706 129.09 353.097 128.7L355.392 126.405C355.782 126.014 356.416 126.014 356.806 126.405L360.029 129.627ZM342.852 87C342.852 86.4477 342.404 86 341.852 86H315C314.448 86 314 86.4477 314 87V102.825C314 103.378 314.448 103.825 315 103.825H315.785C316.337 103.825 316.785 104.273 316.785 104.825V107.499C316.785 108.052 317.233 108.499 317.785 108.499H319.838C320.391 108.499 320.838 108.052 320.838 107.499V104.825C320.838 104.273 321.286 103.825 321.838 103.825H322.343C322.896 103.825 323.343 104.273 323.343 104.825V107.499C323.343 108.052 323.791 108.499 324.343 108.499H326.397C326.949 108.499 327.397 108.052 327.397 107.499V104.825C327.397 104.273 327.844 103.825 328.397 103.825H328.9C329.452 103.825 329.9 104.273 329.9 104.825V107.499C329.9 108.052 330.348 108.499 330.9 108.499H332.953C333.506 108.499 333.953 108.052 333.953 107.499V104.825C333.953 104.273 334.401 103.825 334.953 103.825H335.458C336.01 103.825 336.458 104.273 336.458 104.825V107.499C336.458 108.052 336.906 108.499 337.458 108.499H339.511C340.064 108.499 340.511 108.052 340.511 107.499V104.825C340.511 104.273 340.959 103.825 341.511 103.825H341.852C342.404 103.825 342.852 103.378 342.852 102.825V87ZM340.102 113.61C340.102 113.058 339.655 112.61 339.102 112.61H317.496C316.944 112.61 316.496 113.058 316.496 113.61V116.856C316.496 117.408 316.944 117.856 317.496 117.856H339.102C339.655 117.856 340.102 117.408 340.102 116.856V113.61ZM338.143 92C338.143 91.4477 337.696 91 337.143 91H320C319.448 91 319 91.4477 319 92V97.7155C319 98.2677 319.448 98.7155 320 98.7155H337.143C337.696 98.7155 338.143 98.2677 338.143 97.7154V92Z"/>
</mask>
<path fill-rule="evenodd" clip-rule="evenodd" d="M296.94 73.9554C296.549 73.5648 295.916 73.5648 295.525 73.9554L293.23 76.2509C292.839 76.6414 292.839 77.2746 293.23 77.6651L300.162 84.597C300.552 84.9875 301.185 84.9875 301.576 84.597L303.407 82.7656C303.798 82.3751 304.431 82.3751 304.822 82.7656L308.971 86.9153C309.362 87.3059 309.995 87.3059 310.385 86.9153L313.758 83.5433C314.148 83.1527 314.148 82.5196 313.758 82.1291L309.608 77.9793C309.217 77.5888 309.217 76.9557 309.608 76.5651L311.29 74.8831C311.68 74.4925 311.68 73.8594 311.29 73.4688L304.358 66.537C303.968 66.1464 303.334 66.1464 302.944 66.537L300.649 68.8318C300.258 69.2223 300.258 69.8555 300.649 70.246L303.872 73.4689C304.262 73.8594 304.262 74.4925 303.872 74.8831L301.577 77.1782C301.186 77.5688 300.553 77.5688 300.163 77.1782L296.94 73.9554ZM360.029 73.9554C360.419 73.5649 361.053 73.5649 361.443 73.9554L363.739 76.2509C364.129 76.6414 364.129 77.2746 363.739 77.6651L356.807 84.597C356.416 84.9875 355.783 84.9875 355.392 84.597L353.561 82.7657C353.171 82.3752 352.537 82.3752 352.147 82.7657L347.997 86.9153C347.607 87.3059 346.974 87.3059 346.583 86.9153L343.211 83.5433C342.82 83.1527 342.82 82.5196 343.211 82.1291L347.361 77.9794C347.751 77.5889 347.751 76.9557 347.361 76.5652L345.679 74.8831C345.288 74.4925 345.288 73.8594 345.679 73.4688L352.61 66.537C353.001 66.1464 353.634 66.1464 354.025 66.537L356.32 68.8318C356.71 69.2223 356.71 69.8555 356.32 70.246L353.097 73.4689C352.706 73.8594 352.706 74.4925 353.097 74.8831L355.392 77.1782C355.782 77.5688 356.416 77.5688 356.806 77.1782L360.029 73.9554ZM293.23 125.918C292.839 126.308 292.839 126.941 293.23 127.332L295.525 129.627C295.916 130.018 296.549 130.018 296.94 129.627L300.163 126.405C300.553 126.014 301.186 126.014 301.577 126.405L303.872 128.7C304.262 129.09 304.262 129.723 303.872 130.114L300.649 133.337C300.258 133.727 300.258 134.36 300.649 134.751L302.944 137.046C303.334 137.436 303.967 137.436 304.358 137.046L311.29 130.114C311.68 129.723 311.68 129.09 311.29 128.7L309.608 127.018C309.217 126.627 309.217 125.994 309.608 125.603L313.758 121.454C314.148 121.063 314.148 120.43 313.758 120.039L310.385 116.667C309.995 116.277 309.362 116.277 308.971 116.667L304.822 120.817C304.431 121.208 303.798 121.208 303.407 120.817L301.576 118.986C301.185 118.595 300.552 118.595 300.162 118.986L293.23 125.918ZM360.029 129.627C360.419 130.018 361.053 130.018 361.443 129.627L363.739 127.332C364.129 126.941 364.129 126.308 363.739 125.918L356.807 118.986C356.416 118.595 355.783 118.595 355.392 118.986L353.561 120.817C353.171 121.208 352.537 121.208 352.147 120.817L347.997 116.667C347.607 116.277 346.974 116.277 346.583 116.667L343.211 120.039C342.82 120.43 342.82 121.063 343.211 121.454L347.361 125.603C347.751 125.994 347.751 126.627 347.361 127.018L345.679 128.7C345.288 129.09 345.288 129.723 345.679 130.114L352.61 137.046C353.001 137.436 353.634 137.436 354.025 137.046L356.319 134.751C356.71 134.36 356.71 133.727 356.319 133.337L353.097 130.114C352.706 129.723 352.706 129.09 353.097 128.7L355.392 126.405C355.782 126.014 356.416 126.014 356.806 126.405L360.029 129.627ZM342.852 87C342.852 86.4477 342.404 86 341.852 86H315C314.448 86 314 86.4477 314 87V102.825C314 103.378 314.448 103.825 315 103.825H315.785C316.337 103.825 316.785 104.273 316.785 104.825V107.499C316.785 108.052 317.233 108.499 317.785 108.499H319.838C320.391 108.499 320.838 108.052 320.838 107.499V104.825C320.838 104.273 321.286 103.825 321.838 103.825H322.343C322.896 103.825 323.343 104.273 323.343 104.825V107.499C323.343 108.052 323.791 108.499 324.343 108.499H326.397C326.949 108.499 327.397 108.052 327.397 107.499V104.825C327.397 104.273 327.844 103.825 328.397 103.825H328.9C329.452 103.825 329.9 104.273 329.9 104.825V107.499C329.9 108.052 330.348 108.499 330.9 108.499H332.953C333.506 108.499 333.953 108.052 333.953 107.499V104.825C333.953 104.273 334.401 103.825 334.953 103.825H335.458C336.01 103.825 336.458 104.273 336.458 104.825V107.499C336.458 108.052 336.906 108.499 337.458 108.499H339.511C340.064 108.499 340.511 108.052 340.511 107.499V104.825C340.511 104.273 340.959 103.825 341.511 103.825H341.852C342.404 103.825 342.852 103.378 342.852 102.825V87ZM340.102 113.61C340.102 113.058 339.655 112.61 339.102 112.61H317.496C316.944 112.61 316.496 113.058 316.496 113.61V116.856C316.496 117.408 316.944 117.856 317.496 117.856H339.102C339.655 117.856 340.102 117.408 340.102 116.856V113.61ZM338.143 92C338.143 91.4477 337.696 91 337.143 91H320C319.448 91 319 91.4477 319 92V97.7155C319 98.2677 319.448 98.7155 320 98.7155H337.143C337.696 98.7155 338.143 98.2677 338.143 97.7154V92Z" fill="white"/>
<path d="M356.806 126.405L351.149 132.061L356.806 126.405ZM353.097 130.114L358.754 124.457L353.097 130.114ZM356.319 134.751L361.976 140.408L356.319 134.751ZM356.319 133.337L361.976 127.68L356.319 133.337ZM354.025 137.046L359.681 142.703L354.025 137.046ZM345.679 130.114L351.335 124.457L345.679 130.114ZM356.807 118.986L351.15 124.643L356.807 118.986ZM361.443 129.627L367.1 135.284L361.443 129.627ZM360.029 129.627L365.686 123.971L360.029 129.627ZM363.739 127.332L358.082 121.675L363.739 127.332ZM363.739 125.918L358.082 131.575L363.739 125.918ZM300.162 118.986L305.819 124.643L300.162 118.986ZM304.822 120.817L299.165 115.16L304.822 120.817ZM303.407 120.817L297.75 126.474L303.407 120.817ZM310.385 116.667L304.729 122.324L310.385 116.667ZM313.758 120.039L319.414 114.383L313.758 120.039ZM309.608 127.018L315.265 121.361L309.608 127.018ZM309.608 125.603L303.951 119.947L309.608 125.603ZM311.29 130.114L305.633 124.457L311.29 130.114ZM304.358 137.046L310.015 142.703L304.358 137.046ZM300.649 133.337L306.306 138.994L300.649 133.337ZM300.649 134.751L306.306 129.094L300.649 134.751ZM303.872 128.7L309.529 123.043L303.872 128.7ZM303.872 130.114L298.215 124.457L303.872 130.114ZM300.163 126.405L305.819 132.061L300.163 126.405ZM301.577 126.405L307.234 120.748L301.577 126.405ZM293.23 127.332L287.573 132.989L293.23 127.332ZM293.23 125.918L298.887 131.575L293.23 125.918ZM295.525 129.627L289.869 135.284L295.525 129.627ZM296.94 129.627L291.283 123.971L296.94 129.627ZM355.392 77.1782L349.735 82.8351L355.392 77.1782ZM356.806 77.1782L362.463 82.8351L356.806 77.1782ZM353.097 73.4689L347.44 67.812L353.097 73.4689ZM353.097 74.8831L358.754 69.2262L353.097 74.8831ZM356.32 68.8318L361.976 63.175L356.32 68.8318ZM356.32 70.246L361.976 75.9029L356.32 70.246ZM352.61 66.537L358.267 72.1938L352.61 66.537ZM354.025 66.537L359.682 60.8801L354.025 66.537ZM345.679 74.8831L340.022 80.5399L345.679 74.8831ZM345.679 73.4688L340.022 67.812L345.679 73.4688ZM347.361 77.9794L341.704 72.3225L347.361 77.9794ZM347.361 76.5652L341.704 82.222L347.361 76.5652ZM343.211 83.5433L348.868 77.8864L343.211 83.5433ZM343.211 82.1291L337.554 76.4722L343.211 82.1291ZM347.997 86.9153L342.34 81.2585L347.997 86.9153ZM346.583 86.9153L352.24 81.2585L346.583 86.9153ZM356.807 84.597L362.464 90.2538L356.807 84.597ZM355.392 84.597L361.049 78.9401L355.392 84.597ZM361.443 73.9554L355.786 79.6123L361.443 73.9554ZM360.029 73.9554L354.372 68.2986L360.029 73.9554ZM363.739 76.2509L358.082 81.9077L363.739 76.2509ZM363.739 77.6651L358.082 72.0082L363.739 77.6651ZM301.577 77.1782L295.92 71.5214L301.577 77.1782ZM300.163 77.1782L294.506 82.8351L300.163 77.1782ZM303.872 73.4689L309.529 67.812L303.872 73.4689ZM303.872 74.8831L298.215 69.2262L303.872 74.8831ZM311.29 74.8831L305.633 69.2262L311.29 74.8831ZM311.29 73.4688L316.947 67.812L311.29 73.4688ZM309.608 77.9793L303.951 83.6362L309.608 77.9793ZM309.608 76.5651L303.951 70.9083L309.608 76.5651ZM313.758 82.1291L308.101 87.7859L313.758 82.1291ZM308.971 86.9153L314.628 81.2585L308.971 86.9153ZM310.385 86.9153L304.729 81.2585L310.385 86.9153ZM303.407 82.7656L297.75 77.1088L303.407 82.7656ZM304.822 82.7656L299.165 88.4225L304.822 82.7656ZM300.162 84.597L294.505 90.2538L300.162 84.597ZM301.576 84.597L307.233 90.2538L301.576 84.597ZM295.525 73.9554L301.182 79.6122L295.525 73.9554ZM293.23 76.2509L298.887 81.9077L293.23 76.2509ZM293.23 77.6651L298.887 72.0082L293.23 77.6651ZM298.887 81.9077L301.182 79.6122L289.869 68.2985L287.573 70.594L298.887 81.9077ZM305.819 78.9401L298.887 72.0082L287.573 83.3219L294.505 90.2538L305.819 78.9401ZM297.75 77.1088L295.919 78.9401L307.233 90.2538L309.064 88.4225L297.75 77.1088ZM314.628 81.2585L310.478 77.1088L299.165 88.4225L303.314 92.5722L314.628 81.2585ZM308.101 77.8864L304.729 81.2585L316.042 92.5722L319.414 89.2001L308.101 77.8864ZM303.951 83.6362L308.101 87.7859L319.414 76.4722L315.265 72.3225L303.951 83.6362ZM305.633 69.2262L303.951 70.9083L315.265 82.222L316.947 80.5399L305.633 69.2262ZM298.701 72.1938L305.633 79.1257L316.947 67.812L310.015 60.8801L298.701 72.1938ZM306.306 74.4886L308.601 72.1938L297.287 60.8801L294.992 63.1749L306.306 74.4886ZM309.529 67.812L306.306 64.5891L294.992 75.9028L298.215 79.1257L309.529 67.812ZM307.234 82.8351L309.529 80.5399L298.215 69.2262L295.92 71.5214L307.234 82.8351ZM291.283 79.6122L294.506 82.8351L305.819 71.5214L302.596 68.2985L291.283 79.6122ZM369.395 70.594L367.1 68.2986L355.786 79.6123L358.082 81.9077L369.395 70.594ZM362.464 90.2538L369.395 83.3219L358.082 72.0082L351.15 78.9401L362.464 90.2538ZM347.904 88.4225L349.736 90.2538L361.049 78.9401L359.218 77.1088L347.904 88.4225ZM353.654 92.5722L357.804 88.4225L346.49 77.1088L342.34 81.2585L353.654 92.5722ZM337.554 89.2001L340.926 92.5722L352.24 81.2585L348.868 77.8864L337.554 89.2001ZM341.704 72.3225L337.554 76.4722L348.868 87.7859L353.018 83.6362L341.704 72.3225ZM340.022 80.5399L341.704 82.222L353.018 70.9083L351.335 69.2262L340.022 80.5399ZM346.954 60.8801L340.022 67.812L351.335 79.1257L358.267 72.1938L346.954 60.8801ZM361.976 63.175L359.682 60.8801L348.368 72.1938L350.663 74.4887L361.976 63.175ZM358.754 79.1257L361.976 75.9029L350.663 64.5892L347.44 67.812L358.754 79.1257ZM361.049 71.5214L358.754 69.2262L347.44 80.5399L349.735 82.8351L361.049 71.5214ZM354.372 68.2986L351.149 71.5214L362.463 82.8351L365.686 79.6123L354.372 68.2986ZM301.182 123.971L298.887 121.675L287.573 132.989L289.869 135.284L301.182 123.971ZM294.506 120.748L291.283 123.971L302.596 135.284L305.819 132.061L294.506 120.748ZM309.529 123.043L307.234 120.748L295.92 132.061L298.215 134.357L309.529 123.043ZM306.306 138.994L309.529 135.771L298.215 124.457L294.992 127.68L306.306 138.994ZM308.601 131.389L306.306 129.094L294.992 140.408L297.287 142.703L308.601 131.389ZM305.633 124.457L298.701 131.389L310.015 142.703L316.947 135.771L305.633 124.457ZM303.951 132.674L305.633 134.357L316.947 123.043L315.265 121.361L303.951 132.674ZM308.101 115.797L303.951 119.947L315.265 131.26L319.414 127.111L308.101 115.797ZM304.729 122.324L308.101 125.696L319.414 114.383L316.042 111.011L304.729 122.324ZM310.478 126.474L314.628 122.324L303.314 111.011L299.165 115.16L310.478 126.474ZM295.919 124.643L297.75 126.474L309.064 115.16L307.233 113.329L295.919 124.643ZM298.887 131.575L305.819 124.643L294.505 113.329L287.573 120.261L298.887 131.575ZM358.082 121.675L355.786 123.971L367.1 135.284L369.395 132.989L358.082 121.675ZM351.15 124.643L358.082 131.575L369.395 120.261L362.464 113.329L351.15 124.643ZM359.218 126.474L361.049 124.643L349.736 113.329L347.904 115.16L359.218 126.474ZM342.34 122.324L346.49 126.474L357.804 115.16L353.654 111.011L342.34 122.324ZM348.868 125.696L352.24 122.324L340.926 111.011L337.554 114.383L348.868 125.696ZM353.018 119.947L348.868 115.797L337.554 127.111L341.704 131.26L353.018 119.947ZM351.335 134.357L353.018 132.674L341.704 121.361L340.022 123.043L351.335 134.357ZM358.267 131.389L351.335 124.457L340.022 135.771L346.954 142.703L358.267 131.389ZM350.663 129.094L348.368 131.389L359.681 142.703L361.976 140.408L350.663 129.094ZM347.44 135.771L350.663 138.994L361.976 127.68L358.754 124.457L347.44 135.771ZM349.735 120.748L347.44 123.043L358.754 134.357L361.049 132.061L349.735 120.748ZM365.686 123.971L362.463 120.748L351.149 132.061L354.372 135.284L365.686 123.971ZM315 94H341.852V78H315V94ZM322 102.825V87H306V102.825H322ZM315.785 95.8253H315V111.825H315.785V95.8253ZM324.785 107.499V104.825H308.785V107.499H324.785ZM319.838 100.499H317.785V116.499H319.838V100.499ZM312.838 104.825V107.499H328.838V104.825H312.838ZM322.343 95.8253H321.838V111.825H322.343V95.8253ZM331.343 107.499V104.825H315.343V107.499H331.343ZM326.397 100.499H324.343V116.499H326.397V100.499ZM319.397 104.825V107.499H335.397V104.825H319.397ZM328.9 95.8253H328.397V111.825H328.9V95.8253ZM337.9 107.499V104.825H321.9V107.499H337.9ZM332.953 100.499H330.9V116.499H332.953V100.499ZM325.953 104.825V107.499H341.953V104.825H325.953ZM335.458 95.8253H334.953V111.825H335.458V95.8253ZM344.458 107.499V104.825H328.458V107.499H344.458ZM339.511 100.499H337.458V116.499H339.511V100.499ZM332.511 104.825V107.499H348.511V104.825H332.511ZM341.852 95.8253H341.511V111.825H341.852V95.8253ZM334.852 87V102.825H350.852V87H334.852ZM317.496 120.61H339.102V104.61H317.496V120.61ZM324.496 116.856V113.61H308.496V116.856H324.496ZM339.102 109.856H317.496V125.856H339.102V109.856ZM332.102 113.61V116.856H348.102V113.61H332.102ZM320 99H337.143V83H320V99ZM327 97.7155V92H311V97.7155H327ZM337.143 90.7155H320V106.715H337.143V90.7155ZM330.143 92V97.7154H346.143V92H330.143ZM337.143 106.715C342.114 106.715 346.143 102.686 346.143 97.7154H330.143C330.143 93.8495 333.277 90.7155 337.143 90.7155V106.715ZM311 97.7155C311 102.686 315.029 106.715 320 106.715V90.7155C323.866 90.7155 327 93.8495 327 97.7155H311ZM337.143 99C333.277 99 330.143 95.866 330.143 92H346.143C346.143 87.0295 342.114 83 337.143 83V99ZM320 83C315.029 83 311 87.0295 311 92H327C327 95.866 323.866 99 320 99V83ZM339.102 125.856C344.073 125.856 348.102 121.826 348.102 116.856H332.102C332.102 112.99 335.236 109.856 339.102 109.856V125.856ZM308.496 116.856C308.496 121.826 312.525 125.856 317.496 125.856V109.856C321.362 109.856 324.496 112.99 324.496 116.856H308.496ZM339.102 120.61C335.236 120.61 332.102 117.476 332.102 113.61H348.102C348.102 108.639 344.073 104.61 339.102 104.61V120.61ZM317.496 104.61C312.525 104.61 308.496 108.639 308.496 113.61H324.496C324.496 117.476 321.362 120.61 317.496 120.61V104.61ZM341.852 111.825C346.823 111.825 350.852 107.796 350.852 102.825H334.852C334.852 98.9593 337.986 95.8253 341.852 95.8253V111.825ZM348.511 104.825C348.511 108.691 345.377 111.825 341.511 111.825V95.8253C336.541 95.8253 332.511 99.8547 332.511 104.825H348.511ZM339.511 116.499C344.482 116.499 348.511 112.47 348.511 107.499H332.511C332.511 103.633 335.645 100.499 339.511 100.499V116.499ZM328.458 107.499C328.458 112.47 332.487 116.499 337.458 116.499V100.499C341.324 100.499 344.458 103.633 344.458 107.499H328.458ZM335.458 111.825C331.592 111.825 328.458 108.691 328.458 104.825H344.458C344.458 99.8547 340.428 95.8253 335.458 95.8253V111.825ZM341.953 104.825C341.953 108.691 338.819 111.825 334.953 111.825V95.8253C329.983 95.8253 325.953 99.8547 325.953 104.825H341.953ZM332.953 116.499C337.924 116.499 341.953 112.47 341.953 107.499H325.953C325.953 103.633 329.087 100.499 332.953 100.499V116.499ZM321.9 107.499C321.9 112.47 325.929 116.499 330.9 116.499V100.499C334.766 100.499 337.9 103.633 337.9 107.499H321.9ZM328.9 111.825C325.034 111.825 321.9 108.691 321.9 104.825H337.9C337.9 99.8547 333.871 95.8253 328.9 95.8253V111.825ZM335.397 104.825C335.397 108.691 332.263 111.825 328.397 111.825V95.8253C323.426 95.8253 319.397 99.8547 319.397 104.825H335.397ZM326.397 116.499C331.367 116.499 335.397 112.47 335.397 107.499H319.397C319.397 103.633 322.531 100.499 326.397 100.499V116.499ZM315.343 107.499C315.343 112.47 319.373 116.499 324.343 116.499V100.499C328.209 100.499 331.343 103.633 331.343 107.499H315.343ZM322.343 111.825C318.477 111.825 315.343 108.691 315.343 104.825H331.343C331.343 99.8547 327.314 95.8253 322.343 95.8253V111.825ZM328.838 104.825C328.838 108.691 325.704 111.825 321.838 111.825V95.8253C316.868 95.8253 312.838 99.8547 312.838 104.825H328.838ZM319.838 116.499C324.809 116.499 328.838 112.47 328.838 107.499H312.838C312.838 103.633 315.972 100.499 319.838 100.499V116.499ZM308.785 107.499C308.785 112.47 312.814 116.499 317.785 116.499V100.499C321.651 100.499 324.785 103.634 324.785 107.499H308.785ZM315.785 111.825C311.919 111.825 308.785 108.691 308.785 104.825H324.785C324.785 99.8547 320.755 95.8253 315.785 95.8253V111.825ZM306 102.825C306 107.796 310.029 111.825 315 111.825V95.8253C318.866 95.8253 322 98.9593 322 102.825H306ZM341.852 94C337.986 94 334.852 90.866 334.852 87H350.852C350.852 82.0295 346.823 78 341.852 78V94ZM315 78C310.029 78 306 82.0295 306 87H322C322 90.866 318.866 94 315 94V78ZM361.049 132.061C358.315 134.795 353.883 134.795 351.149 132.061L362.463 120.748C358.948 117.233 353.25 117.233 349.735 120.748L361.049 132.061ZM358.754 124.457C361.487 127.191 361.487 131.623 358.754 134.357L347.44 123.043C343.925 126.558 343.925 132.256 347.44 135.771L358.754 124.457ZM361.976 140.408C365.491 136.893 365.491 131.195 361.976 127.68L350.663 138.994C347.929 136.26 347.929 131.828 350.663 129.094L361.976 140.408ZM346.954 142.703C350.468 146.217 356.167 146.217 359.681 142.703L348.368 131.389C351.101 128.655 355.534 128.655 358.267 131.389L346.954 142.703ZM340.022 123.043C336.507 126.558 336.507 132.256 340.022 135.771L351.335 124.457C354.069 127.191 354.069 131.623 351.335 134.357L340.022 123.043ZM341.704 131.26C338.97 128.527 338.97 124.094 341.704 121.361L353.018 132.674C356.532 129.16 356.532 123.461 353.018 119.947L341.704 131.26ZM337.554 114.383C334.039 117.897 334.039 123.596 337.554 127.111L348.868 115.797C351.602 118.531 351.602 122.963 348.868 125.696L337.554 114.383ZM353.654 111.011C350.139 107.496 344.441 107.496 340.926 111.011L352.24 122.324C349.506 125.058 345.074 125.058 342.34 122.324L353.654 111.011ZM347.904 115.16C350.638 112.427 355.07 112.427 357.804 115.16L346.49 126.474C350.005 129.989 355.703 129.989 359.218 126.474L347.904 115.16ZM362.464 113.329C358.949 109.814 353.25 109.814 349.736 113.329L361.049 124.643C358.316 127.376 353.884 127.376 351.15 124.643L362.464 113.329ZM355.786 123.971C358.52 121.237 362.952 121.237 365.686 123.971L354.372 135.284C357.887 138.799 363.585 138.799 367.1 135.284L355.786 123.971ZM369.395 132.989C372.91 129.474 372.91 123.776 369.395 120.261L358.082 131.575C355.348 128.841 355.348 124.409 358.082 121.675L369.395 132.989ZM307.233 113.329C303.718 109.814 298.02 109.814 294.505 113.329L305.819 124.643C303.085 127.376 298.653 127.376 295.919 124.643L307.233 113.329ZM299.165 115.16C301.898 112.427 306.331 112.427 309.064 115.16L297.75 126.474C301.265 129.989 306.964 129.989 310.478 126.474L299.165 115.16ZM316.042 111.011C312.528 107.496 306.829 107.496 303.314 111.011L314.628 122.324C311.894 125.058 307.462 125.058 304.729 122.324L316.042 111.011ZM319.414 127.111C322.929 123.596 322.929 117.897 319.414 114.383L308.101 125.696C305.367 122.963 305.367 118.531 308.101 115.797L319.414 127.111ZM315.265 121.361C317.998 124.094 317.998 128.527 315.265 131.26L303.951 119.947C300.436 123.461 300.436 129.16 303.951 132.674L315.265 121.361ZM316.947 135.771C320.461 132.256 320.461 126.558 316.947 123.043L305.633 134.357C302.899 131.623 302.899 127.191 305.633 124.457L316.947 135.771ZM297.287 142.703C300.802 146.217 306.5 146.217 310.015 142.703L298.701 131.389C301.435 128.655 305.867 128.655 308.601 131.389L297.287 142.703ZM294.992 127.68C291.477 131.195 291.477 136.893 294.992 140.408L306.306 129.094C309.04 131.828 309.04 136.26 306.306 138.994L294.992 127.68ZM298.215 134.357C295.481 131.623 295.481 127.191 298.215 124.457L309.529 135.771C313.043 132.256 313.043 126.558 309.529 123.043L298.215 134.357ZM305.819 132.061C303.086 134.795 298.654 134.795 295.92 132.061L307.234 120.748C303.719 117.233 298.02 117.233 294.506 120.748L305.819 132.061ZM298.887 121.675C301.62 124.409 301.62 128.841 298.887 131.575L287.573 120.261C284.058 123.776 284.058 129.474 287.573 132.989L298.887 121.675ZM289.869 135.284C293.383 138.799 299.082 138.799 302.596 135.284L291.283 123.971C294.016 121.237 298.449 121.237 301.182 123.971L289.869 135.284ZM349.735 82.8351C353.25 86.3498 358.948 86.3498 362.463 82.8351L351.149 71.5214C353.883 68.7877 358.315 68.7877 361.049 71.5214L349.735 82.8351ZM347.44 67.812C343.925 71.3267 343.925 77.0252 347.44 80.5399L358.754 69.2262C361.487 71.9599 361.487 76.392 358.754 79.1257L347.44 67.812ZM350.663 74.4887C347.929 71.755 347.929 67.3229 350.663 64.5892L361.976 75.9029C365.491 72.3882 365.491 66.6897 361.976 63.175L350.663 74.4887ZM358.267 72.1938C355.534 74.9275 351.101 74.9275 348.368 72.1938L359.682 60.8801C356.167 57.3654 350.468 57.3654 346.954 60.8801L358.267 72.1938ZM351.335 69.2262C354.069 71.9599 354.069 76.392 351.335 79.1257L340.022 67.812C336.507 71.3267 336.507 77.0252 340.022 80.5399L351.335 69.2262ZM353.018 83.6362C356.532 80.1215 356.532 74.423 353.018 70.9083L341.704 82.222C338.97 79.4884 338.97 75.0562 341.704 72.3225L353.018 83.6362ZM348.868 77.8864C351.602 80.6201 351.602 85.0522 348.868 87.7859L337.554 76.4722C334.039 79.9869 334.039 85.6854 337.554 89.2001L348.868 77.8864ZM342.34 81.2585C345.074 78.5248 349.506 78.5248 352.24 81.2585L340.926 92.5722C344.441 96.0869 350.139 96.0869 353.654 92.5722L342.34 81.2585ZM359.218 77.1088C355.703 73.5941 350.005 73.5941 346.49 77.1088L357.804 88.4225C355.07 91.1562 350.638 91.1562 347.904 88.4225L359.218 77.1088ZM351.15 78.9401C353.883 76.2065 358.316 76.2064 361.049 78.9401L349.736 90.2538C353.25 93.7685 358.949 93.7685 362.464 90.2538L351.15 78.9401ZM367.1 68.2986C363.585 64.7838 357.887 64.7838 354.372 68.2986L365.686 79.6123C362.952 82.3459 358.52 82.3459 355.786 79.6123L367.1 68.2986ZM358.082 81.9077C355.348 79.1741 355.348 74.7419 358.082 72.0082L369.395 83.3219C372.91 79.8072 372.91 74.1087 369.395 70.594L358.082 81.9077ZM295.92 71.5214C298.654 68.7877 303.086 68.7877 305.819 71.5214L294.506 82.8351C298.02 86.3498 303.719 86.3498 307.234 82.8351L295.92 71.5214ZM298.215 79.1257C295.481 76.392 295.481 71.9599 298.215 69.2262L309.529 80.5399C313.043 77.0252 313.043 71.3267 309.529 67.812L298.215 79.1257ZM294.992 63.1749C291.477 66.6896 291.477 72.3881 294.992 75.9028L306.306 64.5891C309.04 67.3228 309.04 71.755 306.306 74.4886L294.992 63.1749ZM310.015 60.8801C306.5 57.3654 300.802 57.3654 297.287 60.8801L308.601 72.1938C305.867 74.9275 301.435 74.9275 298.701 72.1938L310.015 60.8801ZM316.947 80.5399C320.461 77.0252 320.461 71.3267 316.947 67.812L305.633 79.1257C302.899 76.392 302.899 71.9599 305.633 69.2262L316.947 80.5399ZM315.265 72.3225C317.998 75.0562 317.998 79.4883 315.265 82.222L303.951 70.9083C300.436 74.423 300.436 80.1215 303.951 83.6362L315.265 72.3225ZM319.414 89.2001C322.929 85.6854 322.929 79.9869 319.414 76.4722L308.101 87.7859C305.367 85.0522 305.367 80.6201 308.101 77.8864L319.414 89.2001ZM303.314 92.5722C306.829 96.0869 312.528 96.0869 316.042 92.5722L304.729 81.2585C307.462 78.5248 311.894 78.5248 314.628 81.2585L303.314 92.5722ZM309.064 88.4225C306.331 91.1562 301.898 91.1562 299.165 88.4225L310.478 77.1088C306.964 73.5941 301.265 73.5941 297.75 77.1088L309.064 88.4225ZM294.505 90.2538C298.02 93.7685 303.718 93.7685 307.233 90.2538L295.919 78.9401C298.653 76.2064 303.085 76.2064 305.819 78.9401L294.505 90.2538ZM301.182 79.6122C298.449 82.3459 294.016 82.3459 291.283 79.6122L302.596 68.2985C299.082 64.7838 293.383 64.7838 289.869 68.2985L301.182 79.6122ZM287.573 70.594C284.058 74.1087 284.058 79.8072 287.573 83.3219L298.887 72.0082C301.62 74.7419 301.62 79.1741 298.887 81.9077L287.573 70.594Z" fill="#1F2024" mask="url(#path-52-outside-1)"/>
<defs>
<filter id="filter0_ii" x="68" y="389" width="248" height="152" filterUnits="userSpaceOnUse" color-interpolation-filters="sRGB">
<feFlood flood-opacity="0" result="BackgroundImageFix"/>
<feBlend mode="normal" in="SourceGraphic" in2="BackgroundImageFix" result="shape"/>
<feColorMatrix in="SourceAlpha" type="matrix" values="0 0 0 0 0 0 0 0 0 0 0 0 0 0 0 0 0 0 127 0" result="hardAlpha"/>
<feOffset dy="-16"/>
<feComposite in2="hardAlpha" operator="arithmetic" k2="-1" k3="1"/>
<feColorMatrix type="matrix" values="0 0 0 0 0 0 0 0 0 0 0 0 0 0 0 0 0 0 0.25 0"/>
<feBlend mode="normal" in2="shape" result="effect1_innerShadow"/>
<feColorMatrix in="SourceAlpha" type="matrix" values="0 0 0 0 0 0 0 0 0 0 0 0 0 0 0 0 0 0 127 0" result="hardAlpha"/>
<feOffset dy="16"/>
<feComposite in2="hardAlpha" operator="arithmetic" k2="-1" k3="1"/>
<feColorMatrix type="matrix" values="0 0 0 0 1 0 0 0 0 1 0 0 0 0 1 0 0 0 0.25 0"/>
<feBlend mode="normal" in2="effect1_innerShadow" result="effect2_innerShadow"/>
</filter>
<filter id="filter1_ii" x="76" y="533" width="232" height="32" filterUnits="userSpaceOnUse" color-interpolation-filters="sRGB">
<feFlood flood-opacity="0" result="BackgroundImageFix"/>
<feBlend mode="normal" in="SourceGraphic" in2="BackgroundImageFix" result="shape"/>
<feColorMatrix in="SourceAlpha" type="matrix" values="0 0 0 0 0 0 0 0 0 0 0 0 0 0 0 0 0 0 127 0" result="hardAlpha"/>
<feOffset dy="-16"/>
<feComposite in2="hardAlpha" operator="arithmetic" k2="-1" k3="1"/>
<feColorMatrix type="matrix" values="0 0 0 0 0 0 0 0 0 0 0 0 0 0 0 0 0 0 0.25 0"/>
<feBlend mode="normal" in2="shape" result="effect1_innerShadow"/>
<feColorMatrix in="SourceAlpha" type="matrix" values="0 0 0 0 0 0 0 0 0 0 0 0 0 0 0 0 0 0 127 0" result="hardAlpha"/>
<feOffset dy="16"/>
<feComposite in2="hardAlpha" operator="arithmetic" k2="-1" k3="1"/>
<feColorMatrix type="matrix" values="0 0 0 0 1 0 0 0 0 1 0 0 0 0 1 0 0 0 0.25 0"/>
<feBlend mode="normal" in2="effect1_innerShadow" result="effect2_innerShadow"/>
</filter>
<filter id="filter2_ii" x="56" y="418" width="40" height="24" filterUnits="userSpaceOnUse" color-interpolation-filters="sRGB">
<feFlood flood-opacity="0" result="BackgroundImageFix"/>
<feBlend mode="normal" in="SourceGraphic" in2="BackgroundImageFix" result="shape"/>
<feColorMatrix in="SourceAlpha" type="matrix" values="0 0 0 0 0 0 0 0 0 0 0 0 0 0 0 0 0 0 127 0" result="hardAlpha"/>
<feOffset dy="-16"/>
<feComposite in2="hardAlpha" operator="arithmetic" k2="-1" k3="1"/>
<feColorMatrix type="matrix" values="0 0 0 0 0 0 0 0 0 0 0 0 0 0 0 0 0 0 0.25 0"/>
<feBlend mode="normal" in2="shape" result="effect1_innerShadow"/>
<feColorMatrix in="SourceAlpha" type="matrix" values="0 0 0 0 0 0 0 0 0 0 0 0 0 0 0 0 0 0 127 0" result="hardAlpha"/>
<feOffset dy="16"/>
<feComposite in2="hardAlpha" operator="arithmetic" k2="-1" k3="1"/>
<feColorMatrix type="matrix" values="0 0 0 0 1 0 0 0 0 1 0 0 0 0 1 0 0 0 0.25 0"/>
<feBlend mode="normal" in2="effect1_innerShadow" result="effect2_innerShadow"/>
</filter>
<filter id="filter3_ii" x="56" y="442" width="40" height="24" filterUnits="userSpaceOnUse" color-interpolation-filters="sRGB">
<feFlood flood-opacity="0" result="BackgroundImageFix"/>
<feBlend mode="normal" in="SourceGraphic" in2="BackgroundImageFix" result="shape"/>
<feColorMatrix in="SourceAlpha" type="matrix" values="0 0 0 0 0 0 0 0 0 0 0 0 0 0 0 0 0 0 127 0" result="hardAlpha"/>
<feOffset dy="-16"/>
<feComposite in2="hardAlpha" operator="arithmetic" k2="-1" k3="1"/>
<feColorMatrix type="matrix" values="0 0 0 0 0 0 0 0 0 0 0 0 0 0 0 0 0 0 0.25 0"/>
<feBlend mode="normal" in2="shape" result="effect1_innerShadow"/>
<feColorMatrix in="SourceAlpha" type="matrix" values="0 0 0 0 0 0 0 0 0 0 0 0 0 0 0 0 0 0 127 0" result="hardAlpha"/>
<feOffset dy="16"/>
<feComposite in2="hardAlpha" operator="arithmetic" k2="-1" k3="1"/>
<feColorMatrix type="matrix" values="0 0 0 0 1 0 0 0 0 1 0 0 0 0 1 0 0 0 0.25 0"/>
<feBlend mode="normal" in2="effect1_innerShadow" result="effect2_innerShadow"/>
</filter>
<filter id="filter4_ii" x="56" y="466" width="40" height="24" filterUnits="userSpaceOnUse" color-interpolation-filters="sRGB">
<feFlood flood-opacity="0" result="BackgroundImageFix"/>
<feBlend mode="normal" in="SourceGraphic" in2="BackgroundImageFix" result="shape"/>
<feColorMatrix in="SourceAlpha" type="matrix" values="0 0 0 0 0 0 0 0 0 0 0 0 0 0 0 0 0 0 127 0" result="hardAlpha"/>
<feOffset dy="-16"/>
<feComposite in2="hardAlpha" operator="arithmetic" k2="-1" k3="1"/>
<feColorMatrix type="matrix" values="0 0 0 0 0 0 0 0 0 0 0 0 0 0 0 0 0 0 0.25 0"/>
<feBlend mode="normal" in2="shape" result="effect1_innerShadow"/>
<feColorMatrix in="SourceAlpha" type="matrix" values="0 0 0 0 0 0 0 0 0 0 0 0 0 0 0 0 0 0 127 0" result="hardAlpha"/>
<feOffset dy="16"/>
<feComposite in2="hardAlpha" operator="arithmetic" k2="-1" k3="1"/>
<feColorMatrix type="matrix" values="0 0 0 0 1 0 0 0 0 1 0 0 0 0 1 0 0 0 0.25 0"/>
<feBlend mode="normal" in2="effect1_innerShadow" result="effect2_innerShadow"/>
</filter>
<filter id="filter5_i" x="218" y="361" width="118" height="28" filterUnits="userSpaceOnUse" color-interpolation-filters="sRGB">
<feFlood flood-opacity="0" result="BackgroundImageFix"/>
<feBlend mode="normal" in="SourceGraphic" in2="BackgroundImageFix" result="shape"/>
<feColorMatrix in="SourceAlpha" type="matrix" values="0 0 0 0 0 0 0 0 0 0 0 0 0 0 0 0 0 0 127 0" result="hardAlpha"/>
<feOffset dx="12" dy="-8"/>
<feComposite in2="hardAlpha" operator="arithmetic" k2="-1" k3="1"/>
<feColorMatrix type="matrix" values="0 0 0 0 0 0 0 0 0 0 0 0 0 0 0 0 0 0 0.25 0"/>
<feBlend mode="normal" in2="shape" result="effect1_innerShadow"/>
</filter>
<filter id="filter6_i" x="352.5" y="405" width="104" height="62" filterUnits="userSpaceOnUse" color-interpolation-filters="sRGB">
<feFlood flood-opacity="0" result="BackgroundImageFix"/>
<feBlend mode="normal" in="SourceGraphic" in2="BackgroundImageFix" result="shape"/>
<feColorMatrix in="SourceAlpha" type="matrix" values="0 0 0 0 0 0 0 0 0 0 0 0 0 0 0 0 0 0 127 0" result="hardAlpha"/>
<feOffset dx="12" dy="-8"/>
<feComposite in2="hardAlpha" operator="arithmetic" k2="-1" k3="1"/>
<feColorMatrix type="matrix" values="0 0 0 0 0 0 0 0 0 0 0 0 0 0 0 0 0 0 0.25 0"/>
<feBlend mode="normal" in2="shape" result="effect1_innerShadow"/>
</filter>
<filter id="filter7_i" x="352.5" y="405" width="65" height="62" filterUnits="userSpaceOnUse" color-interpolation-filters="sRGB">
<feFlood flood-opacity="0" result="BackgroundImageFix"/>
<feBlend mode="normal" in="SourceGraphic" in2="BackgroundImageFix" result="shape"/>
<feColorMatrix in="SourceAlpha" type="matrix" values="0 0 0 0 0 0 0 0 0 0 0 0 0 0 0 0 0 0 127 0" result="hardAlpha"/>
<feOffset dx="16"/>
<feComposite in2="hardAlpha" operator="arithmetic" k2="-1" k3="1"/>
<feColorMatrix type="matrix" values="0 0 0 0 0 0 0 0 0 0 0 0 0 0 0 0 0 0 0.25 0"/>
<feBlend mode="normal" in2="shape" result="effect1_innerShadow"/>
</filter>
<filter id="filter8_ii" x="384.5" y="459" width="40" height="27" filterUnits="userSpaceOnUse" color-interpolation-filters="sRGB">
<feFlood flood-opacity="0" result="BackgroundImageFix"/>
<feBlend mode="normal" in="SourceGraphic" in2="BackgroundImageFix" result="shape"/>
<feColorMatrix in="SourceAlpha" type="matrix" values="0 0 0 0 0 0 0 0 0 0 0 0 0 0 0 0 0 0 127 0" result="hardAlpha"/>
<feOffset dx="16" dy="16"/>
<feComposite in2="hardAlpha" operator="arithmetic" k2="-1" k3="1"/>
<feColorMatrix type="matrix" values="0 0 0 0 0 0 0 0 0 0 0 0 0 0 0 0 0 0 0.25 0"/>
<feBlend mode="normal" in2="shape" result="effect1_innerShadow"/>
<feColorMatrix in="SourceAlpha" type="matrix" values="0 0 0 0 0 0 0 0 0 0 0 0 0 0 0 0 0 0 127 0" result="hardAlpha"/>
<feOffset dx="-16" dy="8"/>
<feComposite in2="hardAlpha" operator="arithmetic" k2="-1" k3="1"/>
<feColorMatrix type="matrix" values="0 0 0 0 1 0 0 0 0 1 0 0 0 0 1 0 0 0 0.25 0"/>
<feBlend mode="normal" in2="effect1_innerShadow" result="effect2_innerShadow"/>
</filter>
<filter id="filter9_i" x="372.5" y="478" width="64" height="135" filterUnits="userSpaceOnUse" color-interpolation-filters="sRGB">
<feFlood flood-opacity="0" result="BackgroundImageFix"/>
<feBlend mode="normal" in="SourceGraphic" in2="BackgroundImageFix" result="shape"/>
<feColorMatrix in="SourceAlpha" type="matrix" values="0 0 0 0 0 0 0 0 0 0 0 0 0 0 0 0 0 0 127 0" result="hardAlpha"/>
<feOffset dx="12" dy="-8"/>
<feComposite in2="hardAlpha" operator="arithmetic" k2="-1" k3="1"/>
<feColorMatrix type="matrix" values="0 0 0 0 0 0 0 0 0 0 0 0 0 0 0 0 0 0 0.25 0"/>
<feBlend mode="normal" in2="shape" result="effect1_innerShadow"/>
</filter>
<filter id="filter10_ii" x="112.5" y="381" width="248" height="208" filterUnits="userSpaceOnUse" color-interpolation-filters="sRGB">
<feFlood flood-opacity="0" result="BackgroundImageFix"/>
<feBlend mode="normal" in="SourceGraphic" in2="BackgroundImageFix" result="shape"/>
<feColorMatrix in="SourceAlpha" type="matrix" values="0 0 0 0 0 0 0 0 0 0 0 0 0 0 0 0 0 0 127 0" result="hardAlpha"/>
<feOffset dy="-16"/>
<feComposite in2="hardAlpha" operator="arithmetic" k2="-1" k3="1"/>
<feColorMatrix type="matrix" values="0 0 0 0 0 0 0 0 0 0 0 0 0 0 0 0 0 0 0.25 0"/>
<feBlend mode="normal" in2="shape" result="effect1_innerShadow"/>
<feColorMatrix in="SourceAlpha" type="matrix" values="0 0 0 0 0 0 0 0 0 0 0 0 0 0 0 0 0 0 127 0" result="hardAlpha"/>
<feOffset dy="16"/>
<feComposite in2="hardAlpha" operator="arithmetic" k2="-1" k3="1"/>
<feColorMatrix type="matrix" values="0 0 0 0 1 0 0 0 0 1 0 0 0 0 1 0 0 0 0.25 0"/>
<feBlend mode="normal" in2="effect1_innerShadow" result="effect2_innerShadow"/>
</filter>
<filter id="filter11_i" x="208.5" y="381" width="232" height="208" filterUnits="userSpaceOnUse" color-interpolation-filters="sRGB">
<feFlood flood-opacity="0" result="BackgroundImageFix"/>
<feBlend mode="normal" in="SourceGraphic" in2="BackgroundImageFix" result="shape"/>
<feColorMatrix in="SourceAlpha" type="matrix" values="0 0 0 0 0 0 0 0 0 0 0 0 0 0 0 0 0 0 127 0" result="hardAlpha"/>
<feOffset dx="-24" dy="8"/>
<feComposite in2="hardAlpha" operator="arithmetic" k2="-1" k3="1"/>
<feColorMatrix type="matrix" values="0 0 0 0 1 0 0 0 0 1 0 0 0 0 1 0 0 0 0.25 0"/>
<feBlend mode="normal" in2="shape" result="effect1_innerShadow"/>
</filter>
<filter id="filter12_i" x="96.5" y="405" width="104" height="62" filterUnits="userSpaceOnUse" color-interpolation-filters="sRGB">
<feFlood flood-opacity="0" result="BackgroundImageFix"/>
<feBlend mode="normal" in="SourceGraphic" in2="BackgroundImageFix" result="shape"/>
<feColorMatrix in="SourceAlpha" type="matrix" values="0 0 0 0 0 0 0 0 0 0 0 0 0 0 0 0 0 0 127 0" result="hardAlpha"/>
<feOffset dx="12" dy="-8"/>
<feComposite in2="hardAlpha" operator="arithmetic" k2="-1" k3="1"/>
<feColorMatrix type="matrix" values="0 0 0 0 0 0 0 0 0 0 0 0 0 0 0 0 0 0 0.25 0"/>
<feBlend mode="normal" in2="shape" result="effect1_innerShadow"/>
</filter>
<filter id="filter13_i" x="96.5" y="405" width="65" height="62" filterUnits="userSpaceOnUse" color-interpolation-filters="sRGB">
<feFlood flood-opacity="0" result="BackgroundImageFix"/>
<feBlend mode="normal" in="SourceGraphic" in2="BackgroundImageFix" result="shape"/>
<feColorMatrix in="SourceAlpha" type="matrix" values="0 0 0 0 0 0 0 0 0 0 0 0 0 0 0 0 0 0 127 0" result="hardAlpha"/>
<feOffset dx="16"/>
<feComposite in2="hardAlpha" operator="arithmetic" k2="-1" k3="1"/>
<feColorMatrix type="matrix" values="0 0 0 0 0 0 0 0 0 0 0 0 0 0 0 0 0 0 0.25 0"/>
<feBlend mode="normal" in2="shape" result="effect1_innerShadow"/>
</filter>
<filter id="filter14_ii" x="128.5" y="459" width="40" height="27" filterUnits="userSpaceOnUse" color-interpolation-filters="sRGB">
<feFlood flood-opacity="0" result="BackgroundImageFix"/>
<feBlend mode="normal" in="SourceGraphic" in2="BackgroundImageFix" result="shape"/>
<feColorMatrix in="SourceAlpha" type="matrix" values="0 0 0 0 0 0 0 0 0 0 0 0 0 0 0 0 0 0 127 0" result="hardAlpha"/>
<feOffset dx="16" dy="16"/>
<feComposite in2="hardAlpha" operator="arithmetic" k2="-1" k3="1"/>
<feColorMatrix type="matrix" values="0 0 0 0 0 0 0 0 0 0 0 0 0 0 0 0 0 0 0.25 0"/>
<feBlend mode="normal" in2="shape" result="effect1_innerShadow"/>
<feColorMatrix in="SourceAlpha" type="matrix" values="0 0 0 0 0 0 0 0 0 0 0 0 0 0 0 0 0 0 127 0" result="hardAlpha"/>
<feOffset dx="-16" dy="8"/>
<feComposite in2="hardAlpha" operator="arithmetic" k2="-1" k3="1"/>
<feColorMatrix type="matrix" values="0 0 0 0 1 0 0 0 0 1 0 0 0 0 1 0 0 0 0.25 0"/>
<feBlend mode="normal" in2="effect1_innerShadow" result="effect2_innerShadow"/>
</filter>
<filter id="filter15_i" x="116.5" y="478" width="64" height="135" filterUnits="userSpaceOnUse" color-interpolation-filters="sRGB">
<feFlood flood-opacity="0" result="BackgroundImageFix"/>
<feBlend mode="normal" in="SourceGraphic" in2="BackgroundImageFix" result="shape"/>
<feColorMatrix in="SourceAlpha" type="matrix" values="0 0 0 0 0 0 0 0 0 0 0 0 0 0 0 0 0 0 127 0" result="hardAlpha"/>
<feOffset dx="12" dy="-8"/>
<feComposite in2="hardAlpha" operator="arithmetic" k2="-1" k3="1"/>
<feColorMatrix type="matrix" values="0 0 0 0 0 0 0 0 0 0 0 0 0 0 0 0 0 0 0.25 0"/>
<feBlend mode="normal" in2="shape" result="effect1_innerShadow"/>
</filter>
<filter id="filter16_ii" x="111" y="153" width="248" height="216" filterUnits="userSpaceOnUse" color-interpolation-filters="sRGB">
<feFlood flood-opacity="0" result="BackgroundImageFix"/>
<feBlend mode="normal" in="SourceGraphic" in2="BackgroundImageFix" result="shape"/>
<feColorMatrix in="SourceAlpha" type="matrix" values="0 0 0 0 0 0 0 0 0 0 0 0 0 0 0 0 0 0 127 0" result="hardAlpha"/>
<feOffset dy="-16"/>
<feComposite in2="hardAlpha" operator="arithmetic" k2="-1" k3="1"/>
<feColorMatrix type="matrix" values="0 0 0 0 0 0 0 0 0 0 0 0 0 0 0 0 0 0 0.25 0"/>
<feBlend mode="normal" in2="shape" result="effect1_innerShadow"/>
<feColorMatrix in="SourceAlpha" type="matrix" values="0 0 0 0 0 0 0 0 0 0 0 0 0 0 0 0 0 0 127 0" result="hardAlpha"/>
<feOffset dy="16"/>
<feComposite in2="hardAlpha" operator="arithmetic" k2="-1" k3="1"/>
<feColorMatrix type="matrix" values="0 0 0 0 1 0 0 0 0 1 0 0 0 0 1 0 0 0 0.25 0"/>
<feBlend mode="normal" in2="effect1_innerShadow" result="effect2_innerShadow"/>
</filter>
<filter id="filter17_i" x="111" y="319" width="248" height="50" filterUnits="userSpaceOnUse" color-interpolation-filters="sRGB">
<feFlood flood-opacity="0" result="BackgroundImageFix"/>
<feBlend mode="normal" in="SourceGraphic" in2="BackgroundImageFix" result="shape"/>
<feColorMatrix in="SourceAlpha" type="matrix" values="0 0 0 0 0 0 0 0 0 0 0 0 0 0 0 0 0 0 127 0" result="hardAlpha"/>
<feOffset dy="-8"/>
<feComposite in2="hardAlpha" operator="arithmetic" k2="-1" k3="1"/>
<feColorMatrix type="matrix" values="0 0 0 0 0 0 0 0 0 0 0 0 0 0 0 0 0 0 0.25 0"/>
<feBlend mode="normal" in2="shape" result="effect1_innerShadow"/>
</filter>
<filter id="filter18_i" x="211" y="153" width="232" height="216" filterUnits="userSpaceOnUse" color-interpolation-filters="sRGB">
<feFlood flood-opacity="0" result="BackgroundImageFix"/>
<feBlend mode="normal" in="SourceGraphic" in2="BackgroundImageFix" result="shape"/>
<feColorMatrix in="SourceAlpha" type="matrix" values="0 0 0 0 0 0 0 0 0 0 0 0 0 0 0 0 0 0 127 0" result="hardAlpha"/>
<feOffset dx="-24" dy="8"/>
<feComposite in2="hardAlpha" operator="arithmetic" k2="-1" k3="1"/>
<feColorMatrix type="matrix" values="0 0 0 0 1 0 0 0 0 1 0 0 0 0 1 0 0 0 0.25 0"/>
<feBlend mode="normal" in2="shape" result="effect1_innerShadow"/>
</filter>
<filter id="filter19_i" x="211" y="319" width="232" height="50" filterUnits="userSpaceOnUse" color-interpolation-filters="sRGB">
<feFlood flood-opacity="0" result="BackgroundImageFix"/>
<feBlend mode="normal" in="SourceGraphic" in2="BackgroundImageFix" result="shape"/>
<feColorMatrix in="SourceAlpha" type="matrix" values="0 0 0 0 0 0 0 0 0 0 0 0 0 0 0 0 0 0 127 0" result="hardAlpha"/>
<feOffset dx="-24" dy="8"/>
<feComposite in2="hardAlpha" operator="arithmetic" k2="-1" k3="1"/>
<feColorMatrix type="matrix" values="0 0 0 0 1 0 0 0 0 1 0 0 0 0 1 0 0 0 0.25 0"/>
<feBlend mode="normal" in2="shape" result="effect1_innerShadow"/>
</filter>
<filter id="filter20_ddi" x="239" y="202" width="177" height="74" filterUnits="userSpaceOnUse" color-interpolation-filters="sRGB">
<feFlood flood-opacity="0" result="BackgroundImageFix"/>
<feColorMatrix in="SourceAlpha" type="matrix" values="0 0 0 0 0 0 0 0 0 0 0 0 0 0 0 0 0 0 127 0" result="hardAlpha"/>
<feOffset dx="-4"/>
<feColorMatrix type="matrix" values="0 0 0 0 1 0 0 0 0 1 0 0 0 0 1 0 0 0 0.25 0"/>
<feBlend mode="normal" in2="BackgroundImageFix" result="effect1_dropShadow"/>
<feColorMatrix in="SourceAlpha" type="matrix" values="0 0 0 0 0 0 0 0 0 0 0 0 0 0 0 0 0 0 127 0" result="hardAlpha"/>
<feOffset dx="4"/>
<feColorMatrix type="matrix" values="0 0 0 0 0 0 0 0 0 0 0 0 0 0 0 0 0 0 0.25 0"/>
<feBlend mode="normal" in2="effect1_dropShadow" result="effect2_dropShadow"/>
<feBlend mode="normal" in="SourceGraphic" in2="effect2_dropShadow" result="shape"/>
<feColorMatrix in="SourceAlpha" type="matrix" values="0 0 0 0 0 0 0 0 0 0 0 0 0 0 0 0 0 0 127 0" result="hardAlpha"/>
<feOffset dx="-4"/>
<feComposite in2="hardAlpha" operator="arithmetic" k2="-1" k3="1"/>
<feColorMatrix type="matrix" values="0 0 0 0 0 0 0 0 0 0 0 0 0 0 0 0 0 0 0.25 0"/>
<feBlend mode="normal" in2="shape" result="effect3_innerShadow"/>
</filter>
<filter id="filter21_d" x="97" y="209" width="114" height="203" filterUnits="userSpaceOnUse" color-interpolation-filters="sRGB">
<feFlood flood-opacity="0" result="BackgroundImageFix"/>
<feColorMatrix in="SourceAlpha" type="matrix" values="0 0 0 0 0 0 0 0 0 0 0 0 0 0 0 0 0 0 127 0" result="hardAlpha"/>
<feOffset dx="-4" dy="4"/>
<feColorMatrix type="matrix" values="0 0 0 0 0 0 0 0 0 0 0 0 0 0 0 0 0 0 0.25 0"/>
<feBlend mode="normal" in2="BackgroundImageFix" result="effect1_dropShadow"/>
<feBlend mode="normal" in="SourceGraphic" in2="effect1_dropShadow" result="shape"/>
</filter>
<filter id="filter22_ii" x="115" y="298.333" width="82" height="109.333" filterUnits="userSpaceOnUse" color-interpolation-filters="sRGB">
<feFlood flood-opacity="0" result="BackgroundImageFix"/>
<feBlend mode="normal" in="SourceGraphic" in2="BackgroundImageFix" result="shape"/>
<feColorMatrix in="SourceAlpha" type="matrix" values="0 0 0 0 0 0 0 0 0 0 0 0 0 0 0 0 0 0 127 0" result="hardAlpha"/>
<feOffset dy="-16"/>
<feComposite in2="hardAlpha" operator="arithmetic" k2="-1" k3="1"/>
<feColorMatrix type="matrix" values="0 0 0 0 0 0 0 0 0 0 0 0 0 0 0 0 0 0 0.25 0"/>
<feBlend mode="normal" in2="shape" result="effect1_innerShadow"/>
<feColorMatrix in="SourceAlpha" type="matrix" values="0 0 0 0 0 0 0 0 0 0 0 0 0 0 0 0 0 0 127 0" result="hardAlpha"/>
<feOffset dy="16"/>
<feComposite in2="hardAlpha" operator="arithmetic" k2="-1" k3="1"/>
<feColorMatrix type="matrix" values="0 0 0 0 1 0 0 0 0 1 0 0 0 0 1 0 0 0 0.25 0"/>
<feBlend mode="normal" in2="effect1_innerShadow" result="effect2_innerShadow"/>
</filter>
<filter id="filter23_i" x="124.856" y="213" width="78.188" height="72" filterUnits="userSpaceOnUse" color-interpolation-filters="sRGB">
<feFlood flood-opacity="0" result="BackgroundImageFix"/>
<feBlend mode="normal" in="SourceGraphic" in2="BackgroundImageFix" result="shape"/>
<feColorMatrix in="SourceAlpha" type="matrix" values="0 0 0 0 0 0 0 0 0 0 0 0 0 0 0 0 0 0 127 0" result="hardAlpha"/>
<feOffset dx="-24" dy="8"/>
<feComposite in2="hardAlpha" operator="arithmetic" k2="-1" k3="1"/>
<feColorMatrix type="matrix" values="0 0 0 0 1 0 0 0 0 1 0 0 0 0 1 0 0 0 0.25 0"/>
<feBlend mode="normal" in2="shape" result="effect1_innerShadow"/>
</filter>
<filter id="filter24_i" x="108.856" y="213" width="78.188" height="72" filterUnits="userSpaceOnUse" color-interpolation-filters="sRGB">
<feFlood flood-opacity="0" result="BackgroundImageFix"/>
<feBlend mode="normal" in="SourceGraphic" in2="BackgroundImageFix" result="shape"/>
<feColorMatrix in="SourceAlpha" type="matrix" values="0 0 0 0 0 0 0 0 0 0 0 0 0 0 0 0 0 0 127 0" result="hardAlpha"/>
<feOffset dy="-16"/>
<feComposite in2="hardAlpha" operator="arithmetic" k2="-1" k3="1"/>
<feColorMatrix type="matrix" values="0 0 0 0 0 0 0 0 0 0 0 0 0 0 0 0 0 0 0.25 0"/>
<feBlend mode="normal" in2="shape" result="effect1_innerShadow"/>
</filter>
<filter id="filter25_ii" x="185" y="12" width="9" height="67" filterUnits="userSpaceOnUse" color-interpolation-filters="sRGB">
<feFlood flood-opacity="0" result="BackgroundImageFix"/>
<feBlend mode="normal" in="SourceGraphic" in2="BackgroundImageFix" result="shape"/>
<feColorMatrix in="SourceAlpha" type="matrix" values="0 0 0 0 0 0 0 0 0 0 0 0 0 0 0 0 0 0 127 0" result="hardAlpha"/>
<feOffset dy="-16"/>
<feComposite in2="hardAlpha" operator="arithmetic" k2="-1" k3="1"/>
<feColorMatrix type="matrix" values="0 0 0 0 0 0 0 0 0 0 0 0 0 0 0 0 0 0 0.25 0"/>
<feBlend mode="normal" in2="shape" result="effect1_innerShadow"/>
<feColorMatrix in="SourceAlpha" type="matrix" values="0 0 0 0 0 0 0 0 0 0 0 0 0 0 0 0 0 0 127 0" result="hardAlpha"/>
<feOffset dy="16"/>
<feComposite in2="hardAlpha" operator="arithmetic" k2="-1" k3="1"/>
<feColorMatrix type="matrix" values="0 0 0 0 1 0 0 0 0 1 0 0 0 0 1 0 0 0 0.25 0"/>
<feBlend mode="normal" in2="effect1_innerShadow" result="effect2_innerShadow"/>
</filter>
<filter id="filter26_i" x="170" y="0" width="40" height="40" filterUnits="userSpaceOnUse" color-interpolation-filters="sRGB">
<feFlood flood-opacity="0" result="BackgroundImageFix"/>
<feBlend mode="normal" in="SourceGraphic" in2="BackgroundImageFix" result="shape"/>
<feColorMatrix in="SourceAlpha" type="matrix" values="0 0 0 0 0 0 0 0 0 0 0 0 0 0 0 0 0 0 127 0" result="hardAlpha"/>
<feOffset dx="16"/>
<feComposite in2="hardAlpha" operator="arithmetic" k2="-1" k3="1"/>
<feColorMatrix type="matrix" values="0 0 0 0 0 0 0 0 0 0 0 0 0 0 0 0 0 0 0.25 0"/>
<feBlend mode="normal" in2="shape" result="effect1_innerShadow"/>
</filter>
<filter id="filter27_i" x="81" y="12" width="373.113" height="149" filterUnits="userSpaceOnUse" color-interpolation-filters="sRGB">
<feFlood flood-opacity="0" result="BackgroundImageFix"/>
<feBlend mode="normal" in="SourceGraphic" in2="BackgroundImageFix" result="shape"/>
<feColorMatrix in="SourceAlpha" type="matrix" values="0 0 0 0 0 0 0 0 0 0 0 0 0 0 0 0 0 0 127 0" result="hardAlpha"/>
<feOffset dx="16" dy="-8"/>
<feComposite in2="hardAlpha" operator="arithmetic" k2="-1" k3="1"/>
<feColorMatrix type="matrix" values="0 0 0 0 0 0 0 0 0 0 0 0 0 0 0 0 0 0 0.25 0"/>
<feBlend mode="normal" in2="shape" result="effect1_innerShadow"/>
</filter>
<filter id="filter28_i" x="92" y="30.0004" width="359.992" height="131.184" filterUnits="userSpaceOnUse" color-interpolation-filters="sRGB">
<feFlood flood-opacity="0" result="BackgroundImageFix"/>
<feBlend mode="normal" in="SourceGraphic" in2="BackgroundImageFix" result="shape"/>
<feColorMatrix in="SourceAlpha" type="matrix" values="0 0 0 0 0 0 0 0 0 0 0 0 0 0 0 0 0 0 127 0" result="hardAlpha"/>
<feOffset dx="8" dy="-15"/>
<feComposite in2="hardAlpha" operator="arithmetic" k2="-1" k3="1"/>
<feColorMatrix type="matrix" values="0 0 0 0 0 0 0 0 0 0 0 0 0 0 0 0 0 0 0.25 0"/>
<feBlend mode="normal" in2="shape" result="effect1_innerShadow"/>
</filter>
</defs>
</svg>
