<svg width="68" height="22" viewBox="0 0 68 22" fill="none" xmlns="http://www.w3.org/2000/svg">
<g clip-path="url(#clip0_304_8172)">
<g clip-path="url(#clip1_304_8172)">
<path d="M16.9861 21.4454L54.2397 18.0446H13.7571L16.9861 21.4454Z" fill="white" fill-opacity="0.8"/>
<path d="M62.877 4.01624C62.1127 4.03504 61.3699 4.28599 60.7378 4.73891V4.2713H58.2354V15.834H60.7378V9.07494C60.7202 8.77881 60.7604 8.48203 60.8559 8.20288C60.9514 7.92373 61.1001 7.66815 61.293 7.45188C61.4859 7.23562 61.7187 7.06326 61.9773 6.94544C62.2358 6.82762 62.5146 6.76684 62.7963 6.76684C63.078 6.76684 63.3567 6.82762 63.6153 6.94544C63.8738 7.06326 64.1067 7.23562 64.2996 7.45188C64.4924 7.66815 64.6412 7.92373 64.7367 8.20288C64.8322 8.48203 64.8723 8.77881 64.8547 9.07494V15.8766H67.3571V9.07494C67.3571 6.26927 65.5408 4.01624 62.877 4.01624Z" fill="white" fill-opacity="0.8"/>
<path d="M52.4639 3.97372C49.5578 3.97372 47.4994 6.65186 47.4994 10.0527C47.4994 13.6235 50.0825 16.1316 52.706 16.1316C54.0379 16.1316 55.6928 15.664 57.1054 13.5385L54.8855 12.1782C53.1904 14.8138 50.3247 13.496 50.0018 10.8179H57.1861C57.8319 6.73688 55.2892 3.97372 52.4639 3.97372ZM50.1632 8.56482C50.6879 5.88668 54.159 5.71664 54.6434 8.56482H50.1632Z" fill="white" fill-opacity="0.8"/>
<path d="M41.7843 12.4381C41.762 12.968 41.8414 13.4972 42.0175 13.9941C42.1937 14.491 42.4631 14.9454 42.8097 15.3302C43.1562 15.7151 43.5728 16.0225 44.0346 16.234C44.4964 16.4456 44.994 16.557 45.4975 16.5616C46.3483 16.5302 47.1792 16.2823 47.9192 15.8389L46.3048 13.5434C46.0569 13.7297 45.7616 13.8333 45.4572 13.841C45.2909 13.836 45.1273 13.795 44.9767 13.7205C44.8261 13.646 44.6917 13.5397 44.5819 13.408C44.472 13.2764 44.3892 13.1223 44.3384 12.9555C44.2876 12.7886 44.27 12.6125 44.2867 12.4381V7.46445H46.4258V4.7013H44.2867V1.81061H41.7843V4.7013H40.4524V7.46445H41.7843V12.4381Z" fill="white" fill-opacity="0.8"/>
<path d="M35.3506 16.1316C36.1149 16.1128 36.8577 15.8619 37.4898 15.409V15.8341H39.9922V4.2713H37.4898V11.0729C37.5074 11.369 37.4672 11.6658 37.3717 11.945C37.2763 12.2241 37.1275 12.4797 36.9346 12.696C36.7417 12.9122 36.5089 13.0846 36.2503 13.2024C35.9918 13.3202 35.713 13.381 35.4313 13.381C35.1496 13.381 34.8709 13.3202 34.6123 13.2024C34.3538 13.0846 34.1209 12.9122 33.928 12.696C33.7352 12.4797 33.5864 12.2241 33.4909 11.945C33.3954 11.6658 33.3553 11.369 33.3729 11.0729V4.2713H30.8705V11.0729C30.8705 13.8786 32.6867 16.1316 35.3506 16.1316Z" fill="white" fill-opacity="0.8"/>
<path d="M23.9685 11.1154L27.6817 15.8765H31.1528L26.1884 9.71258L30.4667 4.27128H26.9956L23.9685 8.30975V0.445374H21.4257V15.8765H23.9685V11.1154Z" fill="white" fill-opacity="0.8"/>
<path d="M17.5108 15.3239V15.834H20.0132V4.2713H17.5108V4.78142C16.8288 4.26311 16.0108 3.98086 15.1698 3.97372C12.3445 3.97372 10.165 6.69437 10.165 10.0527C10.165 13.411 12.3042 16.1316 15.1698 16.1316C16.0118 16.1311 16.8317 15.8482 17.5108 15.3239V15.3239ZM12.7078 10.0952C12.7078 8.26725 13.7168 6.8219 15.1295 6.8219C16.5421 6.8219 17.5108 8.26725 17.5108 10.0952C17.5108 11.9231 16.5421 13.3685 15.1295 13.3685C13.7168 13.3685 12.7078 11.9231 12.7078 10.0952Z" fill="white" fill-opacity="0.8"/>
<path d="M9.35775 6.3543C9.35668 5.03554 8.85881 3.77112 7.97344 2.83862C7.08807 1.90611 5.88756 1.38174 4.63546 1.38062H0.357147V15.8341H2.98064V11.3705H4.79691L7.98546 15.8341H11.2547L7.38004 10.4353C7.99838 9.97411 8.50133 9.36192 8.84578 8.65115C9.19022 7.94039 9.3659 7.15225 9.35775 6.3543ZM4.67582 8.64985H2.98064V4.14377H4.67582C5.24316 4.14377 5.78726 4.38115 6.18843 4.80367C6.5896 5.2262 6.81498 5.79927 6.81498 6.39681C6.81498 6.99435 6.5896 7.56742 6.18843 7.98995C5.78726 8.41247 5.24316 8.64985 4.67582 8.64985V8.64985Z" fill="white" fill-opacity="0.8"/>
</g>
</g>
<defs>
<clipPath id="clip0_304_8172">
<rect width="67" height="21" fill="white" transform="translate(0.357147 0.445374)"/>
</clipPath>
<clipPath id="clip1_304_8172">
<rect width="67" height="21" fill="white" transform="translate(0.357147 0.445374)"/>
</clipPath>
</defs>
</svg>
