<svg width="121" height="24" viewBox="0 0 121 24" fill="none" xmlns="http://www.w3.org/2000/svg">
<g clip-path="url(#clip0_304_8175)">
<g clip-path="url(#clip1_304_8175)">
<path fill-rule="evenodd" clip-rule="evenodd" d="M10.7091 16.2417L14.0499 19.6552L11.263 22.6236C10.3592 23.5862 8.89371 23.5862 7.98998 22.6236L1.03497 15.2161C0.131246 14.2533 0.131246 12.6927 1.03497 11.7302C1.93899 10.7676 3.40422 10.7676 4.30795 11.7302L9.62647 17.3947L10.7091 16.2417ZM11.5775 15.3168L14.5365 12.1652L17.8092 15.6512L15.0845 18.5532L11.5775 15.3168Z" fill="#CECCD3"/>
<path fill-rule="evenodd" clip-rule="evenodd" d="M24.9657 18.4877L21.4785 15.2299L29.6732 6.50199C30.5769 5.53946 32.0422 5.53946 32.9462 6.50199C33.8499 7.46452 33.8499 9.02508 32.9462 9.98792L24.9657 18.4877ZM23.8812 19.6427L21.0826 22.6234C20.1786 23.586 18.7133 23.586 17.8096 22.6234L5.94484 9.98669C5.04111 9.02385 5.04111 7.46328 5.94484 6.50075C6.84857 5.53792 8.3138 5.53792 9.21782 6.50075L19.4461 17.3945L20.5965 16.1693L23.8812 19.6427Z" fill="#CECCD3"/>
<path fill-rule="evenodd" clip-rule="evenodd" d="M19.9373 14.4306L23.1948 10.9285L29.2658 17.3946L34.5832 11.7312C35.4872 10.7687 36.9525 10.7687 37.8562 11.7312C38.7599 12.6941 38.7599 14.2546 37.8562 15.2172L30.9023 22.6235C29.9986 23.586 28.5334 23.586 27.6296 22.6235L19.9373 14.4306ZM18.5878 12.9933L10.8548 4.75719C9.9511 3.79466 9.9511 2.2341 10.8548 1.27157C11.7588 0.308729 13.2241 0.308729 14.1278 1.27157L21.8688 9.51626L18.5878 12.9933Z" fill="#CECCD3"/>
<path fill-rule="evenodd" clip-rule="evenodd" d="M28.0364 1.2728C27.1327 0.310271 25.6675 0.310271 24.7634 1.2728L14.5363 12.1653L17.8093 15.6513L28.0364 4.75874C28.9401 3.7959 28.9401 2.23533 28.0364 1.2728Z" fill="#CECCD3"/>
<path fill-rule="evenodd" clip-rule="evenodd" d="M50.5148 2.97513H47.6688V20.7805H58.0965V18.0915H50.5148V2.97513ZM64.2559 8.32886C65.9862 8.32886 67.1474 9.07983 67.7849 10.0004L67.9215 8.57111H70.3804V20.7805H67.9215L67.7849 19.3512C67.1474 20.2718 65.9862 21.0228 64.2559 21.0228C61.1367 21.0228 59.0193 18.3338 59.0193 14.6758C59.0193 10.9936 61.1367 8.32886 64.2559 8.32886ZM64.8478 10.8967C63.072 10.8967 61.7969 12.3744 61.7969 14.6758C61.7969 16.9772 63.072 18.4549 64.8478 18.4549C66.2139 18.4549 67.0336 17.6797 67.6483 16.638V12.7136C67.0336 11.6719 66.2139 10.8967 64.8478 10.8967ZM77.2684 4.47708H74.5362V8.57111H72.3733V11.0421H74.5362V16.4685C74.5362 19.4239 76.1983 21.0228 78.8166 21.0228C79.955 21.0228 80.7974 20.6836 81.3666 20.296L80.638 18.0189C80.2965 18.2369 79.7956 18.4065 79.067 18.4065C77.997 18.4065 77.2684 17.6797 77.2684 16.4442V11.0421H80.7291V8.57111H77.2684V4.47708ZM86.6836 4.47708H83.9514V8.57111H81.7885V11.0421H83.9514V16.4685C83.9514 19.4239 85.6135 21.0228 88.2318 21.0228C89.3702 21.0228 90.2126 20.6836 90.7818 20.296L90.0532 18.0189C89.7117 18.2369 89.2108 18.4065 88.4822 18.4065C87.4121 18.4065 86.6836 17.6797 86.6836 16.4442V11.0421H90.1443V8.57111H86.6836V4.47708ZM95.3474 8.57111H92.6153V20.7805H95.3474V8.57111ZM93.9813 2.87823C93.0251 2.87823 92.2965 3.62921 92.2965 4.67088C92.2965 5.71256 93.0251 6.46353 93.9813 6.46353C94.9603 6.46353 95.6889 5.71256 95.6889 4.67088C95.6889 3.62921 94.9603 2.87823 93.9813 2.87823ZM103.601 8.32886C100.072 8.32886 97.7273 10.9936 97.7273 14.6758C97.7273 18.3338 100.095 21.0228 103.624 21.0228C105.696 21.0228 107.267 20.0295 108.292 18.3338L106.334 16.7107C105.787 17.6797 104.899 18.4791 103.647 18.4791C101.621 18.4791 100.505 16.8076 100.505 14.6758C100.505 12.5198 101.575 10.8725 103.624 10.8725C104.899 10.8725 105.742 11.6477 106.265 12.6167L108.246 11.0178C107.222 9.32208 105.696 8.32886 103.601 8.32886ZM114.975 8.32886C118.504 8.32886 120.234 11.139 120.234 14.5547V15.5721H112.129C112.197 17.5101 113.29 18.576 115.202 18.576C116.546 18.576 117.525 17.9462 118.048 17.171L119.938 18.8183C118.8 20.2718 117.297 21.0228 115.18 21.0228C111.628 21.0228 109.351 18.358 109.351 14.7C109.351 11.0178 111.673 8.32886 114.975 8.32886ZM114.929 10.6545C113.313 10.6545 112.22 11.793 112.129 13.4888H117.547C117.479 11.8173 116.568 10.6545 114.929 10.6545Z" fill="white" fill-opacity="0.8"/>
</g>
</g>
<defs>
<clipPath id="clip0_304_8175">
<rect width="120" height="22.8" fill="white" transform="translate(0.357178 0.545349)"/>
</clipPath>
<clipPath id="clip1_304_8175">
<rect width="120" height="22.8" fill="white" transform="translate(0.357178 0.545349)"/>
</clipPath>
</defs>
</svg>
