<svg width="144" height="14" viewBox="0 0 144 14" fill="none" xmlns="http://www.w3.org/2000/svg">
<g clip-path="url(#clip0_304_8173)">
<g clip-path="url(#clip1_304_8173)">
<path d="M27.9558 12.6434C27.9558 12.5468 27.9558 12.4019 27.9558 12.3054C27.9013 12.3054 24.3586 12.4985 22.6145 12.4985C20.3255 12.4985 17.0554 12.4502 17.0554 12.4502L2.01276 12.3537C2.01276 12.3054 2.01276 12.1122 2.01276 12.0639L17.1099 12.0157C17.1099 12.0157 20.38 12.0639 22.669 12.0639C24.4131 12.0639 27.9013 12.0639 27.9558 12.0639C27.9558 11.9191 27.9013 11.6776 27.9013 11.4844C27.8468 11.4844 24.3586 11.7259 22.669 11.7259C20.38 11.7259 17.1099 11.581 17.1099 11.581H13.2402L8.11698 11.4362H2.06726C2.06726 11.3879 2.12177 11.1948 2.12177 11.1464C2.33977 11.1948 2.50328 11.243 3.2663 11.243C4.24734 11.243 4.68336 11.0499 4.68336 11.0499C4.68336 11.0499 5.39189 11.243 6.3184 11.243C6.75443 11.243 7.73551 10.8567 8.33499 11.0016C9.31607 11.243 9.69754 10.8567 9.69754 10.8567C9.69754 10.8567 9.91555 11.0982 10.3516 11.1948C10.6786 11.243 11.1146 11.0499 11.1146 11.0499C11.1146 11.0499 11.6596 11.3879 13.2402 11.3879C15.1478 11.3879 15.6928 10.4704 15.6928 10.4704H15.7473C15.7473 10.4704 15.6928 10.7119 15.8018 10.905C16.0198 11.2913 16.6193 11.3396 16.6193 11.3396C16.5648 10.2773 17.0554 9.55296 17.0554 9.55296H17.1099L17.0009 9.84265C16.7828 10.6153 17.1644 11.2913 17.1644 11.2913L17.3278 11.1948C17.3278 11.1948 17.1644 10.7119 17.3278 10.0358C17.4913 9.35981 17.7638 9.02175 17.7638 9.02175H17.8729C17.8729 9.02175 17.7093 9.55297 17.7093 9.93923C17.7093 10.2773 17.9274 11.0982 18.6359 11.3396C19.1809 11.5328 19.6169 11.0982 19.6169 11.0982C19.6169 11.0982 20.816 11.3879 21.797 11.3879C24.1406 11.3879 24.6856 11.0499 24.6856 11.0499C24.6856 11.0499 24.8491 11.2913 26.0482 11.2913C26.7567 11.2913 27.3017 11.243 27.6287 11.1948C27.7377 11.1948 27.7923 11.1948 27.8468 11.1464C27.8468 10.9533 27.7923 10.8084 27.7377 10.6153C27.0837 7.37996 24.9582 4.57926 22.0151 2.7926L21.8515 3.2272C24.7401 4.91728 26.8657 7.57312 27.4652 10.7119C27.1382 10.8084 26.6477 10.9533 26.0482 10.9533C25.1217 10.9533 24.9037 10.7119 24.9037 10.7119C24.9037 10.7119 24.5766 10.905 23.9771 10.905C23.4321 10.905 23.0506 10.567 23.0506 10.567C23.0506 10.567 22.5055 11.0499 21.5245 11.0499C20.38 11.0499 19.7804 10.4221 19.5624 10.1324C19.3444 9.84265 19.2354 9.60123 19.2354 9.60123H19.1809C19.1809 9.69781 19.2354 9.84265 19.2899 9.98754C19.4534 10.3739 19.5624 10.4704 19.6169 10.567C19.6714 10.6153 19.7259 10.7601 19.5624 10.8084C19.4534 10.8567 19.3989 10.7601 19.3444 10.7119C19.2899 10.6153 19.0719 10.3739 18.9629 9.98754C18.7994 9.55297 18.7994 9.26323 18.7449 9.02175H18.6359C18.5814 9.21491 18.5814 9.55297 18.5814 9.93923C18.6359 10.3739 18.7449 10.6635 18.7994 10.7601C18.7994 10.7601 18.8539 10.8084 18.8539 10.8567C18.8539 11.0016 18.7449 11.0499 18.6359 11.0499C18.5269 11.0499 18.4179 10.9533 18.3634 10.8567C17.8729 10.1324 18.4724 8.68375 18.6359 8.24917C18.9084 7.62144 18.9629 6.99364 18.9629 6.99364C18.9629 6.99364 19.2899 6.5108 19.4534 6.17275C19.6714 5.73818 19.8349 5.35188 19.9985 5.20701C20.2165 5.01386 20.5979 4.53098 20.9795 3.90323C21.034 3.80666 21.361 3.13062 21.4155 2.98576C21.47 2.88918 21.5245 2.74432 21.579 2.64774C21.7425 2.06828 21.906 1.39225 21.906 1.29568C21.906 1.15081 21.6335 1.05423 21.6335 1.05423C21.6335 1.05423 21.361 0.957657 21.1975 0.957657C21.0885 0.957657 20.9795 1.05423 20.8705 1.10252C20.707 1.15081 20.6525 1.10252 20.6525 1.10252C20.6525 1.10252 20.4344 1.00594 20.3255 1.05423C20.2165 1.05423 20.1075 1.1991 19.9985 1.1991C19.8349 1.24739 19.7804 1.24739 19.7804 1.24739C19.7804 1.24739 19.6169 1.1991 19.5079 1.1991C19.3989 1.24739 19.2899 1.29568 19.0719 1.44054C17.5458 0.957657 15.9653 0.716217 14.3302 0.716217C6.86344 0.716217 0.759212 6.02791 0.650208 12.6434C0.650208 12.6917 0.650208 12.9814 0.650208 12.9814H27.9558C27.9558 12.9814 27.9558 12.6917 27.9558 12.6434ZM10.5696 10.229C10.5151 10.229 10.5696 10.1807 10.5151 10.1807C10.8966 9.11833 11.7686 6.94538 13.1857 5.30359C13.3492 5.35188 13.4582 5.44845 13.6217 5.49674C12.5861 6.5108 11.2236 8.49059 10.5696 10.229ZM11.3871 10.567C11.6596 9.60123 12.3682 7.57312 13.8942 5.6416C14.0577 5.73818 14.1667 5.78647 14.3302 5.88307C13.2947 7.09022 12.0412 9.02175 11.4961 10.6153C11.4416 10.6153 11.4416 10.567 11.3871 10.567ZM12.4772 10.8084C12.4227 10.8084 12.4772 10.8084 12.4227 10.8084C12.6406 10.0358 13.2402 8.0077 14.6572 6.02791C14.8207 6.12449 14.9298 6.17275 15.0388 6.26933C14.0577 7.57312 12.9677 9.35981 12.4772 10.8084ZM13.5127 10.8084C13.4582 10.8084 13.4582 10.8084 13.4582 10.8084C13.6762 10.0841 14.1667 8.29744 15.3658 6.5108C15.5293 6.60738 15.6928 6.70396 15.7473 6.80054C14.8753 7.95944 13.9487 9.50465 13.5127 10.8084ZM17.1099 7.57312C16.8373 7.57312 16.4558 7.47654 16.3468 7.28338C16.4013 7.62144 16.8373 7.91112 17.2189 7.91112C17.1099 7.91112 17.0554 7.95944 16.9463 7.95944C16.4558 7.95944 16.0198 7.57312 16.0198 7.13854C16.0198 7.09022 16.0198 6.99365 16.0198 6.94538C16.4013 7.23512 17.2189 7.62144 17.7093 7.04196V7.09022C17.6548 7.3317 17.3823 7.57312 17.1099 7.57312ZM18.6359 5.68989C18.6359 5.83475 18.5269 5.88307 18.4179 5.93133C18.3634 5.97965 18.1999 6.02791 18.1999 6.07617H18.1454C18.1454 6.07617 18.0909 6.02791 18.0364 6.02791C18.0364 5.97965 18.0364 5.97965 18.0364 5.97965V5.93133V5.83475C18.0364 5.83475 17.9819 5.73818 18.0364 5.6416C18.0364 5.49674 18.1999 5.40017 18.1999 5.40017H18.2544C18.2544 5.40017 18.1999 5.49674 18.1454 5.59332C18.1454 5.6416 18.0909 5.78647 18.1454 5.88307V5.97965L18.1999 6.02791L18.2544 5.97965C18.3634 5.93133 18.3634 5.88307 18.3634 5.88307C18.3634 5.88307 18.2544 5.78647 18.3089 5.68989C18.3634 5.59332 18.5269 5.59332 18.5269 5.59332C18.5814 5.44845 18.5269 5.35188 18.5269 5.35188L18.6359 5.40017C18.5814 5.35188 18.6359 5.49674 18.6359 5.68989ZM19.3444 1.5854C19.5079 1.53711 19.5624 1.44054 19.7259 1.39225C19.8895 1.34396 19.9985 1.39225 20.1075 1.39225C20.2165 1.39225 20.38 1.24739 20.4889 1.24739C20.5979 1.24739 20.6525 1.29568 20.7615 1.29568C20.816 1.39225 21.143 1.1991 21.1975 1.1991C21.252 1.1991 21.47 1.1991 21.4155 1.39225C21.361 1.53711 21.252 1.97171 21.034 2.55117C20.9795 2.69603 20.8705 2.88918 20.7615 3.08234C20.6525 3.27549 20.5434 3.51693 20.38 3.71008C19.7804 4.57926 19.1809 4.38611 18.0364 4.869C17.1099 5.2553 16.7283 5.49674 16.6193 5.6416C16.5103 5.54503 16.4558 5.54503 16.3468 5.49674C16.5103 5.35188 16.8918 5.11043 17.6548 4.77242C18.4724 4.38611 19.8349 3.90323 20.1075 3.46864C20.1075 3.42035 20.1075 3.42035 20.1075 3.37206C19.7804 3.56522 19.5079 3.66179 19.3989 3.75837C18.0909 4.33783 17.6003 4.48269 17.0009 4.77242C16.7283 4.91728 16.2923 5.11043 16.0198 5.30359C15.9653 5.2553 15.8563 5.20701 15.8018 5.15872C16.0743 4.96557 16.4558 4.77242 16.8373 4.57926C17.4368 4.33783 17.9274 4.09638 19.3444 3.37206C19.4534 3.32377 20.162 2.93747 20.707 2.55117C20.707 2.50288 20.707 2.45459 20.7615 2.4063C20.271 2.64774 18.6904 3.42035 18.3634 3.56522C17.0554 4.14467 17.1099 4.09638 16.5103 4.38611C16.1288 4.57926 15.7473 4.77242 15.4748 4.96557C15.4203 4.91728 15.3113 4.869 15.2568 4.82071C15.5838 4.62755 15.8563 4.4344 16.2923 4.24125C16.8918 3.95152 16.9463 3.90323 18.3089 3.32377C18.9629 3.03405 20.162 2.30972 20.816 1.97171C20.816 1.92342 20.816 1.92342 20.816 1.87513C20.162 2.21315 18.2544 3.08234 17.9819 3.2272C16.6738 3.75837 16.5103 3.80666 15.9108 4.09638C15.5838 4.24125 15.2568 4.4344 14.9843 4.57926C14.9298 4.53098 14.8753 4.48269 14.8207 4.4344C15.0388 4.28954 15.4203 4.04809 15.9108 3.80666C16.5103 3.51693 16.6193 3.46864 17.9274 2.88918C18.0909 2.84089 18.7449 2.50288 19.3444 2.16486C19.5079 2.06828 19.7259 1.97171 19.8895 1.87513C20.053 1.77856 20.162 1.68198 20.271 1.63369L20.2165 1.5854C19.944 1.68198 19.5624 1.87513 19.4534 1.92342C18.7449 2.26143 17.8729 2.64774 17.6003 2.74432C16.2923 3.32377 16.1288 3.37206 15.5293 3.66179C15.2023 3.80666 14.8207 3.99981 14.6027 4.19296C14.5482 4.14467 14.4937 4.09638 14.4392 4.04809C14.7117 3.85494 15.0933 3.6135 15.5293 3.42035C16.1288 3.13062 16.2378 3.08234 17.5458 2.50288C17.7638 2.4063 17.9819 2.30972 18.1454 2.21315C18.1999 2.21315 18.7994 1.92342 19.3444 1.5854ZM14.8753 1.29568C16.1288 1.29568 17.3823 1.44054 18.5269 1.77856C18.3089 1.92342 17.9819 2.06828 17.5458 2.26143C16.0198 2.93747 15.8563 2.98576 15.2023 3.27549C14.7662 3.46864 14.4392 3.66179 14.1667 3.85494C14.1667 3.85494 13.8942 3.51693 13.7307 3.42035C13.5672 3.32377 13.1857 3.2272 13.0767 3.17891C12.8587 3.08234 12.8042 2.98576 12.4772 2.88918C12.2047 2.7926 11.9867 2.84089 11.8231 2.84089C11.6596 2.7926 11.4961 2.74432 11.2236 2.74432C11.0601 2.74432 10.8421 2.84089 10.6786 2.84089C10.4606 2.84089 10.2971 2.7926 10.1336 2.7926C9.97006 2.84089 9.75204 2.98576 9.53402 2.98576C9.37051 3.03405 9.15255 2.98576 9.04355 2.98576C8.93454 3.03405 8.66202 3.2272 8.49851 3.27549C8.3895 3.32377 8.06247 3.32377 8.11698 3.56522C8.11698 3.75837 8.60751 3.80666 8.60751 3.80666C8.60751 3.80666 10.7331 4.04809 12.8042 5.01386C12.5316 5.35188 12.2047 5.68989 11.9866 6.07617C11.8231 6.02791 11.6051 5.97965 11.4961 5.97965C11.2781 5.97965 11.0601 6.07617 10.8966 6.02791C10.5696 6.02791 10.5696 5.97965 10.1881 6.02791C9.91555 6.07617 9.91555 6.12449 9.69754 6.17275C9.53402 6.22107 9.37051 6.17275 9.09805 6.22107C8.98904 6.26933 8.77103 6.46249 8.60751 6.5108C8.49851 6.55907 8.28049 6.55907 8.11698 6.65565C8.00797 6.75222 8.00797 6.8488 7.73551 6.94538C7.57199 7.04196 7.46299 6.99364 7.29947 7.13854C7.19047 7.3317 7.19047 7.47654 6.91794 7.6697C6.59092 7.91112 6.59092 8.10428 6.64542 8.15259C6.75443 8.34575 7.24497 8.15259 7.24497 8.15259C7.24497 8.15259 8.98904 7.62144 11.0601 7.52486C10.5151 8.49059 10.0791 9.40807 9.80654 10.0358C9.75204 10.1807 9.69754 10.3255 9.64303 10.4221C9.58853 10.4221 9.58853 10.4221 9.58853 10.4221C9.47952 10.3255 9.47952 10.1807 9.53402 9.84265C9.58853 9.50465 9.91555 8.82859 10.0246 8.68375H9.91555C9.80654 8.82859 9.47952 9.35981 9.42502 9.45639C9.31607 9.64954 9.26156 9.69781 9.04355 10.1324C8.98904 10.229 8.88003 10.4221 8.71652 10.4221C8.60751 10.4221 8.49851 10.3739 8.49851 10.2773C8.49851 10.229 8.55301 10.1324 8.60751 10.1324C8.88003 9.74607 9.09805 9.35981 9.15255 9.16665H9.04355C9.04355 9.16665 8.28049 10.7119 6.64542 10.7119C6.10042 10.7119 5.50089 10.4704 5.50089 10.4704C5.50089 10.4704 4.73786 10.7601 3.70233 10.7601C2.88479 10.7601 2.39427 10.6153 2.17626 10.567C3.32081 5.35188 8.3895 1.29568 14.8753 1.29568Z" fill="white" fill-opacity="0.8"/>
<path d="M52.6994 12.6916L52.5904 12.6434C51.9364 12.3536 51.7184 11.5327 51.3914 10.8084L48.0668 2.98575H44.9056V3.22719L45.0692 3.27548C45.0692 3.27548 45.2327 3.32376 45.2872 3.37205C45.4506 3.46863 45.6141 3.66178 45.3961 4.14467C45.3961 4.3861 45.2872 4.57926 45.2872 4.57926L42.671 10.8084C42.3985 11.4845 42.1805 12.3536 41.5265 12.6434L41.3085 12.74V12.9814H44.8511V12.74L44.5786 12.6434C44.2516 12.5468 44.1971 12.2571 44.5241 11.4362L44.9056 10.3255H48.6663C48.7753 10.567 48.8843 10.905 49.0478 11.3879C49.2113 11.8707 49.4838 12.4985 49.1023 12.6916L48.8843 12.7882V13.0297H52.6994V12.6916ZM48.1213 8.68373H45.6141L46.8677 5.59331L48.1213 8.68373Z" fill="white" fill-opacity="0.8"/>
<path d="M75.7 2.98575V3.22719L75.9725 3.32376C76.4085 3.46863 76.354 4.3861 76.354 4.96556V11.0016C76.354 11.4845 76.354 12.4985 75.9725 12.6434L75.7 12.74V12.9814H79.2967V12.74L79.0242 12.6434C78.5881 12.4985 78.6426 11.4845 78.6426 11.0016V4.96556C78.6426 4.14467 78.7516 3.42034 79.0242 3.32376L79.2967 3.22719V2.98575H75.7Z" fill="white" fill-opacity="0.8"/>
<path d="M62.1824 2.98575V3.22719L62.4549 3.32376C62.891 3.46863 62.8365 4.3861 62.8365 4.96556V11.0016C62.8365 11.4845 62.8365 12.4985 62.4549 12.6434L62.1824 12.74V12.9814H65.7797V12.74L65.5072 12.6434C65.0711 12.4985 65.1257 11.4845 65.1257 11.0016V4.96556C65.1257 4.14467 65.2347 3.42034 65.5072 3.32376L65.7797 3.22719V2.98575H62.1824Z" fill="white" fill-opacity="0.8"/>
<path d="M41.9632 2.11658C41.1457 1.39226 39.8921 1.00595 38.5296 1.00595H33.8969V1.24739L34.1149 1.29568C34.7144 1.53712 34.6599 2.8409 34.6599 3.80666V10.1324V10.3739C34.6599 11.0982 34.6599 12.402 34.1149 12.5951L33.8969 12.6917V12.9331H38.1481V12.6917L37.9846 12.5951C37.2215 12.1605 37.2215 11.1948 37.2215 10.1807V8.05601L37.6576 8.2009C37.6576 8.2009 38.366 8.44233 39.0201 8.44233C40.9822 8.44233 43.1077 7.23511 43.1077 4.62756C43.1077 3.6618 42.7263 2.79261 41.9632 2.11658ZM37.8211 7.52485L37.4395 7.57311H37.2215V3.08234C37.494 3.03405 37.8211 3.03405 38.257 3.03405C39.1291 3.03405 39.8376 3.22721 40.2191 3.61351C40.6007 3.95153 40.7642 4.38612 40.7642 5.01387C40.7642 6.5108 39.2381 7.42827 37.8211 7.52485Z" fill="white" fill-opacity="0.8"/>
<path d="M99.8993 1.00595H97.9916H92.5412V1.29568L92.8682 1.39226C93.3588 1.58541 93.3588 2.69603 93.3588 3.32378V10.567C93.3588 11.1464 93.3588 12.3537 92.8682 12.5468L92.5412 12.6434V12.9331H96.629V12.6434L96.302 12.5468C95.8115 12.3537 95.8115 11.1948 95.8115 10.567V8.20085H98.2096C98.2096 8.20085 99.2452 8.10427 99.4087 8.49059L99.4632 8.63549L99.7358 8.68375L99.8993 5.49674H99.5178L99.4632 5.68989C99.3542 5.93132 98.4277 6.0279 98.1551 5.97964H95.757C95.757 4.91729 95.757 3.61351 95.757 3.03405H98.7002C99.4087 3.03405 99.7903 3.17892 99.8993 3.51693L99.9532 3.71008H100.28L101.043 0.861084C101.152 0.95766 100.171 1.00595 99.8993 1.00595Z" fill="white" fill-opacity="0.8"/>
<path d="M60.9833 10.2772L60.9288 10.3255C60.8198 10.4221 60.7108 10.4704 60.7108 10.4704C60.0568 10.8567 58.9667 11.2913 57.8769 11.2913C57.0049 11.2913 56.2963 11.0499 55.6968 10.567C54.9883 9.93923 54.6068 8.92518 54.6068 7.76628C54.6068 5.93133 55.8058 4.67582 57.5499 4.67582C58.3674 4.67582 59.1847 4.91726 60.0023 5.40014L60.2203 5.545L60.6563 5.78645V5.35185V3.37204V3.17889L60.3293 3.1306C59.2392 2.88916 58.3674 2.74429 57.6044 2.74429C56.0783 2.74429 54.7703 3.22717 53.7893 4.09636C52.7537 5.01383 52.1542 6.41417 52.1542 7.95939C52.1542 9.55292 52.6992 10.8567 53.7348 11.7742C54.7703 12.6917 56.2963 13.1746 58.0404 13.1746C58.9124 13.1746 59.7297 13.0297 60.3838 12.6917H60.4383L60.5473 12.6433L60.6018 12.5468L61.3649 10.229H60.9833V10.2772Z" fill="white" fill-opacity="0.8"/>
<path d="M88.8343 10.2772L88.5073 10.4704C87.8533 10.8567 86.7632 11.2913 85.6731 11.2913C84.801 11.2913 84.0925 11.0499 83.4929 10.567C82.7844 9.93923 82.4029 8.92518 82.4029 7.76628C82.4029 5.93133 83.602 4.67582 85.3461 4.67582C86.1636 4.67582 86.9812 4.91726 87.7988 5.40014L88.4528 5.78645V3.37204V3.17889L88.1803 3.1306C87.0902 2.88916 86.2181 2.74429 85.4551 2.74429C83.929 2.74429 82.6209 3.22717 81.6398 4.09636C80.6042 5.01383 80.0047 6.41417 80.0047 7.95939C80.0047 9.55292 80.5497 10.8567 81.5853 11.7742C82.6209 12.6917 84.147 13.1746 85.8911 13.1746C86.7632 13.1746 87.5807 13.0297 88.2348 12.6917L88.3983 12.6433L89.2159 10.229H88.8343V10.2772Z" fill="white" fill-opacity="0.8"/>
<path d="M73.7917 2.98567H70.7946H67.1973V3.22712L67.4699 3.32369C67.9059 3.46855 67.8514 4.38603 67.8514 4.96549V11.0015C67.8514 11.4844 67.8514 12.4984 67.4699 12.6433L67.1973 12.7398V12.9813H70.7946V12.7398L70.5221 12.6433C70.0861 12.4984 70.1406 11.4844 70.1406 11.0015V9.02169H72.1027C72.1027 9.02169 72.9742 8.97342 73.0832 9.26311L73.1377 9.408L73.3557 9.45626L73.5192 6.80042H73.2467L73.1922 6.94532C73.1377 7.13847 72.3207 7.23505 72.1027 7.18674H70.0861C70.0861 6.31758 70.0861 5.20693 70.0861 4.72404H72.7562C73.3557 4.72404 73.6827 4.86891 73.7917 5.11035L73.8462 5.25521H74.1188L74.7728 2.8891C74.8818 2.8891 74.0098 2.98567 73.7917 2.98567Z" fill="white" fill-opacity="0.8"/>
<path d="M120.009 2.98579V3.22723L120.227 3.32381C120.718 3.61353 120.772 4.04813 120.772 4.86902V9.45639C119.246 7.52486 115.868 2.9375 115.868 2.9375H113.252V3.17894L113.47 3.27552C113.96 3.56525 114.015 4.04813 114.015 4.86902V10.8568C114.015 11.6777 114.015 12.3054 113.47 12.5951L113.306 12.6917V12.9331H116.631V12.6917L116.413 12.5951C115.922 12.4985 115.922 11.6777 115.922 10.8568V6.5108L119.192 10.6636C119.791 11.4362 120.772 12.5468 121.808 12.8365C122.626 13.078 122.789 13.0297 122.789 13.0297V4.91731C122.789 4.09642 122.789 3.61353 123.334 3.32381L123.552 3.22723V2.98579H120.009Z" fill="white" fill-opacity="0.8"/>
<path d="M133.417 4.43443C132.327 3.46867 130.692 2.9375 128.676 2.9375H124.588V3.17894L124.806 3.22723L124.915 3.27552C125.405 3.42038 125.296 4.43443 125.296 4.9656V11.0016C125.296 11.7259 125.296 12.3537 124.697 12.6917L124.533 12.7883V12.9814H128.567C132.272 12.9814 134.889 10.905 134.889 7.91118C134.889 6.5108 134.398 5.30362 133.417 4.43443ZM131.509 10.4704C130.746 11.0982 129.711 11.4845 128.403 11.4845C128.131 11.4845 127.967 11.4362 127.64 11.3879V4.62759C128.076 4.53101 128.294 4.48272 128.676 4.48272C129.929 4.48272 130.855 4.77245 131.509 5.35191C132.163 5.93138 132.49 6.89712 132.49 8.05602C132.49 9.02181 132.109 9.89097 131.509 10.4704Z" fill="white" fill-opacity="0.8"/>
<path d="M111.234 11.1464V4.86899C111.234 4.14467 111.234 3.46863 111.779 3.32376L111.997 3.27548L111.834 2.98575H108.128V3.22719L108.346 3.27548C108.891 3.46863 108.836 4.24124 108.836 4.77241V9.55295C108.836 10.0358 108.836 10.2773 108.564 10.6153C108.128 11.1464 107.31 11.4845 106.438 11.4845C105.73 11.4845 105.239 11.3396 104.858 11.0016C104.367 10.6153 104.149 9.89095 104.149 8.97347V4.72412C104.149 4.14467 104.149 3.37205 104.64 3.22719L104.858 3.1789V2.98575H101.043V3.22719L101.261 3.27548C101.751 3.42034 101.806 4.33782 101.751 5.06214V9.16663C101.751 10.1807 101.751 11.1947 102.678 12.1122C103.441 12.8365 104.585 13.2228 105.894 13.2228C106.819 13.2228 107.964 12.7882 108.782 12.2088V12.9814H111.888V12.74L111.67 12.6916C111.234 12.4985 111.18 11.8707 111.234 11.1464Z" fill="white" fill-opacity="0.8"/>
<path d="M143.064 9.93926C143.064 10.7118 142.683 11.4845 141.974 12.0639C141.156 12.7883 140.012 13.1745 138.758 13.1745C137.777 13.1745 136.851 13.0297 135.979 12.7399H135.924L135.815 12.6917V12.5951V12.5468L135.379 10.7602L135.325 10.4704L135.27 10.229H135.543L135.924 10.6153C136.742 11.2913 137.886 11.5811 138.922 11.5811C139.63 11.5811 140.666 11.1465 140.666 10.4221C140.666 9.60121 139.794 9.21494 138.649 8.73205C137.287 8.15257 135.652 7.42826 135.652 5.59332C135.652 3.51692 137.832 2.7926 139.685 2.7926C140.502 2.7926 141.265 2.88918 141.974 3.13062H142.029L142.192 3.17891V3.32377V3.37206V4.62755V5.06215V5.35187L141.811 5.11043L141.429 4.91728C141.102 4.72413 140.284 4.4344 139.576 4.4344C139.303 4.4344 138.704 4.48269 138.322 4.82071C138.159 4.96557 138.05 5.15872 138.05 5.44845C138.05 6.17278 139.031 6.60736 140.066 7.04194C141.374 7.62142 143.064 8.34573 143.064 9.93926Z" fill="white" fill-opacity="0.8"/>
</g>
</g>
<defs>
<clipPath id="clip0_304_8173">
<rect width="143" height="13" fill="white" transform="translate(0.357178 0.445374)"/>
</clipPath>
<clipPath id="clip1_304_8173">
<rect width="143" height="13" fill="white" transform="translate(0.357178 0.445374)"/>
</clipPath>
</defs>
</svg>
