<svg width="55" height="21" viewBox="0 0 55 21" fill="none" xmlns="http://www.w3.org/2000/svg">
<g clip-path="url(#clip0_304_8176)">
<path d="M5.83233 6.05069H0.357178L0.357178 0.945374H17.3734V6.05069H11.8971V20.9454H5.83233V6.05069V6.05069ZM18.315 0.945374H34.8604V6.05069H24.3803V8.51336H34.8604V13.3174H24.3803V15.8401H34.8604V20.9454H18.315V0.945374V0.945374ZM35.8607 0.945374H45.8114C52.3475 0.945374 54.6429 5.87053 54.6429 10.9157C54.6429 17.0418 51.4628 20.9454 44.6335 20.9454H35.8607V0.945374V0.945374ZM41.926 15.8401H44.28C48.0482 15.8401 48.5793 12.7175 48.5793 10.8558C48.5793 9.59399 48.1671 6.11081 43.8092 6.11081H41.8656L41.926 15.8401V15.8401Z" fill="white" fill-opacity="0.8"/>
</g>
<defs>
<clipPath id="clip0_304_8176">
<rect width="54.2857" height="20" fill="white" transform="translate(0.357178 0.945374)"/>
</clipPath>
</defs>
</svg>
